%TF.GenerationSoftware,KiCad,Pcbnew,(6.0.7)*%
%TF.CreationDate,2022-09-18T19:12:44+05:00*%
%TF.ProjectId,minisumo_v3,6d696e69-7375-46d6-9f5f-76332e6b6963,rev?*%
%TF.SameCoordinates,Original*%
%TF.FileFunction,Legend,Top*%
%TF.FilePolarity,Positive*%
%FSLAX46Y46*%
G04 Gerber Fmt 4.6, Leading zero omitted, Abs format (unit mm)*
G04 Created by KiCad (PCBNEW (6.0.7)) date 2022-09-18 19:12:44*
%MOMM*%
%LPD*%
G01*
G04 APERTURE LIST*
%ADD10C,0.150000*%
%ADD11C,0.071628*%
%ADD12C,0.076200*%
%ADD13C,0.254000*%
%ADD14C,0.093472*%
%ADD15C,0.029440*%
%ADD16C,0.048000*%
%ADD17C,0.120000*%
%ADD18C,0.154000*%
%ADD19C,0.152400*%
%ADD20C,0.127000*%
%ADD21C,0.100000*%
%ADD22C,0.203200*%
%ADD23C,0.200000*%
%ADD24R,1.350000X1.350000*%
%ADD25C,1.350000*%
G04 APERTURE END LIST*
D10*
X160757023Y-81377500D02*
X160680833Y-81315595D01*
X160566547Y-81315595D01*
X160452261Y-81377500D01*
X160376071Y-81501309D01*
X160337976Y-81625119D01*
X160299880Y-81872738D01*
X160299880Y-82058452D01*
X160337976Y-82306071D01*
X160376071Y-82429880D01*
X160452261Y-82553690D01*
X160566547Y-82615595D01*
X160642738Y-82615595D01*
X160757023Y-82553690D01*
X160795119Y-82491785D01*
X160795119Y-82058452D01*
X160642738Y-82058452D01*
X161137976Y-82615595D02*
X161137976Y-81315595D01*
X161595119Y-82615595D01*
X161595119Y-81315595D01*
X161976071Y-82615595D02*
X161976071Y-81315595D01*
X162166547Y-81315595D01*
X162280833Y-81377500D01*
X162357023Y-81501309D01*
X162395119Y-81625119D01*
X162433214Y-81872738D01*
X162433214Y-82058452D01*
X162395119Y-82306071D01*
X162357023Y-82429880D01*
X162280833Y-82553690D01*
X162166547Y-82615595D01*
X161976071Y-82615595D01*
X160261785Y-83408595D02*
X160757023Y-83408595D01*
X160490357Y-83903833D01*
X160604642Y-83903833D01*
X160680833Y-83965738D01*
X160718928Y-84027642D01*
X160757023Y-84151452D01*
X160757023Y-84460976D01*
X160718928Y-84584785D01*
X160680833Y-84646690D01*
X160604642Y-84708595D01*
X160376071Y-84708595D01*
X160299880Y-84646690D01*
X160261785Y-84584785D01*
X161023690Y-83841928D02*
X161214166Y-84708595D01*
X161404642Y-83841928D01*
X161633214Y-83408595D02*
X162128452Y-83408595D01*
X161861785Y-83903833D01*
X161976071Y-83903833D01*
X162052261Y-83965738D01*
X162090357Y-84027642D01*
X162128452Y-84151452D01*
X162128452Y-84460976D01*
X162090357Y-84584785D01*
X162052261Y-84646690D01*
X161976071Y-84708595D01*
X161747500Y-84708595D01*
X161671309Y-84646690D01*
X161633214Y-84584785D01*
X160337976Y-86120642D02*
X160604642Y-86120642D01*
X160718928Y-86801595D02*
X160337976Y-86801595D01*
X160337976Y-85501595D01*
X160718928Y-85501595D01*
X161061785Y-85934928D02*
X161061785Y-86801595D01*
X161061785Y-86058738D02*
X161099880Y-85996833D01*
X161176071Y-85934928D01*
X161290357Y-85934928D01*
X161366547Y-85996833D01*
X161404642Y-86120642D01*
X161404642Y-86801595D01*
X162128452Y-86739690D02*
X162052261Y-86801595D01*
X161899880Y-86801595D01*
X161823690Y-86739690D01*
X161785595Y-86677785D01*
X161747500Y-86553976D01*
X161747500Y-86182547D01*
X161785595Y-86058738D01*
X161823690Y-85996833D01*
X161899880Y-85934928D01*
X162052261Y-85934928D01*
X162128452Y-85996833D01*
X163347500Y-86120642D02*
X163461785Y-86182547D01*
X163499880Y-86244452D01*
X163537976Y-86368261D01*
X163537976Y-86553976D01*
X163499880Y-86677785D01*
X163461785Y-86739690D01*
X163385595Y-86801595D01*
X163080833Y-86801595D01*
X163080833Y-85501595D01*
X163347500Y-85501595D01*
X163423690Y-85563500D01*
X163461785Y-85625404D01*
X163499880Y-85749214D01*
X163499880Y-85873023D01*
X163461785Y-85996833D01*
X163423690Y-86058738D01*
X163347500Y-86120642D01*
X163080833Y-86120642D01*
X160337976Y-88213642D02*
X160604642Y-88213642D01*
X160718928Y-88894595D02*
X160337976Y-88894595D01*
X160337976Y-87594595D01*
X160718928Y-87594595D01*
X161061785Y-88027928D02*
X161061785Y-88894595D01*
X161061785Y-88151738D02*
X161099880Y-88089833D01*
X161176071Y-88027928D01*
X161290357Y-88027928D01*
X161366547Y-88089833D01*
X161404642Y-88213642D01*
X161404642Y-88894595D01*
X162128452Y-88832690D02*
X162052261Y-88894595D01*
X161899880Y-88894595D01*
X161823690Y-88832690D01*
X161785595Y-88770785D01*
X161747500Y-88646976D01*
X161747500Y-88275547D01*
X161785595Y-88151738D01*
X161823690Y-88089833D01*
X161899880Y-88027928D01*
X162052261Y-88027928D01*
X162128452Y-88089833D01*
X163042738Y-88523166D02*
X163423690Y-88523166D01*
X162966547Y-88894595D02*
X163233214Y-87594595D01*
X163499880Y-88894595D01*
X160337976Y-90987595D02*
X160337976Y-89687595D01*
X160604642Y-90616166D01*
X160871309Y-89687595D01*
X160871309Y-90987595D01*
X161861785Y-90987595D02*
X161861785Y-89687595D01*
X162166547Y-89687595D01*
X162242738Y-89749500D01*
X162280833Y-89811404D01*
X162318928Y-89935214D01*
X162318928Y-90120928D01*
X162280833Y-90244738D01*
X162242738Y-90306642D01*
X162166547Y-90368547D01*
X161861785Y-90368547D01*
X162623690Y-89811404D02*
X162661785Y-89749500D01*
X162737976Y-89687595D01*
X162928452Y-89687595D01*
X163004642Y-89749500D01*
X163042738Y-89811404D01*
X163080833Y-89935214D01*
X163080833Y-90059023D01*
X163042738Y-90244738D01*
X162585595Y-90987595D01*
X163080833Y-90987595D01*
X160337976Y-93080595D02*
X160337976Y-91780595D01*
X160604642Y-92709166D01*
X160871309Y-91780595D01*
X160871309Y-93080595D01*
X161861785Y-93080595D02*
X161861785Y-91780595D01*
X162166547Y-91780595D01*
X162242738Y-91842500D01*
X162280833Y-91904404D01*
X162318928Y-92028214D01*
X162318928Y-92213928D01*
X162280833Y-92337738D01*
X162242738Y-92399642D01*
X162166547Y-92461547D01*
X161861785Y-92461547D01*
X163080833Y-93080595D02*
X162623690Y-93080595D01*
X162852261Y-93080595D02*
X162852261Y-91780595D01*
X162776071Y-91966309D01*
X162699880Y-92090119D01*
X162623690Y-92152023D01*
X142446666Y-130245714D02*
X142446666Y-129888571D01*
X142646666Y-130317142D02*
X141946666Y-130067142D01*
X142646666Y-129817142D01*
X141946666Y-129424285D02*
X141946666Y-129352857D01*
X141980000Y-129281428D01*
X142013333Y-129245714D01*
X142080000Y-129210000D01*
X142213333Y-129174285D01*
X142380000Y-129174285D01*
X142513333Y-129210000D01*
X142580000Y-129245714D01*
X142613333Y-129281428D01*
X142646666Y-129352857D01*
X142646666Y-129424285D01*
X142613333Y-129495714D01*
X142580000Y-129531428D01*
X142513333Y-129567142D01*
X142380000Y-129602857D01*
X142213333Y-129602857D01*
X142080000Y-129567142D01*
X142013333Y-129531428D01*
X141980000Y-129495714D01*
X141946666Y-129424285D01*
X142446666Y-127745714D02*
X142446666Y-127388571D01*
X142646666Y-127817142D02*
X141946666Y-127567142D01*
X142646666Y-127317142D01*
X142646666Y-126674285D02*
X142646666Y-127102857D01*
X142646666Y-126888571D02*
X141946666Y-126888571D01*
X142046666Y-126960000D01*
X142113333Y-127031428D01*
X142146666Y-127102857D01*
X142446666Y-125245714D02*
X142446666Y-124888571D01*
X142646666Y-125317142D02*
X141946666Y-125067142D01*
X142646666Y-124817142D01*
X142013333Y-124602857D02*
X141980000Y-124567142D01*
X141946666Y-124495714D01*
X141946666Y-124317142D01*
X141980000Y-124245714D01*
X142013333Y-124210000D01*
X142080000Y-124174285D01*
X142146666Y-124174285D01*
X142246666Y-124210000D01*
X142646666Y-124638571D01*
X142646666Y-124174285D01*
X142446666Y-122745714D02*
X142446666Y-122388571D01*
X142646666Y-122817142D02*
X141946666Y-122567142D01*
X142646666Y-122317142D01*
X141946666Y-122138571D02*
X141946666Y-121674285D01*
X142213333Y-121924285D01*
X142213333Y-121817142D01*
X142246666Y-121745714D01*
X142280000Y-121710000D01*
X142346666Y-121674285D01*
X142513333Y-121674285D01*
X142580000Y-121710000D01*
X142613333Y-121745714D01*
X142646666Y-121817142D01*
X142646666Y-122031428D01*
X142613333Y-122102857D01*
X142580000Y-122138571D01*
X142446666Y-120245714D02*
X142446666Y-119888571D01*
X142646666Y-120317142D02*
X141946666Y-120067142D01*
X142646666Y-119817142D01*
X142180000Y-119245714D02*
X142646666Y-119245714D01*
X141913333Y-119424285D02*
X142413333Y-119602857D01*
X142413333Y-119138571D01*
X142446666Y-117745714D02*
X142446666Y-117388571D01*
X142646666Y-117817142D02*
X141946666Y-117567142D01*
X142646666Y-117317142D01*
X141946666Y-116710000D02*
X141946666Y-117067142D01*
X142280000Y-117102857D01*
X142246666Y-117067142D01*
X142213333Y-116995714D01*
X142213333Y-116817142D01*
X142246666Y-116745714D01*
X142280000Y-116710000D01*
X142346666Y-116674285D01*
X142513333Y-116674285D01*
X142580000Y-116710000D01*
X142613333Y-116745714D01*
X142646666Y-116817142D01*
X142646666Y-116995714D01*
X142613333Y-117067142D01*
X142580000Y-117102857D01*
X142837142Y-134604285D02*
X142408571Y-134904285D01*
X142837142Y-135118571D02*
X141937142Y-135118571D01*
X141937142Y-134775714D01*
X141980000Y-134690000D01*
X142022857Y-134647142D01*
X142108571Y-134604285D01*
X142237142Y-134604285D01*
X142322857Y-134647142D01*
X142365714Y-134690000D01*
X142408571Y-134775714D01*
X142408571Y-135118571D01*
X141937142Y-134304285D02*
X142837142Y-133704285D01*
X141937142Y-133704285D02*
X142837142Y-134304285D01*
X141937142Y-132804285D02*
X141937142Y-132290000D01*
X142837142Y-132547142D02*
X141937142Y-132547142D01*
X141937142Y-132075714D02*
X142837142Y-131475714D01*
X141937142Y-131475714D02*
X142837142Y-132075714D01*
X101478571Y-135050476D02*
X101478571Y-134431428D01*
X102050000Y-134764761D01*
X102050000Y-134621904D01*
X102121428Y-134526666D01*
X102192857Y-134479047D01*
X102335714Y-134431428D01*
X102692857Y-134431428D01*
X102835714Y-134479047D01*
X102907142Y-134526666D01*
X102978571Y-134621904D01*
X102978571Y-134907619D01*
X102907142Y-135002857D01*
X102835714Y-135050476D01*
X101978571Y-134098095D02*
X102978571Y-133860000D01*
X101978571Y-133621904D01*
X101478571Y-133336190D02*
X101478571Y-132717142D01*
X102050000Y-133050476D01*
X102050000Y-132907619D01*
X102121428Y-132812380D01*
X102192857Y-132764761D01*
X102335714Y-132717142D01*
X102692857Y-132717142D01*
X102835714Y-132764761D01*
X102907142Y-132812380D01*
X102978571Y-132907619D01*
X102978571Y-133193333D01*
X102907142Y-133288571D01*
X102835714Y-133336190D01*
X105322142Y-135074285D02*
X105393571Y-134931428D01*
X105393571Y-134693333D01*
X105322142Y-134598095D01*
X105250714Y-134550476D01*
X105107857Y-134502857D01*
X104965000Y-134502857D01*
X104822142Y-134550476D01*
X104750714Y-134598095D01*
X104679285Y-134693333D01*
X104607857Y-134883809D01*
X104536428Y-134979047D01*
X104465000Y-135026666D01*
X104322142Y-135074285D01*
X104179285Y-135074285D01*
X104036428Y-135026666D01*
X103965000Y-134979047D01*
X103893571Y-134883809D01*
X103893571Y-134645714D01*
X103965000Y-134502857D01*
X105393571Y-134074285D02*
X103893571Y-134074285D01*
X103893571Y-133836190D01*
X103965000Y-133693333D01*
X104107857Y-133598095D01*
X104250714Y-133550476D01*
X104536428Y-133502857D01*
X104750714Y-133502857D01*
X105036428Y-133550476D01*
X105179285Y-133598095D01*
X105322142Y-133693333D01*
X105393571Y-133836190D01*
X105393571Y-134074285D01*
X104965000Y-133121904D02*
X104965000Y-132645714D01*
X105393571Y-133217142D02*
X103893571Y-132883809D01*
X105393571Y-132550476D01*
X107737142Y-135050476D02*
X107808571Y-134907619D01*
X107808571Y-134669523D01*
X107737142Y-134574285D01*
X107665714Y-134526666D01*
X107522857Y-134479047D01*
X107380000Y-134479047D01*
X107237142Y-134526666D01*
X107165714Y-134574285D01*
X107094285Y-134669523D01*
X107022857Y-134860000D01*
X106951428Y-134955238D01*
X106880000Y-135002857D01*
X106737142Y-135050476D01*
X106594285Y-135050476D01*
X106451428Y-135002857D01*
X106380000Y-134955238D01*
X106308571Y-134860000D01*
X106308571Y-134621904D01*
X106380000Y-134479047D01*
X107665714Y-133479047D02*
X107737142Y-133526666D01*
X107808571Y-133669523D01*
X107808571Y-133764761D01*
X107737142Y-133907619D01*
X107594285Y-134002857D01*
X107451428Y-134050476D01*
X107165714Y-134098095D01*
X106951428Y-134098095D01*
X106665714Y-134050476D01*
X106522857Y-134002857D01*
X106380000Y-133907619D01*
X106308571Y-133764761D01*
X106308571Y-133669523D01*
X106380000Y-133526666D01*
X106451428Y-133479047D01*
X107808571Y-132574285D02*
X107808571Y-133050476D01*
X106308571Y-133050476D01*
X111210000Y-134621904D02*
X111138571Y-134717142D01*
X111138571Y-134860000D01*
X111210000Y-135002857D01*
X111352857Y-135098095D01*
X111495714Y-135145714D01*
X111781428Y-135193333D01*
X111995714Y-135193333D01*
X112281428Y-135145714D01*
X112424285Y-135098095D01*
X112567142Y-135002857D01*
X112638571Y-134860000D01*
X112638571Y-134764761D01*
X112567142Y-134621904D01*
X112495714Y-134574285D01*
X111995714Y-134574285D01*
X111995714Y-134764761D01*
X112638571Y-134145714D02*
X111138571Y-134145714D01*
X112638571Y-133574285D01*
X111138571Y-133574285D01*
X112638571Y-133098095D02*
X111138571Y-133098095D01*
X111138571Y-132860000D01*
X111210000Y-132717142D01*
X111352857Y-132621904D01*
X111495714Y-132574285D01*
X111781428Y-132526666D01*
X111995714Y-132526666D01*
X112281428Y-132574285D01*
X112424285Y-132621904D01*
X112567142Y-132717142D01*
X112638571Y-132860000D01*
X112638571Y-133098095D01*
X158867976Y-117545595D02*
X158867976Y-116245595D01*
X159134642Y-117174166D01*
X159401309Y-116245595D01*
X159401309Y-117545595D01*
X160391785Y-117545595D02*
X160391785Y-116245595D01*
X160696547Y-116245595D01*
X160772738Y-116307500D01*
X160810833Y-116369404D01*
X160848928Y-116493214D01*
X160848928Y-116678928D01*
X160810833Y-116802738D01*
X160772738Y-116864642D01*
X160696547Y-116926547D01*
X160391785Y-116926547D01*
X161610833Y-117545595D02*
X161153690Y-117545595D01*
X161382261Y-117545595D02*
X161382261Y-116245595D01*
X161306071Y-116431309D01*
X161229880Y-116555119D01*
X161153690Y-116617023D01*
X158867976Y-119638595D02*
X158867976Y-118338595D01*
X159134642Y-119267166D01*
X159401309Y-118338595D01*
X159401309Y-119638595D01*
X160391785Y-119638595D02*
X160391785Y-118338595D01*
X160696547Y-118338595D01*
X160772738Y-118400500D01*
X160810833Y-118462404D01*
X160848928Y-118586214D01*
X160848928Y-118771928D01*
X160810833Y-118895738D01*
X160772738Y-118957642D01*
X160696547Y-119019547D01*
X160391785Y-119019547D01*
X161153690Y-118462404D02*
X161191785Y-118400500D01*
X161267976Y-118338595D01*
X161458452Y-118338595D01*
X161534642Y-118400500D01*
X161572738Y-118462404D01*
X161610833Y-118586214D01*
X161610833Y-118710023D01*
X161572738Y-118895738D01*
X161115595Y-119638595D01*
X161610833Y-119638595D01*
X158867976Y-121050642D02*
X159134642Y-121050642D01*
X159248928Y-121731595D02*
X158867976Y-121731595D01*
X158867976Y-120431595D01*
X159248928Y-120431595D01*
X159591785Y-120864928D02*
X159591785Y-121731595D01*
X159591785Y-120988738D02*
X159629880Y-120926833D01*
X159706071Y-120864928D01*
X159820357Y-120864928D01*
X159896547Y-120926833D01*
X159934642Y-121050642D01*
X159934642Y-121731595D01*
X160658452Y-121669690D02*
X160582261Y-121731595D01*
X160429880Y-121731595D01*
X160353690Y-121669690D01*
X160315595Y-121607785D01*
X160277500Y-121483976D01*
X160277500Y-121112547D01*
X160315595Y-120988738D01*
X160353690Y-120926833D01*
X160429880Y-120864928D01*
X160582261Y-120864928D01*
X160658452Y-120926833D01*
X161572738Y-121360166D02*
X161953690Y-121360166D01*
X161496547Y-121731595D02*
X161763214Y-120431595D01*
X162029880Y-121731595D01*
X158867976Y-123143642D02*
X159134642Y-123143642D01*
X159248928Y-123824595D02*
X158867976Y-123824595D01*
X158867976Y-122524595D01*
X159248928Y-122524595D01*
X159591785Y-122957928D02*
X159591785Y-123824595D01*
X159591785Y-123081738D02*
X159629880Y-123019833D01*
X159706071Y-122957928D01*
X159820357Y-122957928D01*
X159896547Y-123019833D01*
X159934642Y-123143642D01*
X159934642Y-123824595D01*
X160658452Y-123762690D02*
X160582261Y-123824595D01*
X160429880Y-123824595D01*
X160353690Y-123762690D01*
X160315595Y-123700785D01*
X160277500Y-123576976D01*
X160277500Y-123205547D01*
X160315595Y-123081738D01*
X160353690Y-123019833D01*
X160429880Y-122957928D01*
X160582261Y-122957928D01*
X160658452Y-123019833D01*
X161877500Y-123143642D02*
X161991785Y-123205547D01*
X162029880Y-123267452D01*
X162067976Y-123391261D01*
X162067976Y-123576976D01*
X162029880Y-123700785D01*
X161991785Y-123762690D01*
X161915595Y-123824595D01*
X161610833Y-123824595D01*
X161610833Y-122524595D01*
X161877500Y-122524595D01*
X161953690Y-122586500D01*
X161991785Y-122648404D01*
X162029880Y-122772214D01*
X162029880Y-122896023D01*
X161991785Y-123019833D01*
X161953690Y-123081738D01*
X161877500Y-123143642D01*
X161610833Y-123143642D01*
X158791785Y-124617595D02*
X159287023Y-124617595D01*
X159020357Y-125112833D01*
X159134642Y-125112833D01*
X159210833Y-125174738D01*
X159248928Y-125236642D01*
X159287023Y-125360452D01*
X159287023Y-125669976D01*
X159248928Y-125793785D01*
X159210833Y-125855690D01*
X159134642Y-125917595D01*
X158906071Y-125917595D01*
X158829880Y-125855690D01*
X158791785Y-125793785D01*
X159553690Y-125050928D02*
X159744166Y-125917595D01*
X159934642Y-125050928D01*
X160163214Y-124617595D02*
X160658452Y-124617595D01*
X160391785Y-125112833D01*
X160506071Y-125112833D01*
X160582261Y-125174738D01*
X160620357Y-125236642D01*
X160658452Y-125360452D01*
X160658452Y-125669976D01*
X160620357Y-125793785D01*
X160582261Y-125855690D01*
X160506071Y-125917595D01*
X160277500Y-125917595D01*
X160201309Y-125855690D01*
X160163214Y-125793785D01*
X159287023Y-126772500D02*
X159210833Y-126710595D01*
X159096547Y-126710595D01*
X158982261Y-126772500D01*
X158906071Y-126896309D01*
X158867976Y-127020119D01*
X158829880Y-127267738D01*
X158829880Y-127453452D01*
X158867976Y-127701071D01*
X158906071Y-127824880D01*
X158982261Y-127948690D01*
X159096547Y-128010595D01*
X159172738Y-128010595D01*
X159287023Y-127948690D01*
X159325119Y-127886785D01*
X159325119Y-127453452D01*
X159172738Y-127453452D01*
X159667976Y-128010595D02*
X159667976Y-126710595D01*
X160125119Y-128010595D01*
X160125119Y-126710595D01*
X160506071Y-128010595D02*
X160506071Y-126710595D01*
X160696547Y-126710595D01*
X160810833Y-126772500D01*
X160887023Y-126896309D01*
X160925119Y-127020119D01*
X160963214Y-127267738D01*
X160963214Y-127453452D01*
X160925119Y-127701071D01*
X160887023Y-127824880D01*
X160810833Y-127948690D01*
X160696547Y-128010595D01*
X160506071Y-128010595D01*
X134530000Y-77239523D02*
X134491904Y-77315714D01*
X134491904Y-77430000D01*
X134530000Y-77544285D01*
X134606190Y-77620476D01*
X134682380Y-77658571D01*
X134834761Y-77696666D01*
X134949047Y-77696666D01*
X135101428Y-77658571D01*
X135177619Y-77620476D01*
X135253809Y-77544285D01*
X135291904Y-77430000D01*
X135291904Y-77353809D01*
X135253809Y-77239523D01*
X135215714Y-77201428D01*
X134949047Y-77201428D01*
X134949047Y-77353809D01*
X135291904Y-76858571D02*
X134491904Y-76858571D01*
X135291904Y-76401428D01*
X134491904Y-76401428D01*
X135291904Y-76020476D02*
X134491904Y-76020476D01*
X134491904Y-75830000D01*
X134530000Y-75715714D01*
X134606190Y-75639523D01*
X134682380Y-75601428D01*
X134834761Y-75563333D01*
X134949047Y-75563333D01*
X135101428Y-75601428D01*
X135177619Y-75639523D01*
X135253809Y-75715714D01*
X135291904Y-75830000D01*
X135291904Y-76020476D01*
X142360000Y-113283333D02*
X142326666Y-113350000D01*
X142326666Y-113450000D01*
X142360000Y-113550000D01*
X142426666Y-113616666D01*
X142493333Y-113650000D01*
X142626666Y-113683333D01*
X142726666Y-113683333D01*
X142860000Y-113650000D01*
X142926666Y-113616666D01*
X142993333Y-113550000D01*
X143026666Y-113450000D01*
X143026666Y-113383333D01*
X142993333Y-113283333D01*
X142960000Y-113250000D01*
X142726666Y-113250000D01*
X142726666Y-113383333D01*
X143026666Y-112950000D02*
X142326666Y-112950000D01*
X143026666Y-112550000D01*
X142326666Y-112550000D01*
X143026666Y-112216666D02*
X142326666Y-112216666D01*
X142326666Y-112050000D01*
X142360000Y-111950000D01*
X142426666Y-111883333D01*
X142493333Y-111850000D01*
X142626666Y-111816666D01*
X142726666Y-111816666D01*
X142860000Y-111850000D01*
X142926666Y-111883333D01*
X142993333Y-111950000D01*
X143026666Y-112050000D01*
X143026666Y-112216666D01*
X142293333Y-111016666D02*
X143193333Y-111616666D01*
X143026666Y-110783333D02*
X142326666Y-110783333D01*
X143026666Y-110450000D02*
X142326666Y-110450000D01*
X143026666Y-110050000D01*
X142326666Y-110050000D01*
X142326666Y-109816666D02*
X142326666Y-109416666D01*
X143026666Y-109616666D02*
X142326666Y-109616666D01*
X142293333Y-108683333D02*
X143193333Y-109283333D01*
X143026666Y-108450000D02*
X142326666Y-108450000D01*
X142826666Y-108216666D01*
X142326666Y-107983333D01*
X143026666Y-107983333D01*
X143026666Y-107650000D02*
X142326666Y-107650000D01*
X142993333Y-107350000D02*
X143026666Y-107250000D01*
X143026666Y-107083333D01*
X142993333Y-107016666D01*
X142960000Y-106983333D01*
X142893333Y-106950000D01*
X142826666Y-106950000D01*
X142760000Y-106983333D01*
X142726666Y-107016666D01*
X142693333Y-107083333D01*
X142660000Y-107216666D01*
X142626666Y-107283333D01*
X142593333Y-107316666D01*
X142526666Y-107350000D01*
X142460000Y-107350000D01*
X142393333Y-107316666D01*
X142360000Y-107283333D01*
X142326666Y-107216666D01*
X142326666Y-107050000D01*
X142360000Y-106950000D01*
X142326666Y-106516666D02*
X142326666Y-106383333D01*
X142360000Y-106316666D01*
X142426666Y-106250000D01*
X142560000Y-106216666D01*
X142793333Y-106216666D01*
X142926666Y-106250000D01*
X142993333Y-106316666D01*
X143026666Y-106383333D01*
X143026666Y-106516666D01*
X142993333Y-106583333D01*
X142926666Y-106650000D01*
X142793333Y-106683333D01*
X142560000Y-106683333D01*
X142426666Y-106650000D01*
X142360000Y-106583333D01*
X142326666Y-106516666D01*
X142293333Y-105416666D02*
X143193333Y-106016666D01*
X143026666Y-105183333D02*
X142326666Y-105183333D01*
X142826666Y-104950000D01*
X142326666Y-104716666D01*
X143026666Y-104716666D01*
X142326666Y-104250000D02*
X142326666Y-104116666D01*
X142360000Y-104050000D01*
X142426666Y-103983333D01*
X142560000Y-103950000D01*
X142793333Y-103950000D01*
X142926666Y-103983333D01*
X142993333Y-104050000D01*
X143026666Y-104116666D01*
X143026666Y-104250000D01*
X142993333Y-104316666D01*
X142926666Y-104383333D01*
X142793333Y-104416666D01*
X142560000Y-104416666D01*
X142426666Y-104383333D01*
X142360000Y-104316666D01*
X142326666Y-104250000D01*
X142993333Y-103683333D02*
X143026666Y-103583333D01*
X143026666Y-103416666D01*
X142993333Y-103350000D01*
X142960000Y-103316666D01*
X142893333Y-103283333D01*
X142826666Y-103283333D01*
X142760000Y-103316666D01*
X142726666Y-103350000D01*
X142693333Y-103416666D01*
X142660000Y-103550000D01*
X142626666Y-103616666D01*
X142593333Y-103650000D01*
X142526666Y-103683333D01*
X142460000Y-103683333D01*
X142393333Y-103650000D01*
X142360000Y-103616666D01*
X142326666Y-103550000D01*
X142326666Y-103383333D01*
X142360000Y-103283333D01*
X143026666Y-102983333D02*
X142326666Y-102983333D01*
X142293333Y-102150000D02*
X143193333Y-102750000D01*
X142993333Y-101950000D02*
X143026666Y-101850000D01*
X143026666Y-101683333D01*
X142993333Y-101616666D01*
X142960000Y-101583333D01*
X142893333Y-101550000D01*
X142826666Y-101550000D01*
X142760000Y-101583333D01*
X142726666Y-101616666D01*
X142693333Y-101683333D01*
X142660000Y-101816666D01*
X142626666Y-101883333D01*
X142593333Y-101916666D01*
X142526666Y-101950000D01*
X142460000Y-101950000D01*
X142393333Y-101916666D01*
X142360000Y-101883333D01*
X142326666Y-101816666D01*
X142326666Y-101650000D01*
X142360000Y-101550000D01*
X142960000Y-100850000D02*
X142993333Y-100883333D01*
X143026666Y-100983333D01*
X143026666Y-101050000D01*
X142993333Y-101150000D01*
X142926666Y-101216666D01*
X142860000Y-101250000D01*
X142726666Y-101283333D01*
X142626666Y-101283333D01*
X142493333Y-101250000D01*
X142426666Y-101216666D01*
X142360000Y-101150000D01*
X142326666Y-101050000D01*
X142326666Y-100983333D01*
X142360000Y-100883333D01*
X142393333Y-100850000D01*
X143026666Y-100550000D02*
X142326666Y-100550000D01*
X143026666Y-100150000D02*
X142626666Y-100450000D01*
X142326666Y-100150000D02*
X142726666Y-100550000D01*
X142293333Y-99350000D02*
X143193333Y-99950000D01*
X142960000Y-98716666D02*
X142993333Y-98750000D01*
X143026666Y-98850000D01*
X143026666Y-98916666D01*
X142993333Y-99016666D01*
X142926666Y-99083333D01*
X142860000Y-99116666D01*
X142726666Y-99150000D01*
X142626666Y-99150000D01*
X142493333Y-99116666D01*
X142426666Y-99083333D01*
X142360000Y-99016666D01*
X142326666Y-98916666D01*
X142326666Y-98850000D01*
X142360000Y-98750000D01*
X142393333Y-98716666D01*
X142993333Y-98450000D02*
X143026666Y-98350000D01*
X143026666Y-98183333D01*
X142993333Y-98116666D01*
X142960000Y-98083333D01*
X142893333Y-98050000D01*
X142826666Y-98050000D01*
X142760000Y-98083333D01*
X142726666Y-98116666D01*
X142693333Y-98183333D01*
X142660000Y-98316666D01*
X142626666Y-98383333D01*
X142593333Y-98416666D01*
X142526666Y-98450000D01*
X142460000Y-98450000D01*
X142393333Y-98416666D01*
X142360000Y-98383333D01*
X142326666Y-98316666D01*
X142326666Y-98150000D01*
X142360000Y-98050000D01*
X142293333Y-97250000D02*
X143193333Y-97850000D01*
X142326666Y-96683333D02*
X142326666Y-97016666D01*
X142660000Y-97050000D01*
X142626666Y-97016666D01*
X142593333Y-96950000D01*
X142593333Y-96783333D01*
X142626666Y-96716666D01*
X142660000Y-96683333D01*
X142726666Y-96650000D01*
X142893333Y-96650000D01*
X142960000Y-96683333D01*
X142993333Y-96716666D01*
X143026666Y-96783333D01*
X143026666Y-96950000D01*
X142993333Y-97016666D01*
X142960000Y-97050000D01*
X142560000Y-96416666D02*
X143026666Y-96250000D01*
X142560000Y-96083333D01*
X142796666Y-94676666D02*
X142096666Y-94676666D01*
X142063333Y-93843333D02*
X142963333Y-94443333D01*
X142096666Y-93476666D02*
X142096666Y-93343333D01*
X142130000Y-93276666D01*
X142196666Y-93210000D01*
X142330000Y-93176666D01*
X142563333Y-93176666D01*
X142696666Y-93210000D01*
X142763333Y-93276666D01*
X142796666Y-93343333D01*
X142796666Y-93476666D01*
X142763333Y-93543333D01*
X142696666Y-93610000D01*
X142563333Y-93643333D01*
X142330000Y-93643333D01*
X142196666Y-93610000D01*
X142130000Y-93543333D01*
X142096666Y-93476666D01*
X142096666Y-92410000D02*
X142096666Y-91976666D01*
X142363333Y-92210000D01*
X142363333Y-92110000D01*
X142396666Y-92043333D01*
X142430000Y-92010000D01*
X142496666Y-91976666D01*
X142663333Y-91976666D01*
X142730000Y-92010000D01*
X142763333Y-92043333D01*
X142796666Y-92110000D01*
X142796666Y-92310000D01*
X142763333Y-92376666D01*
X142730000Y-92410000D01*
X142163333Y-91710000D02*
X142130000Y-91676666D01*
X142096666Y-91610000D01*
X142096666Y-91443333D01*
X142130000Y-91376666D01*
X142163333Y-91343333D01*
X142230000Y-91310000D01*
X142296666Y-91310000D01*
X142396666Y-91343333D01*
X142796666Y-91743333D01*
X142796666Y-91310000D01*
X142796666Y-89576666D02*
X142796666Y-89976666D01*
X142796666Y-89776666D02*
X142096666Y-89776666D01*
X142196666Y-89843333D01*
X142263333Y-89910000D01*
X142296666Y-89976666D01*
X142096666Y-88943333D02*
X142096666Y-89276666D01*
X142430000Y-89310000D01*
X142396666Y-89276666D01*
X142363333Y-89210000D01*
X142363333Y-89043333D01*
X142396666Y-88976666D01*
X142430000Y-88943333D01*
X142496666Y-88910000D01*
X142663333Y-88910000D01*
X142730000Y-88943333D01*
X142763333Y-88976666D01*
X142796666Y-89043333D01*
X142796666Y-89210000D01*
X142763333Y-89276666D01*
X142730000Y-89310000D01*
X142096666Y-87610000D02*
X142096666Y-87176666D01*
X142363333Y-87410000D01*
X142363333Y-87310000D01*
X142396666Y-87243333D01*
X142430000Y-87210000D01*
X142496666Y-87176666D01*
X142663333Y-87176666D01*
X142730000Y-87210000D01*
X142763333Y-87243333D01*
X142796666Y-87310000D01*
X142796666Y-87510000D01*
X142763333Y-87576666D01*
X142730000Y-87610000D01*
X142096666Y-86943333D02*
X142096666Y-86510000D01*
X142363333Y-86743333D01*
X142363333Y-86643333D01*
X142396666Y-86576666D01*
X142430000Y-86543333D01*
X142496666Y-86510000D01*
X142663333Y-86510000D01*
X142730000Y-86543333D01*
X142763333Y-86576666D01*
X142796666Y-86643333D01*
X142796666Y-86843333D01*
X142763333Y-86910000D01*
X142730000Y-86943333D01*
X142163333Y-85176666D02*
X142130000Y-85143333D01*
X142096666Y-85076666D01*
X142096666Y-84910000D01*
X142130000Y-84843333D01*
X142163333Y-84810000D01*
X142230000Y-84776666D01*
X142296666Y-84776666D01*
X142396666Y-84810000D01*
X142796666Y-85210000D01*
X142796666Y-84776666D01*
X142096666Y-84543333D02*
X142096666Y-84076666D01*
X142796666Y-84376666D01*
X142796666Y-82376666D02*
X142796666Y-82776666D01*
X142796666Y-82576666D02*
X142096666Y-82576666D01*
X142196666Y-82643333D01*
X142263333Y-82710000D01*
X142296666Y-82776666D01*
X142163333Y-82110000D02*
X142130000Y-82076666D01*
X142096666Y-82010000D01*
X142096666Y-81843333D01*
X142130000Y-81776666D01*
X142163333Y-81743333D01*
X142230000Y-81710000D01*
X142296666Y-81710000D01*
X142396666Y-81743333D01*
X142796666Y-82143333D01*
X142796666Y-81710000D01*
X142796666Y-79976666D02*
X142796666Y-80376666D01*
X142796666Y-80176666D02*
X142096666Y-80176666D01*
X142196666Y-80243333D01*
X142263333Y-80310000D01*
X142296666Y-80376666D01*
X142096666Y-79743333D02*
X142096666Y-79310000D01*
X142363333Y-79543333D01*
X142363333Y-79443333D01*
X142396666Y-79376666D01*
X142430000Y-79343333D01*
X142496666Y-79310000D01*
X142663333Y-79310000D01*
X142730000Y-79343333D01*
X142763333Y-79376666D01*
X142796666Y-79443333D01*
X142796666Y-79643333D01*
X142763333Y-79710000D01*
X142730000Y-79743333D01*
X101400000Y-76701904D02*
X101328571Y-76797142D01*
X101328571Y-76940000D01*
X101400000Y-77082857D01*
X101542857Y-77178095D01*
X101685714Y-77225714D01*
X101971428Y-77273333D01*
X102185714Y-77273333D01*
X102471428Y-77225714D01*
X102614285Y-77178095D01*
X102757142Y-77082857D01*
X102828571Y-76940000D01*
X102828571Y-76844761D01*
X102757142Y-76701904D01*
X102685714Y-76654285D01*
X102185714Y-76654285D01*
X102185714Y-76844761D01*
X102828571Y-76225714D02*
X101328571Y-76225714D01*
X102828571Y-75654285D01*
X101328571Y-75654285D01*
X102828571Y-75178095D02*
X101328571Y-75178095D01*
X101328571Y-74940000D01*
X101400000Y-74797142D01*
X101542857Y-74701904D01*
X101685714Y-74654285D01*
X101971428Y-74606666D01*
X102185714Y-74606666D01*
X102471428Y-74654285D01*
X102614285Y-74701904D01*
X102757142Y-74797142D01*
X102828571Y-74940000D01*
X102828571Y-75178095D01*
X107587142Y-77130476D02*
X107658571Y-76987619D01*
X107658571Y-76749523D01*
X107587142Y-76654285D01*
X107515714Y-76606666D01*
X107372857Y-76559047D01*
X107230000Y-76559047D01*
X107087142Y-76606666D01*
X107015714Y-76654285D01*
X106944285Y-76749523D01*
X106872857Y-76940000D01*
X106801428Y-77035238D01*
X106730000Y-77082857D01*
X106587142Y-77130476D01*
X106444285Y-77130476D01*
X106301428Y-77082857D01*
X106230000Y-77035238D01*
X106158571Y-76940000D01*
X106158571Y-76701904D01*
X106230000Y-76559047D01*
X107515714Y-75559047D02*
X107587142Y-75606666D01*
X107658571Y-75749523D01*
X107658571Y-75844761D01*
X107587142Y-75987619D01*
X107444285Y-76082857D01*
X107301428Y-76130476D01*
X107015714Y-76178095D01*
X106801428Y-76178095D01*
X106515714Y-76130476D01*
X106372857Y-76082857D01*
X106230000Y-75987619D01*
X106158571Y-75844761D01*
X106158571Y-75749523D01*
X106230000Y-75606666D01*
X106301428Y-75559047D01*
X107658571Y-74654285D02*
X107658571Y-75130476D01*
X106158571Y-75130476D01*
X110002142Y-77154285D02*
X110073571Y-77011428D01*
X110073571Y-76773333D01*
X110002142Y-76678095D01*
X109930714Y-76630476D01*
X109787857Y-76582857D01*
X109645000Y-76582857D01*
X109502142Y-76630476D01*
X109430714Y-76678095D01*
X109359285Y-76773333D01*
X109287857Y-76963809D01*
X109216428Y-77059047D01*
X109145000Y-77106666D01*
X109002142Y-77154285D01*
X108859285Y-77154285D01*
X108716428Y-77106666D01*
X108645000Y-77059047D01*
X108573571Y-76963809D01*
X108573571Y-76725714D01*
X108645000Y-76582857D01*
X110073571Y-76154285D02*
X108573571Y-76154285D01*
X108573571Y-75916190D01*
X108645000Y-75773333D01*
X108787857Y-75678095D01*
X108930714Y-75630476D01*
X109216428Y-75582857D01*
X109430714Y-75582857D01*
X109716428Y-75630476D01*
X109859285Y-75678095D01*
X110002142Y-75773333D01*
X110073571Y-75916190D01*
X110073571Y-76154285D01*
X109645000Y-75201904D02*
X109645000Y-74725714D01*
X110073571Y-75297142D02*
X108573571Y-74963809D01*
X110073571Y-74630476D01*
X110988571Y-77130476D02*
X110988571Y-76511428D01*
X111560000Y-76844761D01*
X111560000Y-76701904D01*
X111631428Y-76606666D01*
X111702857Y-76559047D01*
X111845714Y-76511428D01*
X112202857Y-76511428D01*
X112345714Y-76559047D01*
X112417142Y-76606666D01*
X112488571Y-76701904D01*
X112488571Y-76987619D01*
X112417142Y-77082857D01*
X112345714Y-77130476D01*
X111488571Y-76178095D02*
X112488571Y-75940000D01*
X111488571Y-75701904D01*
X110988571Y-75416190D02*
X110988571Y-74797142D01*
X111560000Y-75130476D01*
X111560000Y-74987619D01*
X111631428Y-74892380D01*
X111702857Y-74844761D01*
X111845714Y-74797142D01*
X112202857Y-74797142D01*
X112345714Y-74844761D01*
X112417142Y-74892380D01*
X112488571Y-74987619D01*
X112488571Y-75273333D01*
X112417142Y-75368571D01*
X112345714Y-75416190D01*
X136997380Y-77020476D02*
X136997380Y-77496666D01*
X137473571Y-77544285D01*
X137425952Y-77496666D01*
X137378333Y-77401428D01*
X137378333Y-77163333D01*
X137425952Y-77068095D01*
X137473571Y-77020476D01*
X137568809Y-76972857D01*
X137806904Y-76972857D01*
X137902142Y-77020476D01*
X137949761Y-77068095D01*
X137997380Y-77163333D01*
X137997380Y-77401428D01*
X137949761Y-77496666D01*
X137902142Y-77544285D01*
X136997380Y-76687142D02*
X137997380Y-76353809D01*
X136997380Y-76020476D01*
%TO.C,U2*%
X115527430Y-119473104D02*
X116336954Y-119473104D01*
X116432192Y-119425485D01*
X116479811Y-119377866D01*
X116527430Y-119282628D01*
X116527430Y-119092152D01*
X116479811Y-118996914D01*
X116432192Y-118949295D01*
X116336954Y-118901676D01*
X115527430Y-118901676D01*
X115622669Y-118473104D02*
X115575050Y-118425485D01*
X115527430Y-118330247D01*
X115527430Y-118092152D01*
X115575050Y-117996914D01*
X115622669Y-117949295D01*
X115717907Y-117901676D01*
X115813145Y-117901676D01*
X115956002Y-117949295D01*
X116527430Y-118520723D01*
X116527430Y-117901676D01*
X129590530Y-89875876D02*
X129590530Y-90352066D01*
X130066721Y-90399685D01*
X130019102Y-90352066D01*
X129971483Y-90256828D01*
X129971483Y-90018733D01*
X130019102Y-89923495D01*
X130066721Y-89875876D01*
X130161959Y-89828257D01*
X130400054Y-89828257D01*
X130495292Y-89875876D01*
X130542911Y-89923495D01*
X130590530Y-90018733D01*
X130590530Y-90256828D01*
X130542911Y-90352066D01*
X130495292Y-90399685D01*
X129590530Y-89542542D02*
X130590530Y-89209209D01*
X129590530Y-88875876D01*
X104865050Y-81683904D02*
X104817430Y-81779142D01*
X104817430Y-81922000D01*
X104865050Y-82064857D01*
X104960288Y-82160095D01*
X105055526Y-82207714D01*
X105246002Y-82255333D01*
X105388859Y-82255333D01*
X105579335Y-82207714D01*
X105674573Y-82160095D01*
X105769811Y-82064857D01*
X105817430Y-81922000D01*
X105817430Y-81826761D01*
X105769811Y-81683904D01*
X105722192Y-81636285D01*
X105388859Y-81636285D01*
X105388859Y-81826761D01*
X105817430Y-81207714D02*
X104817430Y-81207714D01*
X105817430Y-80636285D01*
X104817430Y-80636285D01*
X105817430Y-80160095D02*
X104817430Y-80160095D01*
X104817430Y-79922000D01*
X104865050Y-79779142D01*
X104960288Y-79683904D01*
X105055526Y-79636285D01*
X105246002Y-79588666D01*
X105388859Y-79588666D01*
X105579335Y-79636285D01*
X105674573Y-79683904D01*
X105769811Y-79779142D01*
X105817430Y-79922000D01*
X105817430Y-80160095D01*
X104617430Y-110342476D02*
X104617430Y-109723428D01*
X104998383Y-110056761D01*
X104998383Y-109913904D01*
X105046002Y-109818666D01*
X105093621Y-109771047D01*
X105188859Y-109723428D01*
X105426954Y-109723428D01*
X105522192Y-109771047D01*
X105569811Y-109818666D01*
X105617430Y-109913904D01*
X105617430Y-110199619D01*
X105569811Y-110294857D01*
X105522192Y-110342476D01*
X104950764Y-109390095D02*
X105617430Y-109152000D01*
X104950764Y-108913904D01*
X104617430Y-108628190D02*
X104617430Y-108009142D01*
X104998383Y-108342476D01*
X104998383Y-108199619D01*
X105046002Y-108104380D01*
X105093621Y-108056761D01*
X105188859Y-108009142D01*
X105426954Y-108009142D01*
X105522192Y-108056761D01*
X105569811Y-108104380D01*
X105617430Y-108199619D01*
X105617430Y-108485333D01*
X105569811Y-108580571D01*
X105522192Y-108628190D01*
X104767430Y-91542476D02*
X104767430Y-90923428D01*
X105148383Y-91256761D01*
X105148383Y-91113904D01*
X105196002Y-91018666D01*
X105243621Y-90971047D01*
X105338859Y-90923428D01*
X105576954Y-90923428D01*
X105672192Y-90971047D01*
X105719811Y-91018666D01*
X105767430Y-91113904D01*
X105767430Y-91399619D01*
X105719811Y-91494857D01*
X105672192Y-91542476D01*
X105100764Y-90590095D02*
X105767430Y-90352000D01*
X105100764Y-90113904D01*
X104767430Y-89828190D02*
X104767430Y-89209142D01*
X105148383Y-89542476D01*
X105148383Y-89399619D01*
X105196002Y-89304380D01*
X105243621Y-89256761D01*
X105338859Y-89209142D01*
X105576954Y-89209142D01*
X105672192Y-89256761D01*
X105719811Y-89304380D01*
X105767430Y-89399619D01*
X105767430Y-89685333D01*
X105719811Y-89780571D01*
X105672192Y-89828190D01*
X129905930Y-109171276D02*
X129905930Y-109647466D01*
X130382121Y-109695085D01*
X130334502Y-109647466D01*
X130286883Y-109552228D01*
X130286883Y-109314133D01*
X130334502Y-109218895D01*
X130382121Y-109171276D01*
X130477359Y-109123657D01*
X130715454Y-109123657D01*
X130810692Y-109171276D01*
X130858311Y-109218895D01*
X130905930Y-109314133D01*
X130905930Y-109552228D01*
X130858311Y-109647466D01*
X130810692Y-109695085D01*
X129905930Y-108837942D02*
X130905930Y-108504609D01*
X129905930Y-108171276D01*
X129726530Y-127483276D02*
X129726530Y-127959466D01*
X130202721Y-128007085D01*
X130155102Y-127959466D01*
X130107483Y-127864228D01*
X130107483Y-127626133D01*
X130155102Y-127530895D01*
X130202721Y-127483276D01*
X130297959Y-127435657D01*
X130536054Y-127435657D01*
X130631292Y-127483276D01*
X130678911Y-127530895D01*
X130726530Y-127626133D01*
X130726530Y-127864228D01*
X130678911Y-127959466D01*
X130631292Y-128007085D01*
X129726530Y-127149942D02*
X130726530Y-126816609D01*
X129726530Y-126483276D01*
X129933550Y-100512704D02*
X129885930Y-100607942D01*
X129885930Y-100750800D01*
X129933550Y-100893657D01*
X130028788Y-100988895D01*
X130124026Y-101036514D01*
X130314502Y-101084133D01*
X130457359Y-101084133D01*
X130647835Y-101036514D01*
X130743073Y-100988895D01*
X130838311Y-100893657D01*
X130885930Y-100750800D01*
X130885930Y-100655561D01*
X130838311Y-100512704D01*
X130790692Y-100465085D01*
X130457359Y-100465085D01*
X130457359Y-100655561D01*
X130885930Y-100036514D02*
X129885930Y-100036514D01*
X130885930Y-99465085D01*
X129885930Y-99465085D01*
X130885930Y-98988895D02*
X129885930Y-98988895D01*
X129885930Y-98750800D01*
X129933550Y-98607942D01*
X130028788Y-98512704D01*
X130124026Y-98465085D01*
X130314502Y-98417466D01*
X130457359Y-98417466D01*
X130647835Y-98465085D01*
X130743073Y-98512704D01*
X130838311Y-98607942D01*
X130885930Y-98750800D01*
X130885930Y-98988895D01*
X129958150Y-81937304D02*
X129910530Y-82032542D01*
X129910530Y-82175400D01*
X129958150Y-82318257D01*
X130053388Y-82413495D01*
X130148626Y-82461114D01*
X130339102Y-82508733D01*
X130481959Y-82508733D01*
X130672435Y-82461114D01*
X130767673Y-82413495D01*
X130862911Y-82318257D01*
X130910530Y-82175400D01*
X130910530Y-82080161D01*
X130862911Y-81937304D01*
X130815292Y-81889685D01*
X130481959Y-81889685D01*
X130481959Y-82080161D01*
X130910530Y-81461114D02*
X129910530Y-81461114D01*
X130910530Y-80889685D01*
X129910530Y-80889685D01*
X130910530Y-80413495D02*
X129910530Y-80413495D01*
X129910530Y-80175400D01*
X129958150Y-80032542D01*
X130053388Y-79937304D01*
X130148626Y-79889685D01*
X130339102Y-79842066D01*
X130481959Y-79842066D01*
X130672435Y-79889685D01*
X130767673Y-79937304D01*
X130862911Y-80032542D01*
X130910530Y-80175400D01*
X130910530Y-80413495D01*
X129834150Y-119534704D02*
X129786530Y-119629942D01*
X129786530Y-119772800D01*
X129834150Y-119915657D01*
X129929388Y-120010895D01*
X130024626Y-120058514D01*
X130215102Y-120106133D01*
X130357959Y-120106133D01*
X130548435Y-120058514D01*
X130643673Y-120010895D01*
X130738911Y-119915657D01*
X130786530Y-119772800D01*
X130786530Y-119677561D01*
X130738911Y-119534704D01*
X130691292Y-119487085D01*
X130357959Y-119487085D01*
X130357959Y-119677561D01*
X130786530Y-119058514D02*
X129786530Y-119058514D01*
X130786530Y-118487085D01*
X129786530Y-118487085D01*
X130786530Y-118010895D02*
X129786530Y-118010895D01*
X129786530Y-117772800D01*
X129834150Y-117629942D01*
X129929388Y-117534704D01*
X130024626Y-117487085D01*
X130215102Y-117439466D01*
X130357959Y-117439466D01*
X130548435Y-117487085D01*
X130643673Y-117534704D01*
X130738911Y-117629942D01*
X130786530Y-117772800D01*
X130786530Y-118010895D01*
X104695050Y-100433904D02*
X104647430Y-100529142D01*
X104647430Y-100672000D01*
X104695050Y-100814857D01*
X104790288Y-100910095D01*
X104885526Y-100957714D01*
X105076002Y-101005333D01*
X105218859Y-101005333D01*
X105409335Y-100957714D01*
X105504573Y-100910095D01*
X105599811Y-100814857D01*
X105647430Y-100672000D01*
X105647430Y-100576761D01*
X105599811Y-100433904D01*
X105552192Y-100386285D01*
X105218859Y-100386285D01*
X105218859Y-100576761D01*
X105647430Y-99957714D02*
X104647430Y-99957714D01*
X105647430Y-99386285D01*
X104647430Y-99386285D01*
X105647430Y-98910095D02*
X104647430Y-98910095D01*
X104647430Y-98672000D01*
X104695050Y-98529142D01*
X104790288Y-98433904D01*
X104885526Y-98386285D01*
X105076002Y-98338666D01*
X105218859Y-98338666D01*
X105409335Y-98386285D01*
X105504573Y-98433904D01*
X105599811Y-98529142D01*
X105647430Y-98672000D01*
X105647430Y-98910095D01*
D11*
%TO.C,U1*%
X163146348Y-113293315D02*
X164116459Y-113293315D01*
X164230590Y-113236249D01*
X164287655Y-113179184D01*
X164344720Y-113065053D01*
X164344720Y-112836792D01*
X164287655Y-112722661D01*
X164230590Y-112665596D01*
X164116459Y-112608531D01*
X163146348Y-112608531D01*
X164344720Y-111410159D02*
X164344720Y-112094943D01*
X164344720Y-111752551D02*
X163146348Y-111752551D01*
X163317544Y-111866681D01*
X163431675Y-111980812D01*
X163488740Y-112094943D01*
D12*
X155960652Y-110276089D02*
X156244890Y-110276089D01*
X156131195Y-110560327D02*
X156244890Y-110276089D01*
X156131195Y-109991850D01*
X156472280Y-110446631D02*
X156244890Y-110276089D01*
X156472280Y-110105546D01*
D11*
%TO.C,U8*%
X173011124Y-116613848D02*
X173011124Y-117583959D01*
X173068189Y-117698090D01*
X173125255Y-117755155D01*
X173239385Y-117812220D01*
X173467647Y-117812220D01*
X173581777Y-117755155D01*
X173638843Y-117698090D01*
X173695908Y-117583959D01*
X173695908Y-116613848D01*
X174437757Y-117127436D02*
X174323627Y-117070371D01*
X174266561Y-117013306D01*
X174209496Y-116899175D01*
X174209496Y-116842110D01*
X174266561Y-116727979D01*
X174323627Y-116670914D01*
X174437757Y-116613848D01*
X174666019Y-116613848D01*
X174780149Y-116670914D01*
X174837215Y-116727979D01*
X174894280Y-116842110D01*
X174894280Y-116899175D01*
X174837215Y-117013306D01*
X174780149Y-117070371D01*
X174666019Y-117127436D01*
X174437757Y-117127436D01*
X174323627Y-117184502D01*
X174266561Y-117241567D01*
X174209496Y-117355698D01*
X174209496Y-117583959D01*
X174266561Y-117698090D01*
X174323627Y-117755155D01*
X174437757Y-117812220D01*
X174666019Y-117812220D01*
X174780149Y-117755155D01*
X174837215Y-117698090D01*
X174894280Y-117583959D01*
X174894280Y-117355698D01*
X174837215Y-117241567D01*
X174780149Y-117184502D01*
X174666019Y-117127436D01*
D10*
%TO.C,H2*%
X195208095Y-124902380D02*
X195208095Y-123902380D01*
X195208095Y-124378571D02*
X195779523Y-124378571D01*
X195779523Y-124902380D02*
X195779523Y-123902380D01*
X196208095Y-123997619D02*
X196255714Y-123950000D01*
X196350952Y-123902380D01*
X196589047Y-123902380D01*
X196684285Y-123950000D01*
X196731904Y-123997619D01*
X196779523Y-124092857D01*
X196779523Y-124188095D01*
X196731904Y-124330952D01*
X196160476Y-124902380D01*
X196779523Y-124902380D01*
%TO.C,U15*%
X99002380Y-138348095D02*
X99811904Y-138348095D01*
X99907142Y-138300476D01*
X99954761Y-138252857D01*
X100002380Y-138157619D01*
X100002380Y-137967142D01*
X99954761Y-137871904D01*
X99907142Y-137824285D01*
X99811904Y-137776666D01*
X99002380Y-137776666D01*
X100002380Y-136776666D02*
X100002380Y-137348095D01*
X100002380Y-137062380D02*
X99002380Y-137062380D01*
X99145238Y-137157619D01*
X99240476Y-137252857D01*
X99288095Y-137348095D01*
X99002380Y-135871904D02*
X99002380Y-136348095D01*
X99478571Y-136395714D01*
X99430952Y-136348095D01*
X99383333Y-136252857D01*
X99383333Y-136014761D01*
X99430952Y-135919523D01*
X99478571Y-135871904D01*
X99573809Y-135824285D01*
X99811904Y-135824285D01*
X99907142Y-135871904D01*
X99954761Y-135919523D01*
X100002380Y-136014761D01*
X100002380Y-136252857D01*
X99954761Y-136348095D01*
X99907142Y-136395714D01*
%TO.C,U7*%
X179521950Y-140231177D02*
X180009134Y-140877692D01*
X180104480Y-140925094D01*
X180171168Y-140934467D01*
X180275886Y-140915181D01*
X180428007Y-140800550D01*
X180475410Y-140705204D01*
X180484782Y-140638516D01*
X180465497Y-140533797D01*
X179978313Y-139887283D01*
X180282555Y-139658020D02*
X180814979Y-139256810D01*
X181074522Y-140313366D01*
X183479130Y-131728971D02*
X183527073Y-131871719D01*
X183670362Y-132061871D01*
X183765708Y-132109273D01*
X183832397Y-132118646D01*
X183937115Y-132099360D01*
X184013175Y-132042045D01*
X184060578Y-131946699D01*
X184069950Y-131880010D01*
X184050665Y-131775292D01*
X183974064Y-131594513D01*
X183954778Y-131489795D01*
X183964151Y-131423107D01*
X184011553Y-131327761D01*
X184087614Y-131270445D01*
X184192332Y-131251160D01*
X184259021Y-131260532D01*
X184354366Y-131307935D01*
X184497656Y-131498086D01*
X184545599Y-131640835D01*
X184462869Y-132955312D02*
X184396181Y-132945939D01*
X184272177Y-132860506D01*
X184214862Y-132784446D01*
X184166918Y-132641697D01*
X184185663Y-132508321D01*
X184233066Y-132412975D01*
X184356529Y-132260313D01*
X184470620Y-132174340D01*
X184651399Y-132097738D01*
X184756117Y-132078453D01*
X184889493Y-132097198D01*
X185013497Y-132182631D01*
X185070813Y-132258691D01*
X185118756Y-132401440D01*
X185109384Y-132468128D01*
X184931308Y-133735202D02*
X184644730Y-133354900D01*
X185443365Y-132753085D01*
X185825014Y-130700624D02*
X186623649Y-130098809D01*
X186111592Y-131080927D02*
X186910228Y-130479112D01*
X186455487Y-131537290D01*
X187254122Y-130935475D01*
X187454727Y-131201687D02*
X187798621Y-131658050D01*
X186828039Y-132031683D02*
X187626674Y-131429868D01*
X179705406Y-134043952D02*
X179107376Y-134911979D01*
X180106617Y-134576375D01*
X179928541Y-135843450D02*
X179861853Y-135834077D01*
X179737849Y-135748644D01*
X179680533Y-135672584D01*
X179632590Y-135529835D01*
X179651335Y-135396459D01*
X179698737Y-135301113D01*
X179822201Y-135148451D01*
X179936291Y-135062478D01*
X180117070Y-134985877D01*
X180221789Y-134966591D01*
X180355165Y-134985336D01*
X180479169Y-135070769D01*
X180536484Y-135146829D01*
X180584428Y-135289578D01*
X180575055Y-135356266D01*
X180530356Y-136642085D02*
X180463668Y-136632713D01*
X180339664Y-136547280D01*
X180282348Y-136471219D01*
X180234405Y-136328471D01*
X180253150Y-136195095D01*
X180300552Y-136099749D01*
X180424016Y-135947087D01*
X180538106Y-135861113D01*
X180718885Y-135784512D01*
X180823604Y-135765227D01*
X180956980Y-135783971D01*
X181080984Y-135869404D01*
X181138299Y-135945465D01*
X181186243Y-136088214D01*
X181176870Y-136154902D01*
X181395407Y-133142139D02*
X181443350Y-133284887D01*
X181586639Y-133475039D01*
X181681985Y-133522441D01*
X181748674Y-133531814D01*
X181853392Y-133512528D01*
X181929452Y-133455212D01*
X181976855Y-133359866D01*
X181986228Y-133293178D01*
X181966942Y-133188460D01*
X181890341Y-133007681D01*
X181871055Y-132902963D01*
X181880428Y-132836275D01*
X181927831Y-132740929D01*
X182003891Y-132683613D01*
X182108609Y-132664327D01*
X182175298Y-132673700D01*
X182270644Y-132721102D01*
X182413933Y-132911254D01*
X182461876Y-133054002D01*
X181959192Y-133969432D02*
X182757827Y-133367617D01*
X182901116Y-133557768D01*
X182949060Y-133700517D01*
X182930315Y-133833893D01*
X182882912Y-133929239D01*
X182759449Y-134081901D01*
X182645358Y-134167874D01*
X182464579Y-134244476D01*
X182359861Y-134263761D01*
X182226485Y-134245016D01*
X182102481Y-134159583D01*
X181959192Y-133969432D01*
X182760530Y-134558090D02*
X183047109Y-134938393D01*
X182475033Y-134653977D02*
X183474274Y-134318374D01*
X182876243Y-135186400D01*
X188379696Y-128540955D02*
X188360410Y-128436236D01*
X188274436Y-128322146D01*
X188150433Y-128236713D01*
X188017056Y-128217968D01*
X187912338Y-128237253D01*
X187731559Y-128313855D01*
X187617468Y-128399828D01*
X187494005Y-128552490D01*
X187446602Y-128647836D01*
X187427858Y-128781212D01*
X187475801Y-128923961D01*
X187533117Y-129000021D01*
X187657121Y-129085454D01*
X187723809Y-129094827D01*
X187990020Y-128894221D01*
X187875389Y-128742100D01*
X187905669Y-129494415D02*
X188704304Y-128892600D01*
X188249563Y-129950778D01*
X189048199Y-129348963D01*
X188536142Y-130331080D02*
X189334777Y-129729265D01*
X189478067Y-129919417D01*
X189526010Y-130062165D01*
X189507265Y-130195542D01*
X189459862Y-130290888D01*
X189336399Y-130443549D01*
X189222308Y-130529523D01*
X189041529Y-130606124D01*
X188936811Y-130625409D01*
X188803435Y-130606665D01*
X188679431Y-130521232D01*
X188536142Y-130331080D01*
%TO.C,H3*%
X112378095Y-105382380D02*
X112378095Y-104382380D01*
X112378095Y-104858571D02*
X112949523Y-104858571D01*
X112949523Y-105382380D02*
X112949523Y-104382380D01*
X113330476Y-104382380D02*
X113949523Y-104382380D01*
X113616190Y-104763333D01*
X113759047Y-104763333D01*
X113854285Y-104810952D01*
X113901904Y-104858571D01*
X113949523Y-104953809D01*
X113949523Y-105191904D01*
X113901904Y-105287142D01*
X113854285Y-105334761D01*
X113759047Y-105382380D01*
X113473333Y-105382380D01*
X113378095Y-105334761D01*
X113330476Y-105287142D01*
%TO.C,JP2*%
X139166666Y-93882380D02*
X139166666Y-94596666D01*
X139119047Y-94739523D01*
X139023809Y-94834761D01*
X138880952Y-94882380D01*
X138785714Y-94882380D01*
X139642857Y-94882380D02*
X139642857Y-93882380D01*
X140023809Y-93882380D01*
X140119047Y-93930000D01*
X140166666Y-93977619D01*
X140214285Y-94072857D01*
X140214285Y-94215714D01*
X140166666Y-94310952D01*
X140119047Y-94358571D01*
X140023809Y-94406190D01*
X139642857Y-94406190D01*
X140595238Y-93977619D02*
X140642857Y-93930000D01*
X140738095Y-93882380D01*
X140976190Y-93882380D01*
X141071428Y-93930000D01*
X141119047Y-93977619D01*
X141166666Y-94072857D01*
X141166666Y-94168095D01*
X141119047Y-94310952D01*
X140547619Y-94882380D01*
X141166666Y-94882380D01*
%TO.C,U10*%
X184157619Y-124081904D02*
X183348095Y-124081904D01*
X183252857Y-124129523D01*
X183205238Y-124177142D01*
X183157619Y-124272380D01*
X183157619Y-124462857D01*
X183205238Y-124558095D01*
X183252857Y-124605714D01*
X183348095Y-124653333D01*
X184157619Y-124653333D01*
X183157619Y-125653333D02*
X183157619Y-125081904D01*
X183157619Y-125367619D02*
X184157619Y-125367619D01*
X184014761Y-125272380D01*
X183919523Y-125177142D01*
X183871904Y-125081904D01*
X184157619Y-126272380D02*
X184157619Y-126367619D01*
X184110000Y-126462857D01*
X184062380Y-126510476D01*
X183967142Y-126558095D01*
X183776666Y-126605714D01*
X183538571Y-126605714D01*
X183348095Y-126558095D01*
X183252857Y-126510476D01*
X183205238Y-126462857D01*
X183157619Y-126367619D01*
X183157619Y-126272380D01*
X183205238Y-126177142D01*
X183252857Y-126129523D01*
X183348095Y-126081904D01*
X183538571Y-126034285D01*
X183776666Y-126034285D01*
X183967142Y-126081904D01*
X184062380Y-126129523D01*
X184110000Y-126177142D01*
X184157619Y-126272380D01*
X172876309Y-124811904D02*
X173028690Y-124811904D01*
X173104880Y-124850000D01*
X173181071Y-124926190D01*
X173219166Y-125078571D01*
X173219166Y-125345238D01*
X173181071Y-125497619D01*
X173104880Y-125573809D01*
X173028690Y-125611904D01*
X172876309Y-125611904D01*
X172800119Y-125573809D01*
X172723928Y-125497619D01*
X172685833Y-125345238D01*
X172685833Y-125078571D01*
X172723928Y-124926190D01*
X172800119Y-124850000D01*
X172876309Y-124811904D01*
X173904880Y-125078571D02*
X173904880Y-125611904D01*
X173562023Y-125078571D02*
X173562023Y-125497619D01*
X173600119Y-125573809D01*
X173676309Y-125611904D01*
X173790595Y-125611904D01*
X173866785Y-125573809D01*
X173904880Y-125535714D01*
X174171547Y-125078571D02*
X174476309Y-125078571D01*
X174285833Y-124811904D02*
X174285833Y-125497619D01*
X174323928Y-125573809D01*
X174400119Y-125611904D01*
X174476309Y-125611904D01*
X172036666Y-122372380D02*
X172370000Y-123372380D01*
X172703333Y-122372380D01*
X173608095Y-123277142D02*
X173560476Y-123324761D01*
X173417619Y-123372380D01*
X173322380Y-123372380D01*
X173179523Y-123324761D01*
X173084285Y-123229523D01*
X173036666Y-123134285D01*
X172989047Y-122943809D01*
X172989047Y-122800952D01*
X173036666Y-122610476D01*
X173084285Y-122515238D01*
X173179523Y-122420000D01*
X173322380Y-122372380D01*
X173417619Y-122372380D01*
X173560476Y-122420000D01*
X173608095Y-122467619D01*
X174608095Y-123277142D02*
X174560476Y-123324761D01*
X174417619Y-123372380D01*
X174322380Y-123372380D01*
X174179523Y-123324761D01*
X174084285Y-123229523D01*
X174036666Y-123134285D01*
X173989047Y-122943809D01*
X173989047Y-122800952D01*
X174036666Y-122610476D01*
X174084285Y-122515238D01*
X174179523Y-122420000D01*
X174322380Y-122372380D01*
X174417619Y-122372380D01*
X174560476Y-122420000D01*
X174608095Y-122467619D01*
X172378095Y-127450000D02*
X172282857Y-127402380D01*
X172140000Y-127402380D01*
X171997142Y-127450000D01*
X171901904Y-127545238D01*
X171854285Y-127640476D01*
X171806666Y-127830952D01*
X171806666Y-127973809D01*
X171854285Y-128164285D01*
X171901904Y-128259523D01*
X171997142Y-128354761D01*
X172140000Y-128402380D01*
X172235238Y-128402380D01*
X172378095Y-128354761D01*
X172425714Y-128307142D01*
X172425714Y-127973809D01*
X172235238Y-127973809D01*
X172854285Y-128402380D02*
X172854285Y-127402380D01*
X173425714Y-128402380D01*
X173425714Y-127402380D01*
X173901904Y-128402380D02*
X173901904Y-127402380D01*
X174140000Y-127402380D01*
X174282857Y-127450000D01*
X174378095Y-127545238D01*
X174425714Y-127640476D01*
X174473333Y-127830952D01*
X174473333Y-127973809D01*
X174425714Y-128164285D01*
X174378095Y-128259523D01*
X174282857Y-128354761D01*
X174140000Y-128402380D01*
X173901904Y-128402380D01*
%TO.C,U5*%
X193660047Y-81422747D02*
X194306561Y-81909931D01*
X194411280Y-81929216D01*
X194477968Y-81919844D01*
X194573314Y-81872441D01*
X194687945Y-81720320D01*
X194707231Y-81615602D01*
X194697858Y-81548914D01*
X194650456Y-81453568D01*
X194003941Y-80966384D01*
X194577098Y-80205779D02*
X194290520Y-80586082D01*
X194642164Y-80910690D01*
X194632792Y-80844002D01*
X194652077Y-80739284D01*
X194795367Y-80549133D01*
X194890713Y-80501730D01*
X194957401Y-80492358D01*
X195062119Y-80511643D01*
X195252271Y-80654932D01*
X195299673Y-80750278D01*
X195309046Y-80816966D01*
X195289760Y-80921685D01*
X195146471Y-81111836D01*
X195051125Y-81159239D01*
X194984437Y-81168611D01*
X188402481Y-81803363D02*
X188526485Y-81717930D01*
X188669774Y-81527779D01*
X188689060Y-81423060D01*
X188679688Y-81356372D01*
X188632285Y-81261026D01*
X188556224Y-81203711D01*
X188451506Y-81184425D01*
X188384818Y-81193797D01*
X188289472Y-81241200D01*
X188136810Y-81364663D01*
X188041464Y-81412066D01*
X187974776Y-81421438D01*
X187870058Y-81402153D01*
X187793997Y-81344837D01*
X187746594Y-81249491D01*
X187737222Y-81182803D01*
X187756508Y-81078085D01*
X187899797Y-80887933D01*
X188023801Y-80802501D01*
X189042327Y-81033385D02*
X188243691Y-80431570D01*
X188386980Y-80241419D01*
X188510984Y-80155986D01*
X188644360Y-80137241D01*
X188749079Y-80156527D01*
X188929858Y-80233128D01*
X189043949Y-80319101D01*
X189167412Y-80471763D01*
X189214814Y-80567109D01*
X189233559Y-80700485D01*
X189185616Y-80843234D01*
X189042327Y-81033385D01*
X189387302Y-80100833D02*
X189673881Y-79720530D01*
X189558168Y-80348841D02*
X188960138Y-79480814D01*
X189959378Y-79816417D01*
X189470231Y-82995282D02*
X190469472Y-83330886D01*
X189871441Y-82462859D01*
X191138516Y-82284783D02*
X191147888Y-82351471D01*
X191099945Y-82494220D01*
X191042629Y-82570280D01*
X190918625Y-82655713D01*
X190785249Y-82674458D01*
X190680531Y-82655173D01*
X190499752Y-82578572D01*
X190385661Y-82492598D01*
X190262198Y-82339936D01*
X190214795Y-82244590D01*
X190196050Y-82111214D01*
X190243994Y-81968465D01*
X190301309Y-81892405D01*
X190425313Y-81806972D01*
X190492001Y-81797600D01*
X191740331Y-81486148D02*
X191749703Y-81552836D01*
X191701760Y-81695584D01*
X191644444Y-81771645D01*
X191520440Y-81857078D01*
X191387064Y-81875823D01*
X191282346Y-81856537D01*
X191101567Y-81779936D01*
X190987476Y-81693962D01*
X190864013Y-81541301D01*
X190816610Y-81445955D01*
X190797865Y-81312579D01*
X190845809Y-81169830D01*
X190903124Y-81093769D01*
X191027128Y-81008336D01*
X191093816Y-80998964D01*
X181672156Y-76227576D02*
X181576810Y-76274979D01*
X181490836Y-76389070D01*
X181442893Y-76531818D01*
X181461638Y-76665195D01*
X181509041Y-76760541D01*
X181632504Y-76913202D01*
X181746595Y-76999176D01*
X181927374Y-77075777D01*
X182032092Y-77095062D01*
X182165468Y-77076318D01*
X182289472Y-76990885D01*
X182346788Y-76914824D01*
X182394731Y-76772075D01*
X182385359Y-76705387D01*
X182119147Y-76504782D01*
X182004515Y-76656903D01*
X182719340Y-76420431D02*
X181920704Y-75818616D01*
X183063234Y-75964068D01*
X182264599Y-75362253D01*
X183349813Y-75583765D02*
X182551177Y-74981950D01*
X182694467Y-74791799D01*
X182818470Y-74706366D01*
X182951847Y-74687621D01*
X183056565Y-74706906D01*
X183237344Y-74783508D01*
X183351435Y-74869481D01*
X183474898Y-75022143D01*
X183522301Y-75117489D01*
X183541045Y-75250865D01*
X183493102Y-75393614D01*
X183349813Y-75583765D01*
X186286810Y-80074348D02*
X186410814Y-79988915D01*
X186554103Y-79798764D01*
X186573389Y-79694045D01*
X186564016Y-79627357D01*
X186516614Y-79532011D01*
X186440553Y-79474695D01*
X186335835Y-79455410D01*
X186269147Y-79464782D01*
X186173801Y-79512185D01*
X186021139Y-79635648D01*
X185925793Y-79683051D01*
X185859105Y-79692423D01*
X185754387Y-79673138D01*
X185678326Y-79615822D01*
X185630923Y-79520476D01*
X185621551Y-79453788D01*
X185640836Y-79349070D01*
X185784126Y-79158918D01*
X185908130Y-79073485D01*
X187194489Y-78790691D02*
X187203862Y-78857379D01*
X187155918Y-79000128D01*
X187098603Y-79076189D01*
X186974599Y-79161622D01*
X186841223Y-79180366D01*
X186736504Y-79161081D01*
X186555725Y-79084480D01*
X186441635Y-78998506D01*
X186318171Y-78845844D01*
X186270769Y-78750498D01*
X186252024Y-78617122D01*
X186299967Y-78474374D01*
X186357283Y-78398313D01*
X186481287Y-78312880D01*
X186547975Y-78303508D01*
X187815049Y-78125432D02*
X187528471Y-78505735D01*
X186729835Y-77903920D01*
X184606788Y-78474824D02*
X183808152Y-77873009D01*
X184893366Y-78094522D02*
X184094731Y-77492706D01*
X185237261Y-77638158D01*
X184438625Y-77036343D01*
X184639230Y-76770132D02*
X184983124Y-76313768D01*
X185609813Y-77143765D02*
X184811177Y-76541950D01*
D13*
%TO.C,J1*%
X156546666Y-95084523D02*
X156546666Y-95991666D01*
X156486190Y-96173095D01*
X156365238Y-96294047D01*
X156183809Y-96354523D01*
X156062857Y-96354523D01*
X157816666Y-96354523D02*
X157090952Y-96354523D01*
X157453809Y-96354523D02*
X157453809Y-95084523D01*
X157332857Y-95265952D01*
X157211904Y-95386904D01*
X157090952Y-95447380D01*
D14*
%TO.C,M1*%
X166773338Y-139662717D02*
X165596810Y-139662717D01*
X166437188Y-139270541D01*
X165596810Y-138878365D01*
X166773338Y-138878365D01*
X166773338Y-137701837D02*
X166773338Y-138374139D01*
X166773338Y-138037988D02*
X165596810Y-138037988D01*
X165764886Y-138150038D01*
X165876936Y-138262088D01*
X165932961Y-138374139D01*
D15*
%TO.C,R10*%
X154915234Y-88370447D02*
X154738777Y-88493967D01*
X154915234Y-88582196D02*
X154544674Y-88582196D01*
X154544674Y-88441030D01*
X154562320Y-88405738D01*
X154579965Y-88388093D01*
X154615257Y-88370447D01*
X154668194Y-88370447D01*
X154703485Y-88388093D01*
X154721131Y-88405738D01*
X154738777Y-88441030D01*
X154738777Y-88582196D01*
X154915234Y-88017533D02*
X154915234Y-88229281D01*
X154915234Y-88123407D02*
X154544674Y-88123407D01*
X154597611Y-88158698D01*
X154632902Y-88193990D01*
X154650548Y-88229281D01*
X154544674Y-87788138D02*
X154544674Y-87752847D01*
X154562320Y-87717556D01*
X154579965Y-87699910D01*
X154615257Y-87682264D01*
X154685840Y-87664618D01*
X154774068Y-87664618D01*
X154844651Y-87682264D01*
X154879942Y-87699910D01*
X154897588Y-87717556D01*
X154915234Y-87752847D01*
X154915234Y-87788138D01*
X154897588Y-87823430D01*
X154879942Y-87841076D01*
X154844651Y-87858721D01*
X154774068Y-87876367D01*
X154685840Y-87876367D01*
X154615257Y-87858721D01*
X154579965Y-87841076D01*
X154562320Y-87823430D01*
X154544674Y-87788138D01*
D10*
%TO.C,U6*%
X192441195Y-112765980D02*
X192441195Y-113575504D01*
X192488814Y-113670742D01*
X192536433Y-113718361D01*
X192631671Y-113765980D01*
X192822147Y-113765980D01*
X192917385Y-113718361D01*
X192965004Y-113670742D01*
X193012623Y-113575504D01*
X193012623Y-112765980D01*
X193917385Y-112765980D02*
X193726909Y-112765980D01*
X193631671Y-112813600D01*
X193584052Y-112861219D01*
X193488814Y-113004076D01*
X193441195Y-113194552D01*
X193441195Y-113575504D01*
X193488814Y-113670742D01*
X193536433Y-113718361D01*
X193631671Y-113765980D01*
X193822147Y-113765980D01*
X193917385Y-113718361D01*
X193965004Y-113670742D01*
X194012623Y-113575504D01*
X194012623Y-113337409D01*
X193965004Y-113242171D01*
X193917385Y-113194552D01*
X193822147Y-113146933D01*
X193631671Y-113146933D01*
X193536433Y-113194552D01*
X193488814Y-113242171D01*
X193441195Y-113337409D01*
X189367795Y-100298200D02*
X189272557Y-100250580D01*
X189129700Y-100250580D01*
X188986842Y-100298200D01*
X188891604Y-100393438D01*
X188843985Y-100488676D01*
X188796366Y-100679152D01*
X188796366Y-100822009D01*
X188843985Y-101012485D01*
X188891604Y-101107723D01*
X188986842Y-101202961D01*
X189129700Y-101250580D01*
X189224938Y-101250580D01*
X189367795Y-101202961D01*
X189415414Y-101155342D01*
X189415414Y-100822009D01*
X189224938Y-100822009D01*
X189843985Y-101250580D02*
X189843985Y-100250580D01*
X190415414Y-101250580D01*
X190415414Y-100250580D01*
X190891604Y-101250580D02*
X190891604Y-100250580D01*
X191129700Y-100250580D01*
X191272557Y-100298200D01*
X191367795Y-100393438D01*
X191415414Y-100488676D01*
X191463033Y-100679152D01*
X191463033Y-100822009D01*
X191415414Y-101012485D01*
X191367795Y-101107723D01*
X191272557Y-101202961D01*
X191129700Y-101250580D01*
X190891604Y-101250580D01*
X188839214Y-108645161D02*
X188982071Y-108692780D01*
X189220166Y-108692780D01*
X189315404Y-108645161D01*
X189363023Y-108597542D01*
X189410642Y-108502304D01*
X189410642Y-108407066D01*
X189363023Y-108311828D01*
X189315404Y-108264209D01*
X189220166Y-108216590D01*
X189029690Y-108168971D01*
X188934452Y-108121352D01*
X188886833Y-108073733D01*
X188839214Y-107978495D01*
X188839214Y-107883257D01*
X188886833Y-107788019D01*
X188934452Y-107740400D01*
X189029690Y-107692780D01*
X189267785Y-107692780D01*
X189410642Y-107740400D01*
X189839214Y-108692780D02*
X189839214Y-107692780D01*
X190077309Y-107692780D01*
X190220166Y-107740400D01*
X190315404Y-107835638D01*
X190363023Y-107930876D01*
X190410642Y-108121352D01*
X190410642Y-108264209D01*
X190363023Y-108454685D01*
X190315404Y-108549923D01*
X190220166Y-108645161D01*
X190077309Y-108692780D01*
X189839214Y-108692780D01*
X190791595Y-108407066D02*
X191267785Y-108407066D01*
X190696357Y-108692780D02*
X191029690Y-107692780D01*
X191363023Y-108692780D01*
X189555138Y-103638180D02*
X189555138Y-102638180D01*
X190031328Y-103638180D02*
X190031328Y-102638180D01*
X190602757Y-103638180D01*
X190602757Y-102638180D01*
X190936090Y-102638180D02*
X191507519Y-102638180D01*
X191221804Y-103638180D02*
X191221804Y-102638180D01*
X188964623Y-106130561D02*
X189107480Y-106178180D01*
X189345576Y-106178180D01*
X189440814Y-106130561D01*
X189488433Y-106082942D01*
X189536052Y-105987704D01*
X189536052Y-105892466D01*
X189488433Y-105797228D01*
X189440814Y-105749609D01*
X189345576Y-105701990D01*
X189155100Y-105654371D01*
X189059861Y-105606752D01*
X189012242Y-105559133D01*
X188964623Y-105463895D01*
X188964623Y-105368657D01*
X189012242Y-105273419D01*
X189059861Y-105225800D01*
X189155100Y-105178180D01*
X189393195Y-105178180D01*
X189536052Y-105225800D01*
X190536052Y-106082942D02*
X190488433Y-106130561D01*
X190345576Y-106178180D01*
X190250338Y-106178180D01*
X190107480Y-106130561D01*
X190012242Y-106035323D01*
X189964623Y-105940085D01*
X189917004Y-105749609D01*
X189917004Y-105606752D01*
X189964623Y-105416276D01*
X190012242Y-105321038D01*
X190107480Y-105225800D01*
X190250338Y-105178180D01*
X190345576Y-105178180D01*
X190488433Y-105225800D01*
X190536052Y-105273419D01*
X191440814Y-106178180D02*
X190964623Y-106178180D01*
X190964623Y-105178180D01*
X188542366Y-110537580D02*
X188875700Y-111537580D01*
X189209033Y-110537580D01*
X190113795Y-111442342D02*
X190066176Y-111489961D01*
X189923319Y-111537580D01*
X189828080Y-111537580D01*
X189685223Y-111489961D01*
X189589985Y-111394723D01*
X189542366Y-111299485D01*
X189494747Y-111109009D01*
X189494747Y-110966152D01*
X189542366Y-110775676D01*
X189589985Y-110680438D01*
X189685223Y-110585200D01*
X189828080Y-110537580D01*
X189923319Y-110537580D01*
X190066176Y-110585200D01*
X190113795Y-110632819D01*
X191113795Y-111442342D02*
X191066176Y-111489961D01*
X190923319Y-111537580D01*
X190828080Y-111537580D01*
X190685223Y-111489961D01*
X190589985Y-111394723D01*
X190542366Y-111299485D01*
X190494747Y-111109009D01*
X190494747Y-110966152D01*
X190542366Y-110775676D01*
X190589985Y-110680438D01*
X190685223Y-110585200D01*
X190828080Y-110537580D01*
X190923319Y-110537580D01*
X191066176Y-110585200D01*
X191113795Y-110632819D01*
%TO.C,JP1*%
X139076666Y-136702380D02*
X139076666Y-137416666D01*
X139029047Y-137559523D01*
X138933809Y-137654761D01*
X138790952Y-137702380D01*
X138695714Y-137702380D01*
X139552857Y-137702380D02*
X139552857Y-136702380D01*
X139933809Y-136702380D01*
X140029047Y-136750000D01*
X140076666Y-136797619D01*
X140124285Y-136892857D01*
X140124285Y-137035714D01*
X140076666Y-137130952D01*
X140029047Y-137178571D01*
X139933809Y-137226190D01*
X139552857Y-137226190D01*
X141076666Y-137702380D02*
X140505238Y-137702380D01*
X140790952Y-137702380D02*
X140790952Y-136702380D01*
X140695714Y-136845238D01*
X140600476Y-136940476D01*
X140505238Y-136988095D01*
D15*
%TO.C,R13*%
X183766013Y-119380734D02*
X183642493Y-119204277D01*
X183554264Y-119380734D02*
X183554264Y-119010174D01*
X183695430Y-119010174D01*
X183730721Y-119027820D01*
X183748367Y-119045465D01*
X183766013Y-119080757D01*
X183766013Y-119133694D01*
X183748367Y-119168985D01*
X183730721Y-119186631D01*
X183695430Y-119204277D01*
X183554264Y-119204277D01*
X184118927Y-119380734D02*
X183907178Y-119380734D01*
X184013053Y-119380734D02*
X184013053Y-119010174D01*
X183977761Y-119063111D01*
X183942470Y-119098402D01*
X183907178Y-119116048D01*
X184242447Y-119010174D02*
X184471841Y-119010174D01*
X184348321Y-119151340D01*
X184401258Y-119151340D01*
X184436550Y-119168985D01*
X184454196Y-119186631D01*
X184471841Y-119221922D01*
X184471841Y-119310151D01*
X184454196Y-119345442D01*
X184436550Y-119363088D01*
X184401258Y-119380734D01*
X184295384Y-119380734D01*
X184260093Y-119363088D01*
X184242447Y-119345442D01*
D13*
%TO.C,J2*%
X155666666Y-113524523D02*
X155666666Y-114431666D01*
X155606190Y-114613095D01*
X155485238Y-114734047D01*
X155303809Y-114794523D01*
X155182857Y-114794523D01*
X156210952Y-113645476D02*
X156271428Y-113585000D01*
X156392380Y-113524523D01*
X156694761Y-113524523D01*
X156815714Y-113585000D01*
X156876190Y-113645476D01*
X156936666Y-113766428D01*
X156936666Y-113887380D01*
X156876190Y-114068809D01*
X156150476Y-114794523D01*
X156936666Y-114794523D01*
D14*
%TO.C,U4*%
X150619912Y-73064810D02*
X150619912Y-74017238D01*
X150675938Y-74129288D01*
X150731963Y-74185313D01*
X150844013Y-74241338D01*
X151068114Y-74241338D01*
X151180164Y-74185313D01*
X151236189Y-74129288D01*
X151292214Y-74017238D01*
X151292214Y-73064810D01*
X152356692Y-73456986D02*
X152356692Y-74241338D01*
X152076566Y-73008785D02*
X151796440Y-73849162D01*
X152524767Y-73849162D01*
%TO.C,M2*%
X167133338Y-72589337D02*
X165956810Y-72589337D01*
X166797188Y-72197161D01*
X165956810Y-71804985D01*
X167133338Y-71804985D01*
X166068861Y-71300759D02*
X166012836Y-71244733D01*
X165956810Y-71132683D01*
X165956810Y-70852557D01*
X166012836Y-70740507D01*
X166068861Y-70684482D01*
X166180911Y-70628457D01*
X166292961Y-70628457D01*
X166461037Y-70684482D01*
X167133338Y-71356784D01*
X167133338Y-70628457D01*
D10*
%TO.C,H1*%
X195268095Y-85762380D02*
X195268095Y-84762380D01*
X195268095Y-85238571D02*
X195839523Y-85238571D01*
X195839523Y-85762380D02*
X195839523Y-84762380D01*
X196839523Y-85762380D02*
X196268095Y-85762380D01*
X196553809Y-85762380D02*
X196553809Y-84762380D01*
X196458571Y-84905238D01*
X196363333Y-85000476D01*
X196268095Y-85048095D01*
D15*
%TO.C,R9*%
X153721234Y-86702186D02*
X153544777Y-86825706D01*
X153721234Y-86913935D02*
X153350674Y-86913935D01*
X153350674Y-86772769D01*
X153368320Y-86737478D01*
X153385965Y-86719832D01*
X153421257Y-86702186D01*
X153474194Y-86702186D01*
X153509485Y-86719832D01*
X153527131Y-86737478D01*
X153544777Y-86772769D01*
X153544777Y-86913935D01*
X153721234Y-86525729D02*
X153721234Y-86455146D01*
X153703588Y-86419855D01*
X153685942Y-86402209D01*
X153633005Y-86366918D01*
X153562422Y-86349272D01*
X153421257Y-86349272D01*
X153385965Y-86366918D01*
X153368320Y-86384564D01*
X153350674Y-86419855D01*
X153350674Y-86490438D01*
X153368320Y-86525729D01*
X153385965Y-86543375D01*
X153421257Y-86561021D01*
X153509485Y-86561021D01*
X153544777Y-86543375D01*
X153562422Y-86525729D01*
X153580068Y-86490438D01*
X153580068Y-86419855D01*
X153562422Y-86384564D01*
X153544777Y-86366918D01*
X153509485Y-86349272D01*
D10*
%TO.C,J3*%
X134766666Y-110982380D02*
X134766666Y-111696666D01*
X134719047Y-111839523D01*
X134623809Y-111934761D01*
X134480952Y-111982380D01*
X134385714Y-111982380D01*
X135147619Y-110982380D02*
X135766666Y-110982380D01*
X135433333Y-111363333D01*
X135576190Y-111363333D01*
X135671428Y-111410952D01*
X135719047Y-111458571D01*
X135766666Y-111553809D01*
X135766666Y-111791904D01*
X135719047Y-111887142D01*
X135671428Y-111934761D01*
X135576190Y-111982380D01*
X135290476Y-111982380D01*
X135195238Y-111934761D01*
X135147619Y-111887142D01*
D11*
%TO.C,U3*%
X178653748Y-103018115D02*
X179623859Y-103018115D01*
X179737990Y-102961049D01*
X179795055Y-102903984D01*
X179852120Y-102789853D01*
X179852120Y-102561592D01*
X179795055Y-102447461D01*
X179737990Y-102390396D01*
X179623859Y-102333331D01*
X178653748Y-102333331D01*
X178653748Y-101876808D02*
X178653748Y-101134959D01*
X179110271Y-101534416D01*
X179110271Y-101363220D01*
X179167336Y-101249089D01*
X179224402Y-101192024D01*
X179338532Y-101134959D01*
X179623859Y-101134959D01*
X179737990Y-101192024D01*
X179795055Y-101249089D01*
X179852120Y-101363220D01*
X179852120Y-101705612D01*
X179795055Y-101819743D01*
X179737990Y-101876808D01*
D15*
%TO.C,R12*%
X183806713Y-116675734D02*
X183683193Y-116499277D01*
X183594964Y-116675734D02*
X183594964Y-116305174D01*
X183736130Y-116305174D01*
X183771421Y-116322820D01*
X183789067Y-116340465D01*
X183806713Y-116375757D01*
X183806713Y-116428694D01*
X183789067Y-116463985D01*
X183771421Y-116481631D01*
X183736130Y-116499277D01*
X183594964Y-116499277D01*
X184159627Y-116675734D02*
X183947878Y-116675734D01*
X184053753Y-116675734D02*
X184053753Y-116305174D01*
X184018461Y-116358111D01*
X183983170Y-116393402D01*
X183947878Y-116411048D01*
X184300793Y-116340465D02*
X184318438Y-116322820D01*
X184353730Y-116305174D01*
X184441958Y-116305174D01*
X184477250Y-116322820D01*
X184494896Y-116340465D01*
X184512541Y-116375757D01*
X184512541Y-116411048D01*
X184494896Y-116463985D01*
X184283147Y-116675734D01*
X184512541Y-116675734D01*
D10*
%TO.C,U13*%
X169487619Y-90254523D02*
X169487619Y-91282619D01*
X169548095Y-91403571D01*
X169608571Y-91464047D01*
X169729523Y-91524523D01*
X169971428Y-91524523D01*
X170092380Y-91464047D01*
X170152857Y-91403571D01*
X170213333Y-91282619D01*
X170213333Y-90254523D01*
X171483333Y-91524523D02*
X170757619Y-91524523D01*
X171120476Y-91524523D02*
X171120476Y-90254523D01*
X170999523Y-90435952D01*
X170878571Y-90556904D01*
X170757619Y-90617380D01*
X171906666Y-90254523D02*
X172692857Y-90254523D01*
X172269523Y-90738333D01*
X172450952Y-90738333D01*
X172571904Y-90798809D01*
X172632380Y-90859285D01*
X172692857Y-90980238D01*
X172692857Y-91282619D01*
X172632380Y-91403571D01*
X172571904Y-91464047D01*
X172450952Y-91524523D01*
X172088095Y-91524523D01*
X171967142Y-91464047D01*
X171906666Y-91403571D01*
D16*
X173552628Y-97073428D02*
X173973200Y-97073428D01*
X173762914Y-97283714D02*
X173762914Y-96863142D01*
X174183485Y-96731714D02*
X174525200Y-96731714D01*
X174341200Y-96942000D01*
X174420057Y-96942000D01*
X174472628Y-96968285D01*
X174498914Y-96994571D01*
X174525200Y-97047142D01*
X174525200Y-97178571D01*
X174498914Y-97231142D01*
X174472628Y-97257428D01*
X174420057Y-97283714D01*
X174262342Y-97283714D01*
X174209771Y-97257428D01*
X174183485Y-97231142D01*
X174682914Y-96731714D02*
X174866914Y-97283714D01*
X175050914Y-96731714D01*
X175182342Y-96731714D02*
X175524057Y-96731714D01*
X175340057Y-96942000D01*
X175418914Y-96942000D01*
X175471485Y-96968285D01*
X175497771Y-96994571D01*
X175524057Y-97047142D01*
X175524057Y-97178571D01*
X175497771Y-97231142D01*
X175471485Y-97257428D01*
X175418914Y-97283714D01*
X175261200Y-97283714D01*
X175208628Y-97257428D01*
X175182342Y-97231142D01*
X181881771Y-94508000D02*
X181829200Y-94481714D01*
X181750342Y-94481714D01*
X181671485Y-94508000D01*
X181618914Y-94560571D01*
X181592628Y-94613142D01*
X181566342Y-94718285D01*
X181566342Y-94797142D01*
X181592628Y-94902285D01*
X181618914Y-94954857D01*
X181671485Y-95007428D01*
X181750342Y-95033714D01*
X181802914Y-95033714D01*
X181881771Y-95007428D01*
X181908057Y-94981142D01*
X181908057Y-94797142D01*
X181802914Y-94797142D01*
X182144628Y-95033714D02*
X182144628Y-94481714D01*
X182354914Y-94481714D01*
X182407485Y-94508000D01*
X182433771Y-94534285D01*
X182460057Y-94586857D01*
X182460057Y-94665714D01*
X182433771Y-94718285D01*
X182407485Y-94744571D01*
X182354914Y-94770857D01*
X182144628Y-94770857D01*
X182696628Y-95033714D02*
X182696628Y-94481714D01*
X183064628Y-94481714D02*
X183169771Y-94481714D01*
X183222342Y-94508000D01*
X183274914Y-94560571D01*
X183301200Y-94665714D01*
X183301200Y-94849714D01*
X183274914Y-94954857D01*
X183222342Y-95007428D01*
X183169771Y-95033714D01*
X183064628Y-95033714D01*
X183012057Y-95007428D01*
X182959485Y-94954857D01*
X182933200Y-94849714D01*
X182933200Y-94665714D01*
X182959485Y-94560571D01*
X183012057Y-94508000D01*
X183064628Y-94481714D01*
X183800628Y-94481714D02*
X183537771Y-94481714D01*
X183511485Y-94744571D01*
X183537771Y-94718285D01*
X183590342Y-94692000D01*
X183721771Y-94692000D01*
X183774342Y-94718285D01*
X183800628Y-94744571D01*
X183826914Y-94797142D01*
X183826914Y-94928571D01*
X183800628Y-94981142D01*
X183774342Y-95007428D01*
X183721771Y-95033714D01*
X183590342Y-95033714D01*
X183537771Y-95007428D01*
X183511485Y-94981142D01*
X173681771Y-91718000D02*
X173629200Y-91691714D01*
X173550342Y-91691714D01*
X173471485Y-91718000D01*
X173418914Y-91770571D01*
X173392628Y-91823142D01*
X173366342Y-91928285D01*
X173366342Y-92007142D01*
X173392628Y-92112285D01*
X173418914Y-92164857D01*
X173471485Y-92217428D01*
X173550342Y-92243714D01*
X173602914Y-92243714D01*
X173681771Y-92217428D01*
X173708057Y-92191142D01*
X173708057Y-92007142D01*
X173602914Y-92007142D01*
X173944628Y-92243714D02*
X173944628Y-91691714D01*
X174154914Y-91691714D01*
X174207485Y-91718000D01*
X174233771Y-91744285D01*
X174260057Y-91796857D01*
X174260057Y-91875714D01*
X174233771Y-91928285D01*
X174207485Y-91954571D01*
X174154914Y-91980857D01*
X173944628Y-91980857D01*
X174496628Y-92243714D02*
X174496628Y-91691714D01*
X174864628Y-91691714D02*
X174969771Y-91691714D01*
X175022342Y-91718000D01*
X175074914Y-91770571D01*
X175101200Y-91875714D01*
X175101200Y-92059714D01*
X175074914Y-92164857D01*
X175022342Y-92217428D01*
X174969771Y-92243714D01*
X174864628Y-92243714D01*
X174812057Y-92217428D01*
X174759485Y-92164857D01*
X174733200Y-92059714D01*
X174733200Y-91875714D01*
X174759485Y-91770571D01*
X174812057Y-91718000D01*
X174864628Y-91691714D01*
X175626914Y-92243714D02*
X175311485Y-92243714D01*
X175469200Y-92243714D02*
X175469200Y-91691714D01*
X175416628Y-91770571D01*
X175364057Y-91823142D01*
X175311485Y-91849428D01*
X181821771Y-89358000D02*
X181769200Y-89331714D01*
X181690342Y-89331714D01*
X181611485Y-89358000D01*
X181558914Y-89410571D01*
X181532628Y-89463142D01*
X181506342Y-89568285D01*
X181506342Y-89647142D01*
X181532628Y-89752285D01*
X181558914Y-89804857D01*
X181611485Y-89857428D01*
X181690342Y-89883714D01*
X181742914Y-89883714D01*
X181821771Y-89857428D01*
X181848057Y-89831142D01*
X181848057Y-89647142D01*
X181742914Y-89647142D01*
X182084628Y-89883714D02*
X182084628Y-89331714D01*
X182294914Y-89331714D01*
X182347485Y-89358000D01*
X182373771Y-89384285D01*
X182400057Y-89436857D01*
X182400057Y-89515714D01*
X182373771Y-89568285D01*
X182347485Y-89594571D01*
X182294914Y-89620857D01*
X182084628Y-89620857D01*
X182636628Y-89883714D02*
X182636628Y-89331714D01*
X183004628Y-89331714D02*
X183109771Y-89331714D01*
X183162342Y-89358000D01*
X183214914Y-89410571D01*
X183241200Y-89515714D01*
X183241200Y-89699714D01*
X183214914Y-89804857D01*
X183162342Y-89857428D01*
X183109771Y-89883714D01*
X183004628Y-89883714D01*
X182952057Y-89857428D01*
X182899485Y-89804857D01*
X182873200Y-89699714D01*
X182873200Y-89515714D01*
X182899485Y-89410571D01*
X182952057Y-89358000D01*
X183004628Y-89331714D01*
X183425200Y-89331714D02*
X183766914Y-89331714D01*
X183582914Y-89542000D01*
X183661771Y-89542000D01*
X183714342Y-89568285D01*
X183740628Y-89594571D01*
X183766914Y-89647142D01*
X183766914Y-89778571D01*
X183740628Y-89831142D01*
X183714342Y-89857428D01*
X183661771Y-89883714D01*
X183504057Y-89883714D01*
X183451485Y-89857428D01*
X183425200Y-89831142D01*
X181911771Y-96828000D02*
X181859200Y-96801714D01*
X181780342Y-96801714D01*
X181701485Y-96828000D01*
X181648914Y-96880571D01*
X181622628Y-96933142D01*
X181596342Y-97038285D01*
X181596342Y-97117142D01*
X181622628Y-97222285D01*
X181648914Y-97274857D01*
X181701485Y-97327428D01*
X181780342Y-97353714D01*
X181832914Y-97353714D01*
X181911771Y-97327428D01*
X181938057Y-97301142D01*
X181938057Y-97117142D01*
X181832914Y-97117142D01*
X182174628Y-97353714D02*
X182174628Y-96801714D01*
X182490057Y-97353714D01*
X182490057Y-96801714D01*
X182752914Y-97353714D02*
X182752914Y-96801714D01*
X182884342Y-96801714D01*
X182963200Y-96828000D01*
X183015771Y-96880571D01*
X183042057Y-96933142D01*
X183068342Y-97038285D01*
X183068342Y-97117142D01*
X183042057Y-97222285D01*
X183015771Y-97274857D01*
X182963200Y-97327428D01*
X182884342Y-97353714D01*
X182752914Y-97353714D01*
X181881771Y-91958000D02*
X181829200Y-91931714D01*
X181750342Y-91931714D01*
X181671485Y-91958000D01*
X181618914Y-92010571D01*
X181592628Y-92063142D01*
X181566342Y-92168285D01*
X181566342Y-92247142D01*
X181592628Y-92352285D01*
X181618914Y-92404857D01*
X181671485Y-92457428D01*
X181750342Y-92483714D01*
X181802914Y-92483714D01*
X181881771Y-92457428D01*
X181908057Y-92431142D01*
X181908057Y-92247142D01*
X181802914Y-92247142D01*
X182144628Y-92483714D02*
X182144628Y-91931714D01*
X182354914Y-91931714D01*
X182407485Y-91958000D01*
X182433771Y-91984285D01*
X182460057Y-92036857D01*
X182460057Y-92115714D01*
X182433771Y-92168285D01*
X182407485Y-92194571D01*
X182354914Y-92220857D01*
X182144628Y-92220857D01*
X182696628Y-92483714D02*
X182696628Y-91931714D01*
X183064628Y-91931714D02*
X183169771Y-91931714D01*
X183222342Y-91958000D01*
X183274914Y-92010571D01*
X183301200Y-92115714D01*
X183301200Y-92299714D01*
X183274914Y-92404857D01*
X183222342Y-92457428D01*
X183169771Y-92483714D01*
X183064628Y-92483714D01*
X183012057Y-92457428D01*
X182959485Y-92404857D01*
X182933200Y-92299714D01*
X182933200Y-92115714D01*
X182959485Y-92010571D01*
X183012057Y-91958000D01*
X183064628Y-91931714D01*
X183774342Y-92115714D02*
X183774342Y-92483714D01*
X183642914Y-91905428D02*
X183511485Y-92299714D01*
X183853200Y-92299714D01*
X173621771Y-89268000D02*
X173569200Y-89241714D01*
X173490342Y-89241714D01*
X173411485Y-89268000D01*
X173358914Y-89320571D01*
X173332628Y-89373142D01*
X173306342Y-89478285D01*
X173306342Y-89557142D01*
X173332628Y-89662285D01*
X173358914Y-89714857D01*
X173411485Y-89767428D01*
X173490342Y-89793714D01*
X173542914Y-89793714D01*
X173621771Y-89767428D01*
X173648057Y-89741142D01*
X173648057Y-89557142D01*
X173542914Y-89557142D01*
X173884628Y-89793714D02*
X173884628Y-89241714D01*
X174094914Y-89241714D01*
X174147485Y-89268000D01*
X174173771Y-89294285D01*
X174200057Y-89346857D01*
X174200057Y-89425714D01*
X174173771Y-89478285D01*
X174147485Y-89504571D01*
X174094914Y-89530857D01*
X173884628Y-89530857D01*
X174436628Y-89793714D02*
X174436628Y-89241714D01*
X174804628Y-89241714D02*
X174909771Y-89241714D01*
X174962342Y-89268000D01*
X175014914Y-89320571D01*
X175041200Y-89425714D01*
X175041200Y-89609714D01*
X175014914Y-89714857D01*
X174962342Y-89767428D01*
X174909771Y-89793714D01*
X174804628Y-89793714D01*
X174752057Y-89767428D01*
X174699485Y-89714857D01*
X174673200Y-89609714D01*
X174673200Y-89425714D01*
X174699485Y-89320571D01*
X174752057Y-89268000D01*
X174804628Y-89241714D01*
X175251485Y-89294285D02*
X175277771Y-89268000D01*
X175330342Y-89241714D01*
X175461771Y-89241714D01*
X175514342Y-89268000D01*
X175540628Y-89294285D01*
X175566914Y-89346857D01*
X175566914Y-89399428D01*
X175540628Y-89478285D01*
X175225200Y-89793714D01*
X175566914Y-89793714D01*
X173582628Y-94713428D02*
X174003200Y-94713428D01*
X173792914Y-94923714D02*
X173792914Y-94503142D01*
X174502628Y-94371714D02*
X174397485Y-94371714D01*
X174344914Y-94398000D01*
X174318628Y-94424285D01*
X174266057Y-94503142D01*
X174239771Y-94608285D01*
X174239771Y-94818571D01*
X174266057Y-94871142D01*
X174292342Y-94897428D01*
X174344914Y-94923714D01*
X174450057Y-94923714D01*
X174502628Y-94897428D01*
X174528914Y-94871142D01*
X174555200Y-94818571D01*
X174555200Y-94687142D01*
X174528914Y-94634571D01*
X174502628Y-94608285D01*
X174450057Y-94582000D01*
X174344914Y-94582000D01*
X174292342Y-94608285D01*
X174266057Y-94634571D01*
X174239771Y-94687142D01*
X174712914Y-94371714D02*
X174896914Y-94923714D01*
X175080914Y-94371714D01*
D10*
%TO.C,U16*%
X98992380Y-73808095D02*
X99801904Y-73808095D01*
X99897142Y-73760476D01*
X99944761Y-73712857D01*
X99992380Y-73617619D01*
X99992380Y-73427142D01*
X99944761Y-73331904D01*
X99897142Y-73284285D01*
X99801904Y-73236666D01*
X98992380Y-73236666D01*
X99992380Y-72236666D02*
X99992380Y-72808095D01*
X99992380Y-72522380D02*
X98992380Y-72522380D01*
X99135238Y-72617619D01*
X99230476Y-72712857D01*
X99278095Y-72808095D01*
X98992380Y-71379523D02*
X98992380Y-71570000D01*
X99040000Y-71665238D01*
X99087619Y-71712857D01*
X99230476Y-71808095D01*
X99420952Y-71855714D01*
X99801904Y-71855714D01*
X99897142Y-71808095D01*
X99944761Y-71760476D01*
X99992380Y-71665238D01*
X99992380Y-71474761D01*
X99944761Y-71379523D01*
X99897142Y-71331904D01*
X99801904Y-71284285D01*
X99563809Y-71284285D01*
X99468571Y-71331904D01*
X99420952Y-71379523D01*
X99373333Y-71474761D01*
X99373333Y-71665238D01*
X99420952Y-71760476D01*
X99468571Y-71808095D01*
X99563809Y-71855714D01*
%TO.C,U9*%
X184137619Y-82608095D02*
X183328095Y-82608095D01*
X183232857Y-82655714D01*
X183185238Y-82703333D01*
X183137619Y-82798571D01*
X183137619Y-82989047D01*
X183185238Y-83084285D01*
X183232857Y-83131904D01*
X183328095Y-83179523D01*
X184137619Y-83179523D01*
X183137619Y-83703333D02*
X183137619Y-83893809D01*
X183185238Y-83989047D01*
X183232857Y-84036666D01*
X183375714Y-84131904D01*
X183566190Y-84179523D01*
X183947142Y-84179523D01*
X184042380Y-84131904D01*
X184090000Y-84084285D01*
X184137619Y-83989047D01*
X184137619Y-83798571D01*
X184090000Y-83703333D01*
X184042380Y-83655714D01*
X183947142Y-83608095D01*
X183709047Y-83608095D01*
X183613809Y-83655714D01*
X183566190Y-83703333D01*
X183518571Y-83798571D01*
X183518571Y-83989047D01*
X183566190Y-84084285D01*
X183613809Y-84131904D01*
X183709047Y-84179523D01*
X171856666Y-80202380D02*
X172190000Y-81202380D01*
X172523333Y-80202380D01*
X173428095Y-81107142D02*
X173380476Y-81154761D01*
X173237619Y-81202380D01*
X173142380Y-81202380D01*
X172999523Y-81154761D01*
X172904285Y-81059523D01*
X172856666Y-80964285D01*
X172809047Y-80773809D01*
X172809047Y-80630952D01*
X172856666Y-80440476D01*
X172904285Y-80345238D01*
X172999523Y-80250000D01*
X173142380Y-80202380D01*
X173237619Y-80202380D01*
X173380476Y-80250000D01*
X173428095Y-80297619D01*
X174428095Y-81107142D02*
X174380476Y-81154761D01*
X174237619Y-81202380D01*
X174142380Y-81202380D01*
X173999523Y-81154761D01*
X173904285Y-81059523D01*
X173856666Y-80964285D01*
X173809047Y-80773809D01*
X173809047Y-80630952D01*
X173856666Y-80440476D01*
X173904285Y-80345238D01*
X173999523Y-80250000D01*
X174142380Y-80202380D01*
X174237619Y-80202380D01*
X174380476Y-80250000D01*
X174428095Y-80297619D01*
X172448095Y-85460000D02*
X172352857Y-85412380D01*
X172210000Y-85412380D01*
X172067142Y-85460000D01*
X171971904Y-85555238D01*
X171924285Y-85650476D01*
X171876666Y-85840952D01*
X171876666Y-85983809D01*
X171924285Y-86174285D01*
X171971904Y-86269523D01*
X172067142Y-86364761D01*
X172210000Y-86412380D01*
X172305238Y-86412380D01*
X172448095Y-86364761D01*
X172495714Y-86317142D01*
X172495714Y-85983809D01*
X172305238Y-85983809D01*
X172924285Y-86412380D02*
X172924285Y-85412380D01*
X173495714Y-86412380D01*
X173495714Y-85412380D01*
X173971904Y-86412380D02*
X173971904Y-85412380D01*
X174210000Y-85412380D01*
X174352857Y-85460000D01*
X174448095Y-85555238D01*
X174495714Y-85650476D01*
X174543333Y-85840952D01*
X174543333Y-85983809D01*
X174495714Y-86174285D01*
X174448095Y-86269523D01*
X174352857Y-86364761D01*
X174210000Y-86412380D01*
X173971904Y-86412380D01*
X172976309Y-82961904D02*
X173128690Y-82961904D01*
X173204880Y-83000000D01*
X173281071Y-83076190D01*
X173319166Y-83228571D01*
X173319166Y-83495238D01*
X173281071Y-83647619D01*
X173204880Y-83723809D01*
X173128690Y-83761904D01*
X172976309Y-83761904D01*
X172900119Y-83723809D01*
X172823928Y-83647619D01*
X172785833Y-83495238D01*
X172785833Y-83228571D01*
X172823928Y-83076190D01*
X172900119Y-83000000D01*
X172976309Y-82961904D01*
X174004880Y-83228571D02*
X174004880Y-83761904D01*
X173662023Y-83228571D02*
X173662023Y-83647619D01*
X173700119Y-83723809D01*
X173776309Y-83761904D01*
X173890595Y-83761904D01*
X173966785Y-83723809D01*
X174004880Y-83685714D01*
X174271547Y-83228571D02*
X174576309Y-83228571D01*
X174385833Y-82961904D02*
X174385833Y-83647619D01*
X174423928Y-83723809D01*
X174500119Y-83761904D01*
X174576309Y-83761904D01*
%TO.C,U14*%
X138661904Y-114432380D02*
X138661904Y-115241904D01*
X138709523Y-115337142D01*
X138757142Y-115384761D01*
X138852380Y-115432380D01*
X139042857Y-115432380D01*
X139138095Y-115384761D01*
X139185714Y-115337142D01*
X139233333Y-115241904D01*
X139233333Y-114432380D01*
X140233333Y-115432380D02*
X139661904Y-115432380D01*
X139947619Y-115432380D02*
X139947619Y-114432380D01*
X139852380Y-114575238D01*
X139757142Y-114670476D01*
X139661904Y-114718095D01*
X141090476Y-114765714D02*
X141090476Y-115432380D01*
X140852380Y-114384761D02*
X140614285Y-115099047D01*
X141233333Y-115099047D01*
D15*
%TO.C,R11*%
X186982734Y-109071447D02*
X186806277Y-109194967D01*
X186982734Y-109283196D02*
X186612174Y-109283196D01*
X186612174Y-109142030D01*
X186629820Y-109106738D01*
X186647465Y-109089093D01*
X186682757Y-109071447D01*
X186735694Y-109071447D01*
X186770985Y-109089093D01*
X186788631Y-109106738D01*
X186806277Y-109142030D01*
X186806277Y-109283196D01*
X186982734Y-108718533D02*
X186982734Y-108930281D01*
X186982734Y-108824407D02*
X186612174Y-108824407D01*
X186665111Y-108859698D01*
X186700402Y-108894990D01*
X186718048Y-108930281D01*
X186982734Y-108365618D02*
X186982734Y-108577367D01*
X186982734Y-108471493D02*
X186612174Y-108471493D01*
X186665111Y-108506784D01*
X186700402Y-108542076D01*
X186718048Y-108577367D01*
D10*
%TO.C,U11*%
X131512380Y-81718095D02*
X132321904Y-81718095D01*
X132417142Y-81670476D01*
X132464761Y-81622857D01*
X132512380Y-81527619D01*
X132512380Y-81337142D01*
X132464761Y-81241904D01*
X132417142Y-81194285D01*
X132321904Y-81146666D01*
X131512380Y-81146666D01*
X132512380Y-80146666D02*
X132512380Y-80718095D01*
X132512380Y-80432380D02*
X131512380Y-80432380D01*
X131655238Y-80527619D01*
X131750476Y-80622857D01*
X131798095Y-80718095D01*
X132512380Y-79194285D02*
X132512380Y-79765714D01*
X132512380Y-79480000D02*
X131512380Y-79480000D01*
X131655238Y-79575238D01*
X131750476Y-79670476D01*
X131798095Y-79765714D01*
D13*
%TO.C,U2*%
X131665050Y-74252000D02*
X131665050Y-134502000D01*
X121517050Y-79652000D02*
X113917050Y-79652000D01*
D17*
X131715050Y-104502000D02*
X130715050Y-104502000D01*
D13*
X121517050Y-74052000D02*
X121517050Y-79652000D01*
D18*
X131623050Y-82662000D02*
X131623050Y-88462000D01*
X131653050Y-101674000D02*
X131653050Y-107474000D01*
D13*
X106331950Y-117830200D02*
X106331950Y-126430200D01*
D18*
X131653050Y-107474000D02*
X128753050Y-107474000D01*
X106275050Y-101612000D02*
X106275050Y-107412000D01*
D13*
X103415050Y-134502000D02*
X103415050Y-74252000D01*
X113917050Y-74052000D02*
X121517050Y-74052000D01*
X103031950Y-122930200D02*
X103031950Y-124330200D01*
X103031950Y-124330200D02*
X101631950Y-124330200D01*
D18*
X106265050Y-88472000D02*
X103365050Y-88472000D01*
X103365050Y-88472000D02*
X103365050Y-82672000D01*
X103365050Y-82672000D02*
X106265050Y-82672000D01*
X128723050Y-88462000D02*
X128723050Y-82662000D01*
D13*
X106331950Y-126430200D02*
X103031950Y-126430200D01*
D18*
X128753050Y-107474000D02*
X128753050Y-101674000D01*
X103375050Y-107412000D02*
X103375050Y-101612000D01*
X128723050Y-82662000D02*
X131623050Y-82662000D01*
D13*
X127753950Y-119903200D02*
X107153950Y-119903200D01*
X127753950Y-79903200D02*
X127753950Y-119903200D01*
X107153950Y-119903200D02*
X107153950Y-79903200D01*
D18*
X128725050Y-126202000D02*
X128725050Y-120402000D01*
D13*
X101631950Y-124330200D02*
X101631950Y-122930200D01*
D18*
X106265050Y-82672000D02*
X106265050Y-88472000D01*
D13*
X101631950Y-122930200D02*
X103031950Y-122930200D01*
X107153950Y-79903200D02*
X127753950Y-79903200D01*
X113917050Y-79652000D02*
X113917050Y-74052000D01*
X131665050Y-134502000D02*
X103415050Y-134502000D01*
D18*
X131625050Y-120402000D02*
X131625050Y-126202000D01*
D13*
X103415050Y-74252000D02*
X131665050Y-74252000D01*
X103031950Y-117830200D02*
X106331950Y-117830200D01*
D18*
X131625050Y-126202000D02*
X128725050Y-126202000D01*
X128725050Y-120402000D02*
X131625050Y-120402000D01*
D13*
X103031950Y-126430200D02*
X103031950Y-117830200D01*
D18*
X106275050Y-107412000D02*
X103375050Y-107412000D01*
X131623050Y-88462000D02*
X128723050Y-88462000D01*
X103375050Y-101612000D02*
X106275050Y-101612000D01*
X128753050Y-101674000D02*
X131653050Y-101674000D01*
D17*
X110859050Y-135395000D02*
X124321050Y-135395000D01*
X124321050Y-135395000D02*
X124321050Y-127906000D01*
X124321050Y-127906000D02*
X110859050Y-127906000D01*
X110859050Y-127906000D02*
X110859050Y-135395000D01*
D19*
%TO.C,U1*%
X169682700Y-109180200D02*
X169987500Y-109180200D01*
X169987500Y-109180200D02*
X169987500Y-101357000D01*
X157033500Y-101357000D02*
X156728700Y-101357000D01*
X156728700Y-101357000D02*
X156728700Y-109180200D01*
X156728700Y-109180200D02*
X157033500Y-109180200D01*
X169987500Y-101357000D02*
X169682700Y-101357000D01*
G36*
X157846300Y-99350400D02*
G01*
X157439900Y-99350400D01*
X157439900Y-99071000D01*
X157846300Y-99071000D01*
X157846300Y-99350400D01*
G37*
G36*
X169276300Y-111466200D02*
G01*
X168869900Y-111466200D01*
X168869900Y-111186800D01*
X169276300Y-111186800D01*
X169276300Y-111466200D01*
G37*
D20*
%TO.C,U8*%
X176304100Y-118936100D02*
X182154100Y-118936100D01*
X182154100Y-118936100D02*
X182154100Y-110486100D01*
X176304100Y-110486100D02*
X176304100Y-118936100D01*
X182154100Y-110486100D02*
X176304100Y-110486100D01*
X183179600Y-119302100D02*
G75*
G03*
X183179600Y-119302100I-200000J0D01*
G01*
D17*
%TO.C,U15*%
X103150000Y-135780000D02*
X113370000Y-135780000D01*
X103150000Y-138440000D02*
X103150000Y-135780000D01*
X101880000Y-138440000D02*
X100550000Y-138440000D01*
X100550000Y-138440000D02*
X100550000Y-137110000D01*
X103150000Y-138440000D02*
X113370000Y-138440000D01*
X113370000Y-138440000D02*
X113370000Y-135780000D01*
%TO.C,U7*%
X182367953Y-136208110D02*
X190530008Y-130057560D01*
X183968781Y-138332480D02*
X182367953Y-136208110D01*
X183968781Y-138332480D02*
X192130836Y-132181931D01*
X181892329Y-139897199D02*
X181091915Y-138835014D01*
X192130836Y-132181931D02*
X190530008Y-130057560D01*
X182954514Y-139096785D02*
X181892329Y-139897199D01*
%TO.C,JP2*%
X141330000Y-78070000D02*
X138670000Y-78070000D01*
X141330000Y-90830000D02*
X138670000Y-90830000D01*
X141330000Y-90830000D02*
X141330000Y-78070000D01*
X141330000Y-92100000D02*
X141330000Y-93430000D01*
X141330000Y-93430000D02*
X140000000Y-93430000D01*
X138670000Y-90830000D02*
X138670000Y-78070000D01*
D21*
%TO.C,U10*%
X183000000Y-126730000D02*
X183000000Y-123940000D01*
D22*
X188859000Y-121551000D02*
X174889000Y-121551000D01*
X174889000Y-129171000D02*
X188859000Y-129171000D01*
D17*
X177520000Y-124080000D02*
X177520000Y-129220000D01*
X174860000Y-129220000D02*
X177520000Y-129220000D01*
D22*
X174889000Y-121551000D02*
X174889000Y-129171000D01*
D21*
X179510000Y-126730000D02*
X183000000Y-126730000D01*
X183000000Y-123940000D02*
X179510000Y-123940000D01*
D17*
X174860000Y-122810000D02*
X174860000Y-121480000D01*
D22*
X188859000Y-129171000D02*
X188859000Y-121551000D01*
D17*
X174860000Y-124080000D02*
X177520000Y-124080000D01*
X174860000Y-124080000D02*
X174860000Y-129220000D01*
X174860000Y-121480000D02*
X176190000Y-121480000D01*
%TO.C,U5*%
X192481247Y-77915110D02*
X190880419Y-80039480D01*
X194557699Y-79479829D02*
X193757285Y-80542014D01*
X192481247Y-77915110D02*
X184319192Y-71764560D01*
X184319192Y-71764560D02*
X182718364Y-73888931D01*
X193495514Y-78679415D02*
X194557699Y-79479829D01*
X190880419Y-80039480D02*
X182718364Y-73888931D01*
D23*
%TO.C,J1*%
X159730000Y-94100000D02*
X156930000Y-94100000D01*
D21*
X159730000Y-80200000D02*
X159730000Y-94100000D01*
D23*
X155230000Y-80200000D02*
X159730000Y-80200000D01*
X155230000Y-92150000D02*
X155230000Y-80200000D01*
D20*
%TO.C,M1*%
X173741100Y-144003600D02*
X175241100Y-144003600D01*
X171241100Y-132503600D02*
X173741100Y-132503600D01*
X158741100Y-144003600D02*
X173741100Y-144003600D01*
X158741100Y-144003600D02*
X158741100Y-132503600D01*
X161241100Y-117503600D02*
X171241100Y-117503600D01*
X157241100Y-144003600D02*
X158741100Y-144003600D01*
X158741100Y-132503600D02*
X161241100Y-132503600D01*
X173741100Y-144003600D02*
X173741100Y-132503600D01*
X161241100Y-132503600D02*
X171241100Y-132503600D01*
X171241100Y-132503600D02*
X171241100Y-117503600D01*
X161241100Y-140003600D02*
G75*
G03*
X161241100Y-140003600I-4000000J0D01*
G01*
X179241100Y-140003600D02*
G75*
G03*
X179241100Y-140003600I-4000000J0D01*
G01*
%TO.C,R10*%
X154508800Y-87574900D02*
X153792400Y-87574900D01*
X153792400Y-87574900D02*
X153792400Y-89485300D01*
X153792400Y-89485300D02*
X154508800Y-89485300D01*
X154508800Y-87574900D02*
X154508800Y-89485300D01*
D17*
%TO.C,U6*%
X194533100Y-109713600D02*
X191873100Y-109713600D01*
X194533100Y-110983600D02*
X194533100Y-112313600D01*
X194533100Y-112313600D02*
X193203100Y-112313600D01*
X194533100Y-109713600D02*
X194533100Y-99493600D01*
X191873100Y-109713600D02*
X191873100Y-99493600D01*
X194533100Y-99493600D02*
X191873100Y-99493600D01*
%TO.C,JP1*%
X141240000Y-136250000D02*
X139910000Y-136250000D01*
X141240000Y-133650000D02*
X138580000Y-133650000D01*
X141240000Y-133650000D02*
X141240000Y-115810000D01*
X138580000Y-133650000D02*
X138580000Y-115810000D01*
X141240000Y-134920000D02*
X141240000Y-136250000D01*
X141240000Y-115810000D02*
X138580000Y-115810000D01*
D20*
%TO.C,R13*%
X183510400Y-117927900D02*
X185420800Y-117927900D01*
X183510400Y-117927900D02*
X183510400Y-118644300D01*
X183510400Y-118644300D02*
X185420800Y-118644300D01*
X185420800Y-118644300D02*
X185420800Y-117927900D01*
D23*
%TO.C,J2*%
X153970000Y-129150000D02*
X153970000Y-115250000D01*
X158470000Y-129150000D02*
X153970000Y-129150000D01*
X153970000Y-115250000D02*
X156770000Y-115250000D01*
D21*
X158470000Y-115250000D02*
X158470000Y-129150000D01*
D20*
%TO.C,U4*%
X152436100Y-75233100D02*
X146086100Y-75233100D01*
X152436100Y-132383100D02*
X152436100Y-75233100D01*
X146086100Y-75233100D02*
X146086100Y-132383100D01*
X146086100Y-132383100D02*
X152436100Y-132383100D01*
%TO.C,M2*%
X174101100Y-66343600D02*
X159101100Y-66343600D01*
X171601100Y-77843600D02*
X171601100Y-92843600D01*
X171601100Y-77843600D02*
X161601100Y-77843600D01*
X171601100Y-92843600D02*
X161601100Y-92843600D01*
X161601100Y-77843600D02*
X159101100Y-77843600D01*
X174101100Y-77843600D02*
X171601100Y-77843600D01*
X159101100Y-66343600D02*
X159101100Y-77843600D01*
X159101100Y-66343600D02*
X157601100Y-66343600D01*
X175601100Y-66343600D02*
X174101100Y-66343600D01*
X174101100Y-66343600D02*
X174101100Y-77843600D01*
X179601100Y-70343600D02*
G75*
G03*
X179601100Y-70343600I-4000000J0D01*
G01*
X161601100Y-70343600D02*
G75*
G03*
X161601100Y-70343600I-4000000J0D01*
G01*
%TO.C,R9*%
X153792400Y-87021300D02*
X153792400Y-85110900D01*
X154508800Y-85110900D02*
X153792400Y-85110900D01*
X154508800Y-87021300D02*
X154508800Y-85110900D01*
X153792400Y-87021300D02*
X154508800Y-87021300D01*
D17*
%TO.C,J3*%
X136430000Y-110530000D02*
X135100000Y-110530000D01*
X136430000Y-100250000D02*
X133770000Y-100250000D01*
X133770000Y-107930000D02*
X133770000Y-100250000D01*
X136430000Y-107930000D02*
X136430000Y-100250000D01*
X136430000Y-107930000D02*
X133770000Y-107930000D01*
X136430000Y-109200000D02*
X136430000Y-110530000D01*
D19*
%TO.C,U3*%
X181239700Y-102398400D02*
X181239700Y-106106800D01*
X186624500Y-106106800D02*
X186624500Y-102398400D01*
D20*
X180957100Y-107808600D02*
G75*
G03*
X180957100Y-107808600I-200000J0D01*
G01*
G36*
X185760300Y-100559300D02*
G01*
X185353900Y-100559300D01*
X185353900Y-100279900D01*
X185760300Y-100279900D01*
X185760300Y-100559300D01*
G37*
%TO.C,R12*%
X183510400Y-117374300D02*
X185420800Y-117374300D01*
X185420800Y-117374300D02*
X185420800Y-116657900D01*
X183510400Y-116657900D02*
X185420800Y-116657900D01*
X183510400Y-116657900D02*
X183510400Y-117374300D01*
D17*
%TO.C,U16*%
X103140000Y-73900000D02*
X113360000Y-73900000D01*
X101870000Y-73900000D02*
X100540000Y-73900000D01*
X100540000Y-73900000D02*
X100540000Y-72570000D01*
X103140000Y-71240000D02*
X113360000Y-71240000D01*
X103140000Y-73900000D02*
X103140000Y-71240000D01*
X113360000Y-73900000D02*
X113360000Y-71240000D01*
D22*
%TO.C,U9*%
X188859000Y-87171000D02*
X188859000Y-79551000D01*
X174889000Y-79551000D02*
X174889000Y-87171000D01*
D21*
X179510000Y-84730000D02*
X183000000Y-84730000D01*
X183000000Y-81940000D02*
X179510000Y-81940000D01*
D17*
X174860000Y-82080000D02*
X174860000Y-87220000D01*
D22*
X174889000Y-87171000D02*
X188859000Y-87171000D01*
D17*
X174860000Y-87220000D02*
X177520000Y-87220000D01*
X174860000Y-82080000D02*
X177520000Y-82080000D01*
X174860000Y-80810000D02*
X174860000Y-79480000D01*
X177520000Y-82080000D02*
X177520000Y-87220000D01*
D22*
X188859000Y-79551000D02*
X174889000Y-79551000D01*
D21*
X183000000Y-84730000D02*
X183000000Y-81940000D01*
D17*
X174860000Y-79480000D02*
X176190000Y-79480000D01*
%TO.C,U14*%
X141230000Y-111380000D02*
X138570000Y-111380000D01*
X141230000Y-111380000D02*
X141230000Y-96080000D01*
X141230000Y-96080000D02*
X138570000Y-96080000D01*
X138570000Y-111380000D02*
X138570000Y-96080000D01*
X141230000Y-112650000D02*
X141230000Y-113980000D01*
X141230000Y-113980000D02*
X139900000Y-113980000D01*
D20*
%TO.C,R11*%
X185859900Y-108275900D02*
X185859900Y-110186300D01*
X186576300Y-108275900D02*
X185859900Y-108275900D01*
X185859900Y-110186300D02*
X186576300Y-110186300D01*
X186576300Y-108275900D02*
X186576300Y-110186300D01*
D17*
%TO.C,U11*%
X133580000Y-80675000D02*
X133580000Y-83275000D01*
X133580000Y-78075000D02*
X134910000Y-78075000D01*
X133580000Y-83275000D02*
X138780000Y-83275000D01*
X136180000Y-80675000D02*
X136180000Y-78075000D01*
X138780000Y-78075000D02*
X138780000Y-83275000D01*
X133580000Y-79405000D02*
X133580000Y-78075000D01*
X136180000Y-78075000D02*
X138780000Y-78075000D01*
X133580000Y-80675000D02*
X136180000Y-80675000D01*
%TD*%
D24*
%TO.C,J1*%
X156930000Y-92150000D03*
D25*
X156930000Y-90150000D03*
X156930000Y-88150000D03*
X156930000Y-86150000D03*
X156930000Y-84150000D03*
X156930000Y-82150000D03*
%TD*%
D24*
%TO.C,J2*%
X156770000Y-117200000D03*
D25*
X156770000Y-119200000D03*
X156770000Y-121200000D03*
X156770000Y-123200000D03*
X156770000Y-125200000D03*
X156770000Y-127200000D03*
%TD*%
M02*
