M48
; DRILL file {KiCad (6.0.7)} date Sun Sep 18 19:12:48 2022
; FORMAT={-:-/ absolute / inch / decimal}
; #@! TF.CreationDate,2022-09-18T19:12:48+05:00
; #@! TF.GenerationSoftware,Kicad,Pcbnew,(6.0.7)
; #@! TF.FileFunction,Plated,1,4,PTH
FMAT,2
INCH
; #@! TA.AperFunction,Plated,PTH,ViaDrill
T1C0.0138
; #@! TA.AperFunction,Plated,PTH,ViaDrill
T2C0.0157
; #@! TA.AperFunction,Plated,PTH,ComponentDrill
T3C0.0354
; #@! TA.AperFunction,Plated,PTH,ComponentDrill
T4C0.0394
; #@! TA.AperFunction,Plated,PTH,ComponentDrill
T5C0.0433
%
G90
G05
T1
X5.8414Y-3.5119
X5.8414Y-3.5619
X5.8414Y-3.6119
X5.8414Y-3.6619
X5.8414Y-3.7119
X5.8414Y-3.7619
X5.8439Y-3.3619
X5.8464Y-3.1119
X5.8464Y-3.1619
X5.8464Y-3.2119
X5.8464Y-3.2594
X5.8464Y-3.3119
X6.0689Y-3.3244
X6.0689Y-3.5469
X6.072Y-4.1398
X6.0807Y-3.8591
X6.2064Y-4.4144
X6.2547Y-3.8433
X6.2564Y-4.4144
X6.3564Y-4.2419
X6.3589Y-4.0569
X6.4064Y-4.0569
X6.4064Y-4.2419
X6.4564Y-4.0569
X6.4564Y-4.2419
X6.5064Y-4.0569
X6.5064Y-4.2419
X6.6089Y-4.4169
X6.6664Y-3.8719
X6.6952Y-3.8132
X6.9425Y-4.6961
X7.0139Y-4.5744
X7.0764Y-4.2194
X7.1039Y-4.1019
X7.1114Y-4.5219
X7.1139Y-4.6319
X7.1189Y-4.3744
X7.1389Y-4.1394
X7.1764Y-3.9394
X7.1764Y-4.1644
X7.2014Y-4.0519
X7.2389Y-4.0794
X7.2789Y-3.9219
X7.2789Y-4.5344
X7.2814Y-4.0569
X7.2864Y-4.6944
X7.3064Y-3.8819
X7.3239Y-4.6069
X7.3314Y-3.9394
X7.3314Y-4.3594
T2
X5.1709Y-5.3886
X5.1717Y-5.3413
X5.3689Y-3.5953
X5.6083Y-4.7618
X5.648Y-3.5724
X5.6646Y-4.9106
X5.6677Y-3.815
X5.6709Y-4.085
X5.678Y-3.5197
X5.678Y-3.6433
X5.6791Y-4.572
X5.7248Y-4.7531
X5.7441Y-3.6165
X5.7659Y-4.3119
X5.7969Y-4.8134
X5.8035Y-4.6854
X5.811Y-4.6134
X5.8269Y-4.2619
X5.8728Y-5.4283
X5.9201Y-5.4287
X7.0673Y-4.7295
X7.2898Y-3.0913
X7.5386Y-3.2417
T3
X6.172Y-4.6142
X6.172Y-4.6929
X6.172Y-4.7717
X6.172Y-4.8504
X6.172Y-4.9291
X6.172Y-5.0079
X6.1783Y-3.2343
X6.1783Y-3.313
X6.1783Y-3.3917
X6.1783Y-3.4705
X6.1783Y-3.5492
X6.1783Y-3.628
T4
X4.0106Y-2.8571
X4.011Y-5.398
X4.1106Y-2.8571
X4.111Y-5.398
X4.2106Y-2.8571
X4.211Y-5.398
X4.3106Y-2.8571
X4.311Y-5.398
X4.4106Y-2.8571
X4.411Y-5.398
X5.3114Y-3.1262
X5.3114Y-3.2262
X5.3189Y-3.9992
X5.3189Y-4.0992
X5.3189Y-4.1992
X5.3189Y-4.2992
X5.4114Y-3.1262
X5.4114Y-3.2262
X5.5079Y-3.835
X5.5079Y-3.935
X5.5079Y-4.035
X5.5079Y-4.135
X5.5079Y-4.235
X5.5079Y-4.335
X5.5079Y-4.435
X5.5083Y-4.6118
X5.5083Y-4.7118
X5.5083Y-4.8118
X5.5083Y-4.9118
X5.5083Y-5.0118
X5.5083Y-5.1118
X5.5083Y-5.2118
X5.5083Y-5.3118
X5.5118Y-3.126
X5.5118Y-3.226
X5.5118Y-3.326
X5.5118Y-3.426
X5.5118Y-3.526
X5.5118Y-3.626
X6.3874Y-4.5671
X6.4016Y-3.7143
X6.7024Y-4.5671
X6.7166Y-3.7143
X6.9366Y-3.1815
X6.9366Y-3.2815
X6.9366Y-3.3815
X6.9366Y-4.835
X6.9366Y-4.935
X6.9366Y-5.035
X6.9714Y-3.5244
X6.9714Y-3.6244
X6.9714Y-3.7244
X6.9714Y-3.8244
X7.0714Y-3.5244
X7.0714Y-3.6244
X7.0714Y-3.7244
X7.0714Y-3.8244
X7.1714Y-5.4344
X7.2513Y-5.3743
X7.267Y-2.8987
X7.3311Y-5.3141
X7.3468Y-2.9589
X7.411Y-5.2539
X7.4267Y-3.0191
X7.4909Y-5.1937
X7.5066Y-3.0793
X7.5864Y-3.1394
X7.6064Y-3.9694
X7.6064Y-4.0694
X7.6064Y-4.1694
X7.6064Y-4.2694
X7.6064Y-4.3694
T5
X4.1255Y-3.3167
X4.1255Y-3.4189
X4.1259Y-4.0624
X4.1259Y-4.1646
X5.1238Y-3.3164
X5.1238Y-3.4185
X5.1239Y-4.8015
X5.1239Y-4.9035
X5.125Y-4.0642
X5.125Y-4.1662
X5.8136Y-3.0279
X5.8136Y-5.146
T0
M30
