%TF.GenerationSoftware,KiCad,Pcbnew,(6.0.7)*%
%TF.CreationDate,2022-09-18T19:12:44+05:00*%
%TF.ProjectId,minisumo_v3,6d696e69-7375-46d6-9f5f-76332e6b6963,rev?*%
%TF.SameCoordinates,Original*%
%TF.FileFunction,Copper,L1,Top*%
%TF.FilePolarity,Positive*%
%FSLAX46Y46*%
G04 Gerber Fmt 4.6, Leading zero omitted, Abs format (unit mm)*
G04 Created by KiCad (PCBNEW (6.0.7)) date 2022-09-18 19:12:44*
%MOMM*%
%LPD*%
G01*
G04 APERTURE LIST*
G04 Aperture macros list*
%AMHorizOval*
0 Thick line with rounded ends*
0 $1 width*
0 $2 $3 position (X,Y) of the first rounded end (center of the circle)*
0 $4 $5 position (X,Y) of the second rounded end (center of the circle)*
0 Add line between two ends*
20,1,$1,$2,$3,$4,$5,0*
0 Add two circle primitives to create the rounded ends*
1,1,$1,$2,$3*
1,1,$1,$4,$5*%
%AMRotRect*
0 Rectangle, with rotation*
0 The origin of the aperture is its center*
0 $1 length*
0 $2 width*
0 $3 Rotation angle, in degrees counterclockwise*
0 Add horizontal line*
21,1,$1,$2,0,0,$3*%
G04 Aperture macros list end*
%TA.AperFunction,ComponentPad*%
%ADD10R,2.300000X2.100000*%
%TD*%
%TA.AperFunction,ComponentPad*%
%ADD11O,2.300000X2.100000*%
%TD*%
%TA.AperFunction,SMDPad,CuDef*%
%ADD12R,0.558800X1.981200*%
%TD*%
%TA.AperFunction,SMDPad,CuDef*%
%ADD13R,1.500000X0.450000*%
%TD*%
%TA.AperFunction,ComponentPad*%
%ADD14R,1.700000X1.700000*%
%TD*%
%TA.AperFunction,ComponentPad*%
%ADD15O,1.700000X1.700000*%
%TD*%
%TA.AperFunction,ComponentPad*%
%ADD16RotRect,1.700000X1.700000X127.000000*%
%TD*%
%TA.AperFunction,ComponentPad*%
%ADD17HorizOval,1.700000X0.000000X0.000000X0.000000X0.000000X0*%
%TD*%
%TA.AperFunction,ComponentPad*%
%ADD18RotRect,1.700000X1.700000X233.000000*%
%TD*%
%TA.AperFunction,ComponentPad*%
%ADD19HorizOval,1.700000X0.000000X0.000000X0.000000X0.000000X0*%
%TD*%
%TA.AperFunction,ComponentPad*%
%ADD20R,1.350000X1.350000*%
%TD*%
%TA.AperFunction,ComponentPad*%
%ADD21C,1.350000*%
%TD*%
%TA.AperFunction,ComponentPad*%
%ADD22C,1.508000*%
%TD*%
%TA.AperFunction,SMDPad,CuDef*%
%ADD23R,0.610000X0.635000*%
%TD*%
%TA.AperFunction,SMDPad,CuDef*%
%ADD24R,0.635000X0.610000*%
%TD*%
%TA.AperFunction,ComponentPad*%
%ADD25C,2.500000*%
%TD*%
%TA.AperFunction,SMDPad,CuDef*%
%ADD26R,3.500000X0.800000*%
%TD*%
%TA.AperFunction,SMDPad,CuDef*%
%ADD27R,0.324800X1.365200*%
%TD*%
%TA.AperFunction,ComponentPad*%
%ADD28R,1.508000X1.508000*%
%TD*%
%TA.AperFunction,ViaPad*%
%ADD29C,0.800000*%
%TD*%
%TA.AperFunction,ViaPad*%
%ADD30C,0.756400*%
%TD*%
%TA.AperFunction,Conductor*%
%ADD31C,0.254000*%
%TD*%
%TA.AperFunction,Conductor*%
%ADD32C,0.800000*%
%TD*%
%TA.AperFunction,Conductor*%
%ADD33C,0.250000*%
%TD*%
%TA.AperFunction,Conductor*%
%ADD34C,0.400000*%
%TD*%
%TA.AperFunction,Conductor*%
%ADD35C,0.152400*%
%TD*%
%TA.AperFunction,Conductor*%
%ADD36C,0.500000*%
%TD*%
%TA.AperFunction,Conductor*%
%ADD37C,1.500000*%
%TD*%
%TA.AperFunction,Conductor*%
%ADD38C,1.000000*%
%TD*%
%TA.AperFunction,Conductor*%
%ADD39C,1.400000*%
%TD*%
%TA.AperFunction,Conductor*%
%ADD40C,0.700000*%
%TD*%
%TA.AperFunction,Conductor*%
%ADD41C,1.200000*%
%TD*%
%TA.AperFunction,Conductor*%
%ADD42C,0.600000*%
%TD*%
G04 APERTURE END LIST*
D10*
%TO.P,U2,1,5V*%
%TO.N,+5V*%
X130147050Y-124550000D03*
X130145050Y-86830000D03*
X130175050Y-105822000D03*
D11*
%TO.P,U2,2,GND*%
%TO.N,GND*%
X130147050Y-121958800D03*
X130145050Y-84235400D03*
X130175050Y-103230800D03*
D10*
%TO.P,U2,3,3v3*%
%TO.N,+3V3*%
X104797050Y-105780000D03*
X104787050Y-86840000D03*
D11*
%TO.P,U2,4,GND*%
%TO.N,GND*%
X104787050Y-84245400D03*
X104797050Y-103185400D03*
%TD*%
D12*
%TO.P,U1,1,ENABLE_1*%
%TO.N,Net-(U1-Pad1)*%
X157643100Y-109954900D03*
%TO.P,U1,2,INPUT_1*%
%TO.N,Net-(U1-Pad2)*%
X158913100Y-109954900D03*
%TO.P,U1,3,OUTPUT_1*%
%TO.N,/ML1*%
X160183100Y-109954900D03*
%TO.P,U1,4,GND_2*%
%TO.N,GND*%
X161453100Y-109954900D03*
%TO.P,U1,5,GND_3*%
X162723100Y-109954900D03*
%TO.P,U1,6,GND_4*%
X163993100Y-109954900D03*
%TO.P,U1,7,GND_5*%
X165263100Y-109954900D03*
%TO.P,U1,8,OUTPUT_2*%
%TO.N,/ML2*%
X166533100Y-109954900D03*
%TO.P,U1,9,INPUT_2*%
%TO.N,Net-(U1-Pad9)*%
X167803100Y-109954900D03*
%TO.P,U1,10,VS_SUPPLY*%
%TO.N,+5V*%
X169073100Y-109954900D03*
%TO.P,U1,11,ENABLE_2*%
%TO.N,Net-(U1-Pad11)*%
X169073100Y-100582300D03*
%TO.P,U1,12,INPUT_3*%
%TO.N,Net-(U1-Pad12)*%
X167803100Y-100582300D03*
%TO.P,U1,13,OUTPUT_3*%
%TO.N,/MR1*%
X166533100Y-100582300D03*
%TO.P,U1,14,GND_6*%
%TO.N,GND*%
X165263100Y-100582300D03*
%TO.P,U1,15,GND_7*%
X163993100Y-100582300D03*
%TO.P,U1,16,GND_8*%
X162723100Y-100582300D03*
%TO.P,U1,17,GND*%
X161453100Y-100582300D03*
%TO.P,U1,18,OUTPUT_4*%
%TO.N,/MR2*%
X160183100Y-100582300D03*
%TO.P,U1,19,INPUT_4*%
%TO.N,Net-(U1-Pad19)*%
X158913100Y-100582300D03*
%TO.P,U1,20,VSS_LOGIC*%
%TO.N,+5V*%
X157643100Y-100582300D03*
%TD*%
D13*
%TO.P,U8,1,~{INT}*%
%TO.N,Net-(R13-PadP$1)*%
X182154100Y-118286100D03*
%TO.P,U8,2,A1*%
%TO.N,GND*%
X182154100Y-117636100D03*
%TO.P,U8,3,~{RESET}*%
%TO.N,Net-(R12-PadP$1)*%
X182154100Y-116986100D03*
%TO.P,U8,4,P00*%
%TO.N,/XS1*%
X182154100Y-116336100D03*
%TO.P,U8,5,P01*%
%TO.N,/XS2*%
X182154100Y-115686100D03*
%TO.P,U8,6,P02*%
%TO.N,/XS3*%
X182154100Y-115036100D03*
%TO.P,U8,7,P03*%
%TO.N,/NW*%
X182154100Y-114386100D03*
%TO.P,U8,8,P04*%
%TO.N,/NE*%
X182154100Y-113736100D03*
%TO.P,U8,9,P05*%
%TO.N,/SW*%
X182154100Y-113086100D03*
%TO.P,U8,10,P06*%
%TO.N,/SE*%
X182154100Y-112436100D03*
%TO.P,U8,11,P07*%
%TO.N,/IO1*%
X182154100Y-111786100D03*
%TO.P,U8,12,GND*%
%TO.N,GND*%
X182154100Y-111136100D03*
%TO.P,U8,13,P10*%
%TO.N,/IO2*%
X176354100Y-111136100D03*
%TO.P,U8,14,P11*%
%TO.N,/IO3*%
X176354100Y-111786100D03*
%TO.P,U8,15,P12*%
%TO.N,/IO4*%
X176354100Y-112436100D03*
%TO.P,U8,16,P13*%
%TO.N,/IO5*%
X176354100Y-113086100D03*
%TO.P,U8,17,P14*%
%TO.N,/INPUT_1*%
X176354100Y-113736100D03*
%TO.P,U8,18,P15*%
%TO.N,/INPUT_2*%
X176354100Y-114386100D03*
%TO.P,U8,19,P16*%
%TO.N,/INPUT_3*%
X176354100Y-115036100D03*
%TO.P,U8,20,P17*%
%TO.N,/INPUT_4*%
X176354100Y-115686100D03*
%TO.P,U8,21,A0*%
%TO.N,GND*%
X176354100Y-116336100D03*
%TO.P,U8,22,SCL*%
%TO.N,SCL*%
X176354100Y-116986100D03*
%TO.P,U8,23,SDA*%
%TO.N,SDA*%
X176354100Y-117636100D03*
%TO.P,U8,24,VCC*%
%TO.N,+3V3*%
X176354100Y-118286100D03*
%TD*%
D14*
%TO.P,U15,1,Pin_1*%
%TO.N,+3V3*%
X101880000Y-137110000D03*
D15*
%TO.P,U15,2,Pin_2*%
%TO.N,SDA*%
X104420000Y-137110000D03*
%TO.P,U15,3,Pin_3*%
%TO.N,SCL*%
X106960000Y-137110000D03*
%TO.P,U15,4,Pin_4*%
%TO.N,unconnected-(U15-Pad4)*%
X109500000Y-137110000D03*
%TO.P,U15,5,Pin_5*%
%TO.N,GND*%
X112040000Y-137110000D03*
%TD*%
D16*
%TO.P,U7,1,Pin_1*%
%TO.N,+3V3*%
X182154100Y-138034600D03*
D17*
%TO.P,U7,2,Pin_2*%
%TO.N,SDA*%
X184182634Y-136505990D03*
%TO.P,U7,3,Pin_3*%
%TO.N,SCL*%
X186211168Y-134977380D03*
%TO.P,U7,4,Pin_4*%
%TO.N,/XS1*%
X188239703Y-133448770D03*
%TO.P,U7,5,Pin_5*%
%TO.N,GND*%
X190268237Y-131920159D03*
%TD*%
D14*
%TO.P,JP2,1,Pin_1*%
%TO.N,IO32*%
X140000000Y-92100000D03*
D15*
%TO.P,JP2,2,Pin_2*%
%TO.N,IO15*%
X140000000Y-89560000D03*
%TO.P,JP2,3,Pin_3*%
%TO.N,IO33*%
X140000000Y-87020000D03*
%TO.P,JP2,4,Pin_4*%
%TO.N,IO27*%
X140000000Y-84480000D03*
%TO.P,JP2,5,Pin_5*%
%TO.N,IO12*%
X140000000Y-81940000D03*
%TO.P,JP2,6,Pin_6*%
%TO.N,IO13*%
X140000000Y-79400000D03*
%TD*%
D14*
%TO.P,U10,+3V3,+3V3*%
%TO.N,+3V3*%
X176190000Y-122810000D03*
D15*
%TO.P,U10,GND,GND*%
%TO.N,GND*%
X176190000Y-127890000D03*
%TO.P,U10,SIGNAL,SIGNAL*%
%TO.N,/NE*%
X176190000Y-125350000D03*
%TD*%
D18*
%TO.P,U5,1,Pin_1*%
%TO.N,+3V3*%
X192695100Y-79741600D03*
D19*
%TO.P,U5,2,Pin_2*%
%TO.N,SDA*%
X190666566Y-78212990D03*
%TO.P,U5,3,Pin_3*%
%TO.N,SCL*%
X188638032Y-76684380D03*
%TO.P,U5,4,Pin_4*%
%TO.N,/XS3*%
X186609497Y-75155770D03*
%TO.P,U5,5,Pin_5*%
%TO.N,GND*%
X184580963Y-73627159D03*
%TD*%
D20*
%TO.P,J1,1,1*%
%TO.N,/MR1*%
X156930000Y-92150000D03*
D21*
%TO.P,J1,2,2*%
%TO.N,/MR2*%
X156930000Y-90150000D03*
%TO.P,J1,3,3*%
%TO.N,A2*%
X156930000Y-88150000D03*
%TO.P,J1,4,4*%
%TO.N,IO32*%
X156930000Y-86150000D03*
%TO.P,J1,5,5*%
%TO.N,+3V3*%
X156930000Y-84150000D03*
%TO.P,J1,6,6*%
%TO.N,GND*%
X156930000Y-82150000D03*
%TD*%
D22*
%TO.P,M1,1,1*%
%TO.N,/ML1*%
X162241100Y-116003600D03*
%TO.P,M1,2,2*%
%TO.N,/ML2*%
X170241100Y-116003600D03*
%TD*%
D23*
%TO.P,R10,P$1,P$1*%
%TO.N,SCL*%
X154150600Y-87933100D03*
%TO.P,R10,P$2,P$2*%
%TO.N,+3V3*%
X154150600Y-89127100D03*
%TD*%
D14*
%TO.P,U6,1,Pin_1*%
%TO.N,+3V3*%
X193203100Y-110983600D03*
D15*
%TO.P,U6,2,Pin_2*%
%TO.N,SDA*%
X193203100Y-108443600D03*
%TO.P,U6,3,Pin_3*%
%TO.N,SCL*%
X193203100Y-105903600D03*
%TO.P,U6,4,Pin_4*%
%TO.N,/XS2*%
X193203100Y-103363600D03*
%TO.P,U6,5,Pin_5*%
%TO.N,GND*%
X193203100Y-100823600D03*
%TD*%
D14*
%TO.P,JP1,1,Pin_1*%
%TO.N,IO16*%
X139910000Y-134920000D03*
D15*
%TO.P,JP1,2,Pin_2*%
%TO.N,IO17*%
X139910000Y-132380000D03*
%TO.P,JP1,3,Pin_3*%
%TO.N,A0*%
X139910000Y-129840000D03*
%TO.P,JP1,4,Pin_4*%
%TO.N,A1*%
X139910000Y-127300000D03*
%TO.P,JP1,5,Pin_5*%
%TO.N,A2*%
X139910000Y-124760000D03*
%TO.P,JP1,6,Pin_6*%
%TO.N,A3*%
X139910000Y-122220000D03*
%TO.P,JP1,7,Pin_7*%
%TO.N,A4*%
X139910000Y-119680000D03*
%TO.P,JP1,8,Pin_8*%
%TO.N,unconnected-(JP1-Pad8)*%
X139910000Y-117140000D03*
%TD*%
D24*
%TO.P,R13,P$1,P$1*%
%TO.N,Net-(R13-PadP$1)*%
X183868600Y-118286100D03*
%TO.P,R13,P$2,P$2*%
%TO.N,+3V3*%
X185062600Y-118286100D03*
%TD*%
D20*
%TO.P,J2,1,1*%
%TO.N,/ML1*%
X156770000Y-117200000D03*
D21*
%TO.P,J2,2,2*%
%TO.N,/ML2*%
X156770000Y-119200000D03*
%TO.P,J2,3,3*%
%TO.N,A4*%
X156770000Y-121200000D03*
%TO.P,J2,4,4*%
%TO.N,A3*%
X156770000Y-123200000D03*
%TO.P,J2,5,5*%
%TO.N,+3V3*%
X156770000Y-125200000D03*
%TO.P,J2,6,6*%
%TO.N,GND*%
X156770000Y-127200000D03*
%TD*%
D25*
%TO.P,U4,1*%
%TO.N,N/C*%
X147666100Y-76908100D03*
%TO.P,U4,2*%
X147666100Y-130708100D03*
D26*
%TO.P,U4,3.3V@9,+3.3V*%
%TO.N,+3V3*%
X151166100Y-89203100D03*
%TO.P,U4,3.3V@10,+3.3V*%
X151166100Y-90473100D03*
%TO.P,U4,3.3V@11,+3.3V*%
X151166100Y-91743100D03*
%TO.P,U4,3.3V@12,+3.3V*%
X151166100Y-93013100D03*
%TO.P,U4,3.3V@13,+3.3V*%
X151166100Y-94283100D03*
%TO.P,U4,3.3V@14,+3.3V*%
X151166100Y-95553100D03*
%TO.P,U4,GND@1,GND*%
%TO.N,GND*%
X151166100Y-79043100D03*
%TO.P,U4,GND@2,GND*%
X151166100Y-80313100D03*
%TO.P,U4,GND@3,GND*%
X151166100Y-81583100D03*
%TO.P,U4,GND@4,GND*%
X151166100Y-82853100D03*
%TO.P,U4,GND@5,GND*%
X151166100Y-84123100D03*
%TO.P,U4,GND@6,GND*%
X151166100Y-85393100D03*
%TO.P,U4,P0_ANALOG_IN@36,P0_ANALOG_IN*%
%TO.N,A4*%
X151166100Y-123493100D03*
%TO.P,U4,P0_ANALOG_IN@37,P0_ANALOG_IN*%
X151166100Y-124763100D03*
%TO.P,U4,P0_ANALOG_IN@38,P0_ANALOG_IN*%
X151166100Y-126033100D03*
%TO.P,U4,P0_ANALOG_IN@39,P0_ANALOG_IN*%
X151166100Y-127303100D03*
%TO.P,U4,P1_ANALOG_IN@28,P1_ANALOG_IN*%
%TO.N,A3*%
X151166100Y-113333100D03*
%TO.P,U4,P1_ANALOG_IN@29,P1_ANALOG_IN*%
X151166100Y-114603100D03*
%TO.P,U4,P1_ANALOG_IN@30,P1_ANALOG_IN*%
X151166100Y-115873100D03*
%TO.P,U4,P1_ANALOG_IN@31,P1_ANALOG_IN*%
X151166100Y-117143100D03*
%TO.P,U4,P2_ANALOG_IN@19,P2_ANALOG_IN*%
%TO.N,A2*%
X151166100Y-101903100D03*
%TO.P,U4,P2_ANALOG_IN@20,P2_ANALOG_IN*%
X151166100Y-103173100D03*
%TO.P,U4,P2_ANALOG_IN@21,P2_ANALOG_IN*%
X151166100Y-104443100D03*
%TO.P,U4,P2_ANALOG_IN@22,P2_ANALOG_IN*%
X151166100Y-105713100D03*
%TO.P,U4,P3_LED_COL_1_ANALOG_IN,P3_LED_COL_1_ANALOG_IN*%
%TO.N,IO17*%
X151166100Y-128573100D03*
%TO.P,U4,P4_LED_COL_2_ANALOG_IN,P4_LED_COL_2_ANALOG_IN*%
%TO.N,IO16*%
X151166100Y-122223100D03*
%TO.P,U4,P5_BUTTON_A,P5_BUTTON_A*%
%TO.N,IO32*%
X151166100Y-120953100D03*
%TO.P,U4,P6_LED_COL_9,P6_LED_COL_9*%
%TO.N,IO15*%
X151166100Y-119683100D03*
%TO.P,U4,P7_LED_COL8,P7_LED_COL_8*%
%TO.N,IO33*%
X151166100Y-118413100D03*
%TO.P,U4,P8,P8*%
%TO.N,/IO21*%
X151166100Y-112063100D03*
%TO.P,U4,P9_LED_COL_7,P9_LED_COL_7*%
%TO.N,IO27*%
X151166100Y-110793100D03*
%TO.P,U4,P10_LED_COL_3_ANALOG_IN,P10_LED_COL_3_ANAOLOG_IN*%
%TO.N,IO12*%
X151166100Y-109523100D03*
%TO.P,U4,P11_BUTTON_B,P11_BUTTON_B*%
%TO.N,IO13*%
X151166100Y-108253100D03*
%TO.P,U4,P13_SCK,P13_SCK*%
%TO.N,SCK*%
X151166100Y-100633100D03*
%TO.P,U4,P14_MISO,P14_MISO*%
%TO.N,MISO*%
X151166100Y-99363100D03*
%TO.P,U4,P15_MOSI,P15_MOSI*%
%TO.N,MOSI*%
X151166100Y-98093100D03*
%TO.P,U4,P16,P16*%
%TO.N,A0*%
X151166100Y-96823100D03*
%TO.P,U4,P20_SDA,P20_SDA*%
%TO.N,SDA*%
X151166100Y-86663100D03*
%TO.P,U4,P21_SCL,P19_SCL*%
%TO.N,SCL*%
X151166100Y-87933100D03*
%TO.P,U4,RESERVED,P12(Res)*%
%TO.N,A1*%
X151166100Y-106983100D03*
%TD*%
D22*
%TO.P,M2,1,1*%
%TO.N,/MR1*%
X170601100Y-94343600D03*
%TO.P,M2,2,2*%
%TO.N,/MR2*%
X162601100Y-94343600D03*
%TD*%
D23*
%TO.P,R9,P$1,P$1*%
%TO.N,SDA*%
X154150600Y-86663100D03*
%TO.P,R9,P$2,P$2*%
%TO.N,+3V3*%
X154150600Y-85469100D03*
%TD*%
D14*
%TO.P,J3,1,Pin_1*%
%TO.N,/ML1*%
X135100000Y-109200000D03*
D15*
%TO.P,J3,2,Pin_2*%
%TO.N,/ML2*%
X135100000Y-106660000D03*
%TO.P,J3,3,Pin_3*%
%TO.N,/MR1*%
X135100000Y-104120000D03*
%TO.P,J3,4,Pin_4*%
%TO.N,/MR2*%
X135100000Y-101580000D03*
%TD*%
D27*
%TO.P,U3,1,A1*%
%TO.N,IO15*%
X181657100Y-107022000D03*
%TO.P,U3,2,VCCA*%
%TO.N,+3V3*%
X182307100Y-107022000D03*
%TO.P,U3,3,A2*%
%TO.N,A0*%
X182957100Y-107022000D03*
%TO.P,U3,4,A3*%
%TO.N,/INPUT_1*%
X183607100Y-107022000D03*
%TO.P,U3,5,A4*%
%TO.N,/INPUT_2*%
X184257096Y-107022000D03*
%TO.P,U3,6,A5*%
%TO.N,/INPUT_3*%
X184907100Y-107022000D03*
%TO.P,U3,7,A6*%
%TO.N,/INPUT_4*%
X185557096Y-107022000D03*
%TO.P,U3,8,OE*%
%TO.N,Net-(R11-PadP$1)*%
X186207100Y-107022000D03*
%TO.P,U3,9,GND*%
%TO.N,GND*%
X186207100Y-101483200D03*
%TO.P,U3,10,B6*%
%TO.N,Net-(U1-Pad19)*%
X185557100Y-101483200D03*
%TO.P,U3,11,B5*%
%TO.N,Net-(U1-Pad12)*%
X184907100Y-101483200D03*
%TO.P,U3,12,B4*%
%TO.N,Net-(U1-Pad9)*%
X184257100Y-101483200D03*
%TO.P,U3,13,B3*%
%TO.N,Net-(U1-Pad2)*%
X183607104Y-101483200D03*
%TO.P,U3,14,B2*%
%TO.N,Net-(U1-Pad11)*%
X182957100Y-101483200D03*
%TO.P,U3,15,VCCB*%
%TO.N,+5V*%
X182307104Y-101483200D03*
%TO.P,U3,16,B1*%
%TO.N,Net-(U1-Pad1)*%
X181657100Y-101483200D03*
%TD*%
D24*
%TO.P,R12,P$1,P$1*%
%TO.N,Net-(R12-PadP$1)*%
X183868600Y-117016100D03*
%TO.P,R12,P$2,P$2*%
%TO.N,+3V3*%
X185062600Y-117016100D03*
%TD*%
D28*
%TO.P,U13,3V3,+3V3*%
%TO.N,+3V3*%
X177074100Y-97140600D03*
%TO.P,U13,6V,+6V*%
%TO.N,+5V*%
X177074100Y-94600600D03*
%TO.P,U13,GND,GND*%
%TO.N,GND*%
X179614100Y-97140600D03*
%TO.P,U13,GPIO1,GPIO1*%
%TO.N,/IO1*%
X177074100Y-92060600D03*
%TO.P,U13,GPIO2,GPIO2*%
%TO.N,/IO2*%
X177074100Y-89520600D03*
%TO.P,U13,GPIO3,GPIO3*%
%TO.N,/IO3*%
X179614100Y-89520600D03*
%TO.P,U13,GPIO4,GPIO4*%
%TO.N,/IO4*%
X179614100Y-92060600D03*
%TO.P,U13,GPIO5,GPIO5*%
%TO.N,/IO5*%
X179614100Y-94600600D03*
%TD*%
D14*
%TO.P,U16,1,Pin_1*%
%TO.N,GND*%
X101870000Y-72570000D03*
D15*
%TO.P,U16,2,Pin_2*%
%TO.N,unconnected-(U16-Pad2)*%
X104410000Y-72570000D03*
%TO.P,U16,3,Pin_3*%
%TO.N,SCL*%
X106950000Y-72570000D03*
%TO.P,U16,4,Pin_4*%
%TO.N,SDA*%
X109490000Y-72570000D03*
%TO.P,U16,5,Pin_5*%
%TO.N,+3V3*%
X112030000Y-72570000D03*
%TD*%
D14*
%TO.P,U9,+3V3,+3V3*%
%TO.N,+3V3*%
X176190000Y-80810000D03*
D15*
%TO.P,U9,GND,GND*%
%TO.N,GND*%
X176190000Y-85890000D03*
%TO.P,U9,SIGNAL,SIGNAL*%
%TO.N,/NW*%
X176190000Y-83350000D03*
%TD*%
D14*
%TO.P,U14,1,Pin_1*%
%TO.N,GND*%
X139900000Y-112650000D03*
D15*
%TO.P,U14,2,Pin_2*%
%TO.N,unconnected-(U14-Pad2)*%
X139900000Y-110110000D03*
%TO.P,U14,3,Pin_3*%
%TO.N,MISO*%
X139900000Y-107570000D03*
%TO.P,U14,4,Pin_4*%
%TO.N,MOSI*%
X139900000Y-105030000D03*
%TO.P,U14,5,Pin_5*%
%TO.N,SCK*%
X139900000Y-102490000D03*
%TO.P,U14,6,Pin_6*%
%TO.N,unconnected-(U14-Pad6)*%
X139900000Y-99950000D03*
%TO.P,U14,7,Pin_7*%
%TO.N,+5V*%
X139900000Y-97410000D03*
%TD*%
D23*
%TO.P,R11,P$1,P$1*%
%TO.N,Net-(R11-PadP$1)*%
X186218100Y-108634100D03*
%TO.P,R11,P$2,P$2*%
%TO.N,+3V3*%
X186218100Y-109828100D03*
%TD*%
D14*
%TO.P,U11,1,Pin_1*%
%TO.N,GND*%
X134910000Y-79405000D03*
D15*
%TO.P,U11,2,Pin_2*%
%TO.N,+5V*%
X137450000Y-79405000D03*
%TO.P,U11,3,Pin_3*%
%TO.N,GND*%
X134910000Y-81945000D03*
%TO.P,U11,4,Pin_4*%
%TO.N,+5V*%
X137450000Y-81945000D03*
%TD*%
D29*
%TO.N,IO33*%
X147410000Y-119010000D03*
%TO.N,A4*%
X143880000Y-124730000D03*
D30*
%TO.N,GND*%
X148499100Y-84123100D03*
X161453100Y-107745100D03*
X148499100Y-81583100D03*
X186218100Y-100061600D03*
X180693600Y-117651100D03*
X163993100Y-107745100D03*
X148499100Y-80313100D03*
X165263100Y-107745100D03*
X165263100Y-103046100D03*
X161516600Y-103046100D03*
X162723100Y-103046100D03*
X148435600Y-85393100D03*
X178153600Y-116190600D03*
X162723100Y-107745100D03*
X163993100Y-103046100D03*
X180820600Y-111110600D03*
X148499100Y-82789600D03*
X148499100Y-79043100D03*
%TO.N,+3V3*%
X186218100Y-110729600D03*
X148372100Y-90473100D03*
X182281100Y-105776600D03*
X154150600Y-84440600D03*
X148372100Y-91743100D03*
X148372100Y-95553100D03*
X185075100Y-119238600D03*
X154150600Y-90092100D03*
X176340000Y-119280000D03*
X148372100Y-89203100D03*
X186027600Y-117016100D03*
X148372100Y-93013100D03*
X148372100Y-94283100D03*
%TO.N,+5V*%
X182281100Y-100061600D03*
D29*
%TO.N,A3*%
X147600000Y-117180000D03*
%TO.N,IO16*%
X147240000Y-122260000D03*
D30*
%TO.N,Net-(U1-Pad1)*%
X157643100Y-112126600D03*
X179741100Y-107173600D03*
%TO.N,Net-(U1-Pad2)*%
X158913100Y-112126600D03*
X183868600Y-103617600D03*
%TO.N,Net-(U1-Pad9)*%
X167866600Y-112190100D03*
X184948100Y-103046100D03*
%TO.N,Net-(U1-Pad11)*%
X169327100Y-98347100D03*
X182916100Y-102919100D03*
%TO.N,Net-(U1-Pad12)*%
X170057350Y-96854850D03*
X184884600Y-99617100D03*
%TO.N,Net-(U1-Pad19)*%
X185583100Y-98601100D03*
X158870000Y-97620000D03*
D29*
%TO.N,A0*%
X143960000Y-96900000D03*
D30*
X154450000Y-98020000D03*
X180439600Y-104189100D03*
D29*
%TO.N,A1*%
X142450000Y-120950000D03*
%TO.N,/ML2*%
X131360000Y-135670000D03*
X149170000Y-137880000D03*
X131340000Y-136870000D03*
X150370000Y-137890000D03*
%TO.N,IO32*%
X145410000Y-120730000D03*
X143460000Y-90740000D03*
D30*
%TO.N,IO15*%
X154230000Y-105150000D03*
D29*
X144220000Y-89400000D03*
D30*
X181328600Y-105141600D03*
D29*
%TO.N,IO27*%
X144250000Y-116130000D03*
X136370000Y-91320000D03*
%TO.N,IO12*%
X146453100Y-109523100D03*
X144220000Y-92540000D03*
%TO.N,IO13*%
X145900000Y-91860000D03*
X148003100Y-108253100D03*
%TO.N,SCL*%
X179510000Y-120130000D03*
X191480000Y-82340000D03*
%TO.N,SCK*%
X144040000Y-103760000D03*
%TO.N,/XS3*%
X185160000Y-78520000D03*
D30*
%TO.N,/XS2*%
X184884600Y-115174600D03*
%TO.N,/NE*%
X180630100Y-114857100D03*
%TD*%
D31*
%TO.N,A2*%
X155890000Y-96030000D02*
X155890000Y-98810000D01*
D32*
X151166100Y-105713100D02*
X151166100Y-104443100D01*
D33*
X156930000Y-88150000D02*
X159130000Y-88150000D01*
D31*
X152766900Y-103173100D02*
X151166100Y-103173100D01*
X143850000Y-112130000D02*
X143850000Y-107500000D01*
X137630000Y-123480000D02*
X137630000Y-115210000D01*
X143850000Y-107500000D02*
X145636900Y-105713100D01*
D33*
X159130000Y-88150000D02*
X160000000Y-89020000D01*
D32*
X151166100Y-104443100D02*
X151166100Y-103173100D01*
D31*
X138060000Y-114780000D02*
X141200000Y-114780000D01*
D32*
X151166100Y-103173100D02*
X151166100Y-101903100D01*
D31*
X139910000Y-124760000D02*
X138910000Y-124760000D01*
X141200000Y-114780000D02*
X143850000Y-112130000D01*
X153980000Y-100720000D02*
X153980000Y-101960000D01*
X145636900Y-105713100D02*
X151166100Y-105713100D01*
X160000000Y-91920000D02*
X155890000Y-96030000D01*
X137630000Y-115210000D02*
X138060000Y-114780000D01*
X155890000Y-98810000D02*
X153980000Y-100720000D01*
X138910000Y-124760000D02*
X137630000Y-123480000D01*
X153980000Y-101960000D02*
X152766900Y-103173100D01*
X160000000Y-89020000D02*
X160000000Y-91920000D01*
%TO.N,IO33*%
X151166100Y-118413100D02*
X148006900Y-118413100D01*
X148006900Y-118413100D02*
X147410000Y-119010000D01*
D32*
%TO.N,A4*%
X151166100Y-127303100D02*
X151166100Y-126033100D01*
D31*
X151199200Y-124730000D02*
X151166100Y-124763100D01*
D32*
X151166100Y-124763100D02*
X151166100Y-123493100D01*
D31*
X155570000Y-121200000D02*
X156770000Y-121200000D01*
X154210000Y-122560000D02*
X155570000Y-121200000D01*
X154210000Y-124730000D02*
X151199200Y-124730000D01*
X151133000Y-124730000D02*
X151166100Y-124763100D01*
X143880000Y-124730000D02*
X151133000Y-124730000D01*
X154210000Y-124730000D02*
X154210000Y-122560000D01*
D32*
X151166100Y-126033100D02*
X151166100Y-124763100D01*
D34*
%TO.N,/MR2*%
X160183100Y-96761600D02*
X162601100Y-94343600D01*
X160183100Y-100582300D02*
X160183100Y-96761600D01*
D35*
%TO.N,GND*%
X151166100Y-84123100D02*
X148499100Y-84123100D01*
X151102600Y-82789600D02*
X148499100Y-82789600D01*
X151166100Y-82853100D02*
X151102600Y-82789600D01*
X180708600Y-117636100D02*
X180693600Y-117651100D01*
D36*
X162723100Y-100582300D02*
X162723100Y-103046100D01*
X165263100Y-100582300D02*
X165263100Y-103046100D01*
D35*
X151166100Y-81583100D02*
X148499100Y-81583100D01*
D36*
X161453100Y-109954900D02*
X161453100Y-107745100D01*
X162723100Y-109954900D02*
X162723100Y-107745100D01*
D35*
X151166100Y-85393100D02*
X148435600Y-85393100D01*
X151166100Y-79043100D02*
X148499100Y-79043100D01*
D36*
X163993100Y-100582300D02*
X163993100Y-103046100D01*
D35*
X161453100Y-100582300D02*
X161516600Y-100645800D01*
X186207100Y-101483200D02*
X186207100Y-100072600D01*
X182154100Y-117636100D02*
X180708600Y-117636100D01*
D36*
X163993100Y-109954900D02*
X163993100Y-107745100D01*
D35*
X176354100Y-116336100D02*
X178008100Y-116336100D01*
X182154100Y-111136100D02*
X180846100Y-111136100D01*
X151166100Y-80313100D02*
X148499100Y-80313100D01*
D36*
X161516600Y-100645800D02*
X161516600Y-103046100D01*
X165263100Y-109954900D02*
X165263100Y-107745100D01*
D35*
X178008100Y-116336100D02*
X178153600Y-116190600D01*
X186207100Y-100072600D02*
X186218100Y-100061600D01*
X180846100Y-111136100D02*
X180820600Y-111110600D01*
%TO.N,+3V3*%
X182281100Y-106996000D02*
X182281100Y-105776600D01*
X151166100Y-95553100D02*
X148372100Y-95553100D01*
X151166100Y-93013100D02*
X148372100Y-93013100D01*
X151166100Y-89203100D02*
X148372100Y-89203100D01*
X186218100Y-109828100D02*
X186218100Y-110729600D01*
X154150600Y-89127100D02*
X154150600Y-90092100D01*
X185075100Y-118298600D02*
X185075100Y-119238600D01*
X176340000Y-119280000D02*
X176340000Y-118300200D01*
X182307100Y-107022000D02*
X182281100Y-106996000D01*
X185062600Y-117016100D02*
X186027600Y-117016100D01*
X151166100Y-91743100D02*
X148372100Y-91743100D01*
X185062600Y-118286100D02*
X185075100Y-118298600D01*
X151166100Y-90473100D02*
X148372100Y-90473100D01*
X154150600Y-85469100D02*
X154150600Y-84440600D01*
X151166100Y-94283100D02*
X148372100Y-94283100D01*
X176340000Y-118300200D02*
X176354100Y-118286100D01*
D32*
%TO.N,+5V*%
X160210000Y-115170000D02*
X160210000Y-118560000D01*
D35*
X157643100Y-100582300D02*
X157401800Y-100823600D01*
D32*
X161860000Y-120210000D02*
X170620000Y-120210000D01*
D37*
X147950000Y-134630000D02*
X144910000Y-137670000D01*
D34*
X157401800Y-100823600D02*
X156736400Y-100823600D01*
D38*
X139590000Y-97720000D02*
X127530000Y-97720000D01*
D37*
X127040000Y-88050000D02*
X128260000Y-86830000D01*
X170620000Y-120210000D02*
X170620000Y-126680000D01*
D34*
X169073100Y-111733100D02*
X169220000Y-111880000D01*
D37*
X134220000Y-128380000D02*
X130390000Y-124550000D01*
D34*
X161080900Y-92759100D02*
X157643100Y-96196900D01*
X169073100Y-109954900D02*
X169073100Y-111733100D01*
D39*
X172916900Y-117913100D02*
X172916900Y-114986900D01*
D40*
X169220000Y-111880000D02*
X169433100Y-112093100D01*
D32*
X160210000Y-118560000D02*
X161860000Y-120210000D01*
D41*
X172993800Y-115143800D02*
X170210000Y-112360000D01*
D37*
X128260000Y-86830000D02*
X129985050Y-86830000D01*
X144910000Y-137670000D02*
X136480000Y-137670000D01*
X130035050Y-86880000D02*
X129985050Y-86830000D01*
X126948000Y-105822000D02*
X130015050Y-105822000D01*
D42*
X155440000Y-101420000D02*
X155440000Y-101960000D01*
D37*
X134200000Y-86880000D02*
X130035050Y-86880000D01*
X164000000Y-133300000D02*
X153910000Y-133300000D01*
X137450000Y-81945000D02*
X137450000Y-83630000D01*
D35*
X182281100Y-101457197D02*
X182281100Y-100061600D01*
D32*
X156870000Y-113790000D02*
X158830000Y-113790000D01*
D37*
X170620000Y-120210000D02*
X172916900Y-117913100D01*
X125050000Y-107720000D02*
X126948000Y-105822000D01*
D38*
X139900000Y-97410000D02*
X139590000Y-97720000D01*
D37*
X129987050Y-124550000D02*
X126210000Y-124550000D01*
X126210000Y-124550000D02*
X125050000Y-123390000D01*
D34*
X177074100Y-94600600D02*
X175232600Y-92759100D01*
D37*
X170620000Y-126680000D02*
X164000000Y-133300000D01*
X136480000Y-137670000D02*
X134220000Y-135410000D01*
X153910000Y-133300000D02*
X152580000Y-134630000D01*
X130390000Y-124550000D02*
X129987050Y-124550000D01*
D38*
X169525000Y-112150000D02*
X170115000Y-112150000D01*
D32*
X155420000Y-112340000D02*
X156870000Y-113790000D01*
D42*
X156084575Y-100785425D02*
X155455425Y-101414575D01*
D37*
X152580000Y-134630000D02*
X147950000Y-134630000D01*
X126948000Y-98302000D02*
X127040000Y-98210000D01*
D38*
X127530000Y-97720000D02*
X126948000Y-98302000D01*
D37*
X125050000Y-123390000D02*
X125050000Y-107720000D01*
X127040000Y-98210000D02*
X127040000Y-88050000D01*
X137450000Y-83630000D02*
X134200000Y-86880000D01*
D32*
X155420000Y-102040000D02*
X155420000Y-112340000D01*
D35*
X182307103Y-101483200D02*
X182281100Y-101457197D01*
D32*
X158830000Y-113790000D02*
X160210000Y-115170000D01*
D37*
X134220000Y-135410000D02*
X134220000Y-128380000D01*
D34*
X175232600Y-92759100D02*
X161080900Y-92759100D01*
D37*
X137450000Y-81945000D02*
X137450000Y-79405000D01*
X126948000Y-105822000D02*
X126948000Y-98302000D01*
D34*
X157643100Y-96196900D02*
X157643100Y-100582300D01*
D42*
X156569150Y-100780850D02*
X156139150Y-100780850D01*
D34*
%TO.N,/MR1*%
X166533100Y-100582300D02*
X166533100Y-98411600D01*
X166533100Y-98411600D02*
X170601100Y-94343600D01*
D33*
%TO.N,A3*%
X144090000Y-119280000D02*
X144090000Y-121720000D01*
D32*
X151166100Y-117143100D02*
X151166100Y-115873100D01*
D33*
X143590000Y-122220000D02*
X139910000Y-122220000D01*
D31*
X147600000Y-117180000D02*
X147640000Y-117140000D01*
D33*
X146190000Y-117180000D02*
X144090000Y-119280000D01*
D31*
X151163000Y-117140000D02*
X151166100Y-117143100D01*
D32*
X151166100Y-115873100D02*
X151166100Y-114603100D01*
D31*
X147640000Y-117140000D02*
X151163000Y-117140000D01*
D33*
X147600000Y-117180000D02*
X146190000Y-117180000D01*
D32*
X151166100Y-114603100D02*
X151166100Y-113333100D01*
D33*
X144090000Y-121720000D02*
X143590000Y-122220000D01*
D31*
%TO.N,IO16*%
X151129200Y-122260000D02*
X151166100Y-122223100D01*
X147240000Y-122260000D02*
X151129200Y-122260000D01*
%TO.N,IO17*%
X151166100Y-128573100D02*
X146116900Y-128573100D01*
X146116900Y-128573100D02*
X142310000Y-132380000D01*
X142310000Y-132380000D02*
X139910000Y-132380000D01*
D35*
%TO.N,Net-(R12-PadP$1)*%
X183838600Y-116986100D02*
X183868600Y-117016100D01*
X182154100Y-116986100D02*
X183838600Y-116986100D01*
%TO.N,Net-(R13-PadP$1)*%
X182154100Y-118286100D02*
X183868600Y-118286100D01*
%TO.N,/IO1*%
X176590000Y-87420000D02*
X181870000Y-87420000D01*
X187297600Y-92847600D02*
X187297600Y-110666100D01*
X186218100Y-111745600D02*
X182194600Y-111745600D01*
X182194600Y-111745600D02*
X182154100Y-111786100D01*
X177074100Y-92060600D02*
X176390600Y-92060600D01*
X187297600Y-110666100D02*
X186218100Y-111745600D01*
X175590000Y-88420000D02*
X176590000Y-87420000D01*
X181870000Y-87420000D02*
X187297600Y-92847600D01*
X175590000Y-91260000D02*
X175590000Y-88420000D01*
X176390600Y-92060600D02*
X175590000Y-91260000D01*
%TO.N,/IO2*%
X182670000Y-89960000D02*
X180740000Y-88030000D01*
X176354100Y-104485900D02*
X182670000Y-98170000D01*
X178564700Y-88030000D02*
X177074100Y-89520600D01*
X180740000Y-88030000D02*
X178564700Y-88030000D01*
X176354100Y-111136100D02*
X176354100Y-104485900D01*
X182670000Y-98170000D02*
X182670000Y-89960000D01*
%TO.N,/IO3*%
X175336600Y-111786100D02*
X175232600Y-111682100D01*
X181980000Y-91886500D02*
X179614100Y-89520600D01*
X175232600Y-111682100D02*
X175232600Y-104877400D01*
X181980000Y-98130000D02*
X181980000Y-91886500D01*
X176354100Y-111786100D02*
X175336600Y-111786100D01*
X175232600Y-104877400D02*
X181980000Y-98130000D01*
%TO.N,/IO4*%
X175161100Y-112436100D02*
X174590000Y-111865000D01*
X181138100Y-93584600D02*
X179614100Y-92060600D01*
X181138100Y-98219750D02*
X181138100Y-93584600D01*
X176354100Y-112436100D02*
X175161100Y-112436100D01*
X174590000Y-111865000D02*
X174590000Y-104767850D01*
X174590000Y-104767850D02*
X181138100Y-98219750D01*
%TO.N,/IO5*%
X173950000Y-111860000D02*
X173950000Y-98296200D01*
X179614100Y-94664100D02*
X179614100Y-94600600D01*
X178407600Y-95870600D02*
X179614100Y-94664100D01*
X173950000Y-98296200D02*
X176375600Y-95870600D01*
X176354100Y-113086100D02*
X175176100Y-113086100D01*
X175176100Y-113086100D02*
X173950000Y-111860000D01*
X176375600Y-95870600D02*
X178407600Y-95870600D01*
%TO.N,Net-(U1-Pad1)*%
X157643100Y-109954900D02*
X157643100Y-112126600D01*
X181096800Y-101483200D02*
X179741100Y-102838900D01*
X179741100Y-102838900D02*
X179741100Y-107173600D01*
X181657100Y-101483200D02*
X181096800Y-101483200D01*
%TO.N,Net-(U1-Pad2)*%
X183607103Y-103356104D02*
X183868600Y-103617600D01*
X183607103Y-101483200D02*
X183607103Y-103356104D01*
X158913100Y-109954900D02*
X158913100Y-112126600D01*
%TO.N,Net-(U1-Pad9)*%
X167803100Y-112126600D02*
X167803100Y-109954900D01*
X184257100Y-102355100D02*
X184948100Y-103046100D01*
X167866600Y-112190100D02*
X167803100Y-112126600D01*
X184257100Y-101483200D02*
X184257100Y-102355100D01*
%TO.N,Net-(U1-Pad11)*%
X182916100Y-101524200D02*
X182957100Y-101483200D01*
X169073100Y-98601100D02*
X169327100Y-98347100D01*
X169073100Y-100582300D02*
X169073100Y-98601100D01*
X182916100Y-102919100D02*
X182916100Y-101524200D01*
%TO.N,Net-(U1-Pad12)*%
X184907100Y-99639600D02*
X184907100Y-101483200D01*
X167803100Y-100582300D02*
X167803100Y-98728100D01*
X167803100Y-98728100D02*
X169866850Y-96664350D01*
X169866850Y-96664350D02*
X170057350Y-96854850D01*
X184884600Y-99617100D02*
X184907100Y-99639600D01*
%TO.N,Net-(U1-Pad19)*%
X185583100Y-98601100D02*
X185583100Y-101457200D01*
X158913100Y-100582300D02*
X158913100Y-97663100D01*
X185583100Y-101457200D02*
X185557100Y-101483200D01*
X158913100Y-97663100D02*
X158870000Y-97620000D01*
%TO.N,A0*%
X182535100Y-104189100D02*
X180439600Y-104189100D01*
D31*
X143960000Y-96900000D02*
X144036900Y-96823100D01*
D35*
X182957100Y-104611100D02*
X182535100Y-104189100D01*
X153960100Y-97521600D02*
X153261600Y-96823100D01*
X182957100Y-107022000D02*
X182957100Y-104611100D01*
X154450000Y-98020000D02*
X153960100Y-97530100D01*
X153261600Y-96823100D02*
X151166100Y-96823100D01*
D31*
X144036900Y-96823100D02*
X151166100Y-96823100D01*
D35*
X153960100Y-97530100D02*
X153960100Y-97521600D01*
D31*
%TO.N,A1*%
X142450000Y-120950000D02*
X142450000Y-114940000D01*
X144890000Y-107750000D02*
X145656900Y-106983100D01*
X145656900Y-106983100D02*
X151166100Y-106983100D01*
X144890000Y-112500000D02*
X144890000Y-107750000D01*
X142450000Y-114940000D02*
X144890000Y-112500000D01*
D35*
%TO.N,/INPUT_1*%
X183614600Y-107029500D02*
X183607100Y-107022000D01*
X183614600Y-108316600D02*
X183614600Y-107029500D01*
X177830000Y-109465700D02*
X178725100Y-108570600D01*
X177306100Y-113736100D02*
X177830000Y-113212200D01*
X176354100Y-113736100D02*
X177306100Y-113736100D01*
X183360600Y-108570600D02*
X183614600Y-108316600D01*
X178725100Y-108570600D02*
X183360600Y-108570600D01*
X177830000Y-113212200D02*
X177830000Y-109465700D01*
%TO.N,/INPUT_2*%
X176354100Y-114386100D02*
X177354600Y-114386100D01*
X177354600Y-114386100D02*
X178300000Y-113440700D01*
X183616200Y-108950000D02*
X184257096Y-108309104D01*
X178300000Y-113440700D02*
X178300000Y-109620000D01*
X178300000Y-109620000D02*
X178970000Y-108950000D01*
X178970000Y-108950000D02*
X183616200Y-108950000D01*
X184257096Y-108309104D02*
X184257096Y-107022000D01*
%TO.N,/INPUT_3*%
X184907100Y-108357600D02*
X184907100Y-107022000D01*
X179170000Y-109350000D02*
X183914700Y-109350000D01*
X178690000Y-113735756D02*
X178690000Y-109830000D01*
X183914700Y-109350000D02*
X184907100Y-108357600D01*
X176360000Y-115030200D02*
X177395556Y-115030200D01*
X177395556Y-115030200D02*
X178690000Y-113735756D01*
X178690000Y-109830000D02*
X179170000Y-109350000D01*
X176354100Y-115036100D02*
X176360000Y-115030200D01*
%TO.N,/INPUT_4*%
X184076200Y-109760000D02*
X185557096Y-108279104D01*
X177388100Y-115686100D02*
X179110000Y-113964200D01*
X185557096Y-108279104D02*
X185557096Y-107022000D01*
X179450000Y-109760000D02*
X184076200Y-109760000D01*
X176354100Y-115686100D02*
X177388100Y-115686100D01*
X179110000Y-110100000D02*
X179450000Y-109760000D01*
X179110000Y-113964200D02*
X179110000Y-110100000D01*
D34*
%TO.N,/ML2*%
X169493600Y-116003600D02*
X170241100Y-116003600D01*
X166533100Y-109954900D02*
X166533100Y-113043100D01*
X166533100Y-113043100D02*
X169493600Y-116003600D01*
%TO.N,/ML1*%
X162200000Y-114000000D02*
X162200000Y-115962500D01*
X162200000Y-115962500D02*
X162241100Y-116003600D01*
X160183100Y-111983100D02*
X162200000Y-114000000D01*
X160183100Y-109954900D02*
X160183100Y-111983100D01*
D35*
%TO.N,Net-(R11-PadP$1)*%
X186218100Y-108634100D02*
X186207100Y-108623100D01*
X186207100Y-108623100D02*
X186207100Y-107022000D01*
D31*
%TO.N,IO32*%
X145633100Y-120953100D02*
X145410000Y-120730000D01*
X143460000Y-90740000D02*
X142100000Y-92100000D01*
X142100000Y-92100000D02*
X140000000Y-92100000D01*
X151166100Y-120953100D02*
X145633100Y-120953100D01*
D35*
%TO.N,IO15*%
X154230000Y-119230000D02*
X153776900Y-119683100D01*
X181657100Y-105470100D02*
X181657100Y-107022000D01*
D31*
X144220000Y-89400000D02*
X144220000Y-89510000D01*
D35*
X153776900Y-119683100D02*
X151166100Y-119683100D01*
D31*
X144170000Y-89560000D02*
X140000000Y-89560000D01*
X144220000Y-89510000D02*
X144170000Y-89560000D01*
D35*
X154230000Y-105150000D02*
X154230000Y-119230000D01*
X181328600Y-105141600D02*
X181657100Y-105470100D01*
D31*
%TO.N,IO27*%
X139580000Y-84480000D02*
X140000000Y-84480000D01*
X136370000Y-91320000D02*
X137180000Y-90510000D01*
X144250000Y-116130000D02*
X144250000Y-114920000D01*
X137180000Y-86880000D02*
X139580000Y-84480000D01*
X148376900Y-110793100D02*
X151166100Y-110793100D01*
X137180000Y-90510000D02*
X137180000Y-86880000D01*
X144250000Y-114920000D02*
X148376900Y-110793100D01*
%TO.N,IO12*%
X141350000Y-81940000D02*
X140000000Y-81940000D01*
X142200000Y-85610000D02*
X142200000Y-82790000D01*
X144220000Y-91850000D02*
X145350000Y-90720000D01*
X145350000Y-90720000D02*
X145350000Y-88760000D01*
X144220000Y-92540000D02*
X144220000Y-91850000D01*
X151166100Y-109523100D02*
X146453100Y-109523100D01*
X145350000Y-88760000D02*
X142200000Y-85610000D01*
X142200000Y-82790000D02*
X141350000Y-81940000D01*
%TO.N,IO13*%
X151166100Y-108253100D02*
X148003100Y-108253100D01*
X146090000Y-88280000D02*
X146090000Y-91670000D01*
X141340000Y-79400000D02*
X142990000Y-81050000D01*
X142990000Y-81050000D02*
X142990000Y-85180000D01*
X142990000Y-85180000D02*
X146090000Y-88280000D01*
X146090000Y-91670000D02*
X145900000Y-91860000D01*
X140000000Y-79400000D02*
X141340000Y-79400000D01*
D35*
%TO.N,SDA*%
X178270000Y-129030000D02*
X184182634Y-134942634D01*
D31*
X148153100Y-86663100D02*
X145050000Y-83560000D01*
X109490000Y-73740000D02*
X111090000Y-75340000D01*
D35*
X190110000Y-133870000D02*
X187474010Y-136505990D01*
X190580000Y-133870000D02*
X190110000Y-133870000D01*
X189500000Y-87160000D02*
X189200000Y-87460000D01*
D31*
X109490000Y-72570000D02*
X109490000Y-73740000D01*
X140620000Y-73160000D02*
X118220000Y-73160000D01*
D35*
X190666566Y-78212990D02*
X190666566Y-80703434D01*
X154900000Y-86140000D02*
X154900000Y-78570000D01*
X192030000Y-115170000D02*
X192030000Y-128940000D01*
X178270000Y-118148500D02*
X178270000Y-129030000D01*
X154900000Y-78570000D02*
X157830000Y-75640000D01*
X187474010Y-136505990D02*
X184182634Y-136505990D01*
X154150600Y-86663100D02*
X154376900Y-86663100D01*
X190666566Y-76306566D02*
X190666566Y-78212990D01*
X189200000Y-105480000D02*
X192163600Y-108443600D01*
X189570000Y-112710000D02*
X192030000Y-115170000D01*
X189570000Y-110960000D02*
X189570000Y-112710000D01*
D31*
X145050000Y-77590000D02*
X140620000Y-73160000D01*
X151166100Y-86663100D02*
X148153100Y-86663100D01*
X145050000Y-83560000D02*
X145050000Y-77590000D01*
D35*
X189090000Y-74730000D02*
X190666566Y-76306566D01*
X193203100Y-108443600D02*
X192086400Y-108443600D01*
X183430000Y-71970000D02*
X185560000Y-71970000D01*
X192040000Y-128950000D02*
X192040000Y-132410000D01*
X177757600Y-117636100D02*
X178270000Y-118148500D01*
X192030000Y-128940000D02*
X192040000Y-128950000D01*
D31*
X116040000Y-75340000D02*
X118220000Y-73160000D01*
D35*
X151166100Y-86663100D02*
X154150600Y-86663100D01*
X188320000Y-74730000D02*
X189090000Y-74730000D01*
X184182634Y-134942634D02*
X184182634Y-136505990D01*
X185560000Y-71970000D02*
X188320000Y-74730000D01*
X190666566Y-80703434D02*
X189500000Y-81870000D01*
X192040000Y-132410000D02*
X190580000Y-133870000D01*
X192086400Y-108443600D02*
X189570000Y-110960000D01*
X192163600Y-108443600D02*
X193203100Y-108443600D01*
X189500000Y-81870000D02*
X189500000Y-87160000D01*
X179760000Y-75640000D02*
X183430000Y-71970000D01*
X157830000Y-75640000D02*
X179760000Y-75640000D01*
X176354100Y-117636100D02*
X177757600Y-117636100D01*
X189200000Y-87460000D02*
X189200000Y-105480000D01*
D31*
X111090000Y-75340000D02*
X116040000Y-75340000D01*
D35*
X154376900Y-86663100D02*
X154900000Y-86140000D01*
%TO.N,SCL*%
X155400000Y-79450000D02*
X158165618Y-76684382D01*
X185814382Y-76684382D02*
X185970000Y-76840000D01*
X189980000Y-83840000D02*
X189980000Y-88130000D01*
X178546100Y-116986100D02*
X176354100Y-116986100D01*
X155400000Y-87206200D02*
X155400000Y-79450000D01*
X189730000Y-104310000D02*
X191323600Y-105903600D01*
D33*
X109830000Y-134450000D02*
X116890000Y-127390000D01*
D31*
X144130000Y-84100000D02*
X144130000Y-77930000D01*
X106950000Y-73470000D02*
X106950000Y-72570000D01*
D33*
X116890000Y-83410000D02*
X109610000Y-76130000D01*
D31*
X151166100Y-87933100D02*
X147963100Y-87933100D01*
D33*
X106960000Y-135690000D02*
X108200000Y-134450000D01*
X108200000Y-134450000D02*
X109830000Y-134450000D01*
D35*
X179510000Y-117950000D02*
X178546100Y-116986100D01*
X158165618Y-76684382D02*
X185814382Y-76684382D01*
X188482412Y-76840000D02*
X188638032Y-76684380D01*
D31*
X109610000Y-76130000D02*
X106950000Y-73470000D01*
X147963100Y-87933100D02*
X144130000Y-84100000D01*
X117040000Y-76130000D02*
X109610000Y-76130000D01*
D35*
X185970000Y-76840000D02*
X188482412Y-76840000D01*
X189980000Y-88130000D02*
X189730000Y-88380000D01*
D31*
X144130000Y-77930000D02*
X140100000Y-73900000D01*
D33*
X116890000Y-127390000D02*
X116890000Y-83410000D01*
D35*
X189730000Y-88380000D02*
X189730000Y-104310000D01*
X179510000Y-120130000D02*
X179510000Y-117950000D01*
X154673100Y-87933100D02*
X155400000Y-87206200D01*
X191323600Y-105903600D02*
X193203100Y-105903600D01*
D31*
X119270000Y-73900000D02*
X117040000Y-76130000D01*
D35*
X154150600Y-87933100D02*
X154673100Y-87933100D01*
D31*
X140100000Y-73900000D02*
X119270000Y-73900000D01*
D33*
X106960000Y-137110000D02*
X106960000Y-135690000D01*
D35*
X151166100Y-87933100D02*
X154150600Y-87933100D01*
X191480000Y-82340000D02*
X189980000Y-83840000D01*
D31*
%TO.N,SCK*%
X144040000Y-103760000D02*
X144040000Y-103530000D01*
X146936900Y-100633100D02*
X151166100Y-100633100D01*
X144040000Y-103530000D02*
X146936900Y-100633100D01*
%TO.N,MISO*%
X142600000Y-103760000D02*
X146996900Y-99363100D01*
X142600000Y-105920000D02*
X142600000Y-103760000D01*
X140950000Y-107570000D02*
X142600000Y-105920000D01*
X146996900Y-99363100D02*
X151166100Y-99363100D01*
X139900000Y-107570000D02*
X140950000Y-107570000D01*
D35*
%TO.N,/XS3*%
X188631100Y-110348600D02*
X188631100Y-86338900D01*
X186580000Y-78520000D02*
X185160000Y-78520000D01*
X189000000Y-85970000D02*
X189000000Y-80940000D01*
X182154100Y-115036100D02*
X183943600Y-115036100D01*
X188631100Y-86338900D02*
X189000000Y-85970000D01*
X189000000Y-80940000D02*
X186580000Y-78520000D01*
X183943600Y-115036100D02*
X188631100Y-110348600D01*
%TO.N,/XS2*%
X182154100Y-115686100D02*
X183166600Y-115686100D01*
X183166600Y-115686100D02*
X183424100Y-115428600D01*
X184630600Y-115428600D02*
X184884600Y-115174600D01*
X183424100Y-115428600D02*
X184630600Y-115428600D01*
%TO.N,/XS1*%
X187360000Y-132569067D02*
X187360000Y-131700000D01*
X186886600Y-115936600D02*
X183487600Y-115936600D01*
X190300000Y-119350000D02*
X186886600Y-115936600D01*
X183487600Y-115936600D02*
X183106600Y-116317600D01*
X183106600Y-116317600D02*
X182172600Y-116317600D01*
X190300000Y-128760000D02*
X190300000Y-119350000D01*
X188239703Y-133448770D02*
X187360000Y-132569067D01*
X182172600Y-116317600D02*
X182154100Y-116336100D01*
X187360000Y-131700000D02*
X190300000Y-128760000D01*
%TO.N,/NW*%
X187805600Y-92035600D02*
X182400000Y-86630000D01*
X184008656Y-114386100D02*
X187805600Y-110589157D01*
X177430000Y-83350000D02*
X176190000Y-83350000D01*
X177770000Y-83690000D02*
X177430000Y-83350000D01*
X182400000Y-86630000D02*
X179130000Y-86630000D01*
X177770000Y-85270000D02*
X177770000Y-83690000D01*
X187805600Y-110589157D02*
X187805600Y-92035600D01*
X179130000Y-86630000D02*
X177770000Y-85270000D01*
X182154100Y-114386100D02*
X184008656Y-114386100D01*
%TO.N,/NE*%
X182154100Y-113736100D02*
X181179600Y-113736100D01*
X181179600Y-113736100D02*
X180630100Y-114285600D01*
X180630100Y-114285600D02*
X180630100Y-114857100D01*
D31*
%TO.N,MOSI*%
X141410000Y-105030000D02*
X139900000Y-105030000D01*
X141840000Y-104600000D02*
X141410000Y-105030000D01*
X151166100Y-98093100D02*
X147136900Y-98093100D01*
X147136900Y-98093100D02*
X141840000Y-103390000D01*
X141840000Y-103390000D02*
X141840000Y-104600000D01*
%TD*%
%TA.AperFunction,Conductor*%
%TO.N,GND*%
G36*
X173057934Y-97646766D02*
G01*
X173068800Y-97673000D01*
X173068800Y-110807200D01*
X173057934Y-110833434D01*
X173031700Y-110844300D01*
X170367500Y-110844300D01*
X170341266Y-110833434D01*
X170330400Y-110807200D01*
X170330400Y-108710300D01*
X156847500Y-108710300D01*
X156821266Y-108699434D01*
X156810400Y-108673200D01*
X156810400Y-102054500D01*
X156821266Y-102028266D01*
X156847500Y-102017400D01*
X170330400Y-102017400D01*
X170330400Y-97673000D01*
X170341266Y-97646766D01*
X170367500Y-97635900D01*
X173031700Y-97635900D01*
X173057934Y-97646766D01*
G37*
%TD.AperFunction*%
%TD*%
M02*
