%TF.GenerationSoftware,KiCad,Pcbnew,(6.0.7)*%
%TF.CreationDate,2022-09-18T19:12:44+05:00*%
%TF.ProjectId,minisumo_v3,6d696e69-7375-46d6-9f5f-76332e6b6963,rev?*%
%TF.SameCoordinates,Original*%
%TF.FileFunction,Paste,Top*%
%TF.FilePolarity,Positive*%
%FSLAX46Y46*%
G04 Gerber Fmt 4.6, Leading zero omitted, Abs format (unit mm)*
G04 Created by KiCad (PCBNEW (6.0.7)) date 2022-09-18 19:12:44*
%MOMM*%
%LPD*%
G01*
G04 APERTURE LIST*
%ADD10R,0.558800X1.981200*%
%ADD11R,1.500000X0.450000*%
%ADD12R,0.610000X0.635000*%
%ADD13R,0.635000X0.610000*%
%ADD14R,3.500000X0.800000*%
%ADD15R,0.324800X1.365200*%
G04 APERTURE END LIST*
D10*
%TO.C,U1*%
X157643100Y-109954900D03*
X158913100Y-109954900D03*
X160183100Y-109954900D03*
X161453100Y-109954900D03*
X162723100Y-109954900D03*
X163993100Y-109954900D03*
X165263100Y-109954900D03*
X166533100Y-109954900D03*
X167803100Y-109954900D03*
X169073100Y-109954900D03*
X169073100Y-100582300D03*
X167803100Y-100582300D03*
X166533100Y-100582300D03*
X165263100Y-100582300D03*
X163993100Y-100582300D03*
X162723100Y-100582300D03*
X161453100Y-100582300D03*
X160183100Y-100582300D03*
X158913100Y-100582300D03*
X157643100Y-100582300D03*
%TD*%
D11*
%TO.C,U8*%
X182154100Y-118286100D03*
X182154100Y-117636100D03*
X182154100Y-116986100D03*
X182154100Y-116336100D03*
X182154100Y-115686100D03*
X182154100Y-115036100D03*
X182154100Y-114386100D03*
X182154100Y-113736100D03*
X182154100Y-113086100D03*
X182154100Y-112436100D03*
X182154100Y-111786100D03*
X182154100Y-111136100D03*
X176354100Y-111136100D03*
X176354100Y-111786100D03*
X176354100Y-112436100D03*
X176354100Y-113086100D03*
X176354100Y-113736100D03*
X176354100Y-114386100D03*
X176354100Y-115036100D03*
X176354100Y-115686100D03*
X176354100Y-116336100D03*
X176354100Y-116986100D03*
X176354100Y-117636100D03*
X176354100Y-118286100D03*
%TD*%
D12*
%TO.C,R10*%
X154150600Y-87933100D03*
X154150600Y-89127100D03*
%TD*%
D13*
%TO.C,R13*%
X183868600Y-118286100D03*
X185062600Y-118286100D03*
%TD*%
D14*
%TO.C,U4*%
X151166100Y-89203100D03*
X151166100Y-90473100D03*
X151166100Y-91743100D03*
X151166100Y-93013100D03*
X151166100Y-94283100D03*
X151166100Y-95553100D03*
X151166100Y-79043100D03*
X151166100Y-80313100D03*
X151166100Y-81583100D03*
X151166100Y-82853100D03*
X151166100Y-84123100D03*
X151166100Y-85393100D03*
X151166100Y-123493100D03*
X151166100Y-124763100D03*
X151166100Y-126033100D03*
X151166100Y-127303100D03*
X151166100Y-113333100D03*
X151166100Y-114603100D03*
X151166100Y-115873100D03*
X151166100Y-117143100D03*
X151166100Y-101903100D03*
X151166100Y-103173100D03*
X151166100Y-104443100D03*
X151166100Y-105713100D03*
X151166100Y-128573100D03*
X151166100Y-122223100D03*
X151166100Y-120953100D03*
X151166100Y-119683100D03*
X151166100Y-118413100D03*
X151166100Y-112063100D03*
X151166100Y-110793100D03*
X151166100Y-109523100D03*
X151166100Y-108253100D03*
X151166100Y-100633100D03*
X151166100Y-99363100D03*
X151166100Y-98093100D03*
X151166100Y-96823100D03*
X151166100Y-86663100D03*
X151166100Y-87933100D03*
X151166100Y-106983100D03*
%TD*%
D12*
%TO.C,R9*%
X154150600Y-86663100D03*
X154150600Y-85469100D03*
%TD*%
D15*
%TO.C,U3*%
X181657100Y-107022000D03*
X182307100Y-107022000D03*
X182957100Y-107022000D03*
X183607100Y-107022000D03*
X184257096Y-107022000D03*
X184907100Y-107022000D03*
X185557096Y-107022000D03*
X186207100Y-107022000D03*
X186207100Y-101483200D03*
X185557100Y-101483200D03*
X184907100Y-101483200D03*
X184257100Y-101483200D03*
X183607104Y-101483200D03*
X182957100Y-101483200D03*
X182307104Y-101483200D03*
X181657100Y-101483200D03*
%TD*%
D13*
%TO.C,R12*%
X183868600Y-117016100D03*
X185062600Y-117016100D03*
%TD*%
D12*
%TO.C,R11*%
X186218100Y-108634100D03*
X186218100Y-109828100D03*
%TD*%
M02*
