%TF.GenerationSoftware,KiCad,Pcbnew,(6.0.7)*%
%TF.CreationDate,2022-09-18T19:12:44+05:00*%
%TF.ProjectId,minisumo_v3,6d696e69-7375-46d6-9f5f-76332e6b6963,rev?*%
%TF.SameCoordinates,Original*%
%TF.FileFunction,Soldermask,Bot*%
%TF.FilePolarity,Negative*%
%FSLAX46Y46*%
G04 Gerber Fmt 4.6, Leading zero omitted, Abs format (unit mm)*
G04 Created by KiCad (PCBNEW (6.0.7)) date 2022-09-18 19:12:44*
%MOMM*%
%LPD*%
G01*
G04 APERTURE LIST*
G04 Aperture macros list*
%AMRoundRect*
0 Rectangle with rounded corners*
0 $1 Rounding radius*
0 $2 $3 $4 $5 $6 $7 $8 $9 X,Y pos of 4 corners*
0 Add a 4 corners polygon primitive as box body*
4,1,4,$2,$3,$4,$5,$6,$7,$8,$9,$2,$3,0*
0 Add four circle primitives for the rounded corners*
1,1,$1+$1,$2,$3*
1,1,$1+$1,$4,$5*
1,1,$1+$1,$6,$7*
1,1,$1+$1,$8,$9*
0 Add four rect primitives between the rounded corners*
20,1,$1+$1,$2,$3,$4,$5,0*
20,1,$1+$1,$4,$5,$6,$7,0*
20,1,$1+$1,$6,$7,$8,$9,0*
20,1,$1+$1,$8,$9,$2,$3,0*%
%AMHorizOval*
0 Thick line with rounded ends*
0 $1 width*
0 $2 $3 position (X,Y) of the first rounded end (center of the circle)*
0 $4 $5 position (X,Y) of the second rounded end (center of the circle)*
0 Add line between two ends*
20,1,$1,$2,$3,$4,$5,0*
0 Add two circle primitives to create the rounded ends*
1,1,$1,$2,$3*
1,1,$1,$4,$5*%
%AMRotRect*
0 Rectangle, with rotation*
0 The origin of the aperture is its center*
0 $1 length*
0 $2 width*
0 $3 Rotation angle, in degrees counterclockwise*
0 Add horizontal line*
21,1,$1,$2,0,0,$3*%
G04 Aperture macros list end*
%ADD10O,3.200000X3.200000*%
%ADD11R,2.300000X2.100000*%
%ADD12O,2.300000X2.100000*%
%ADD13C,3.500000*%
%ADD14R,1.700000X1.700000*%
%ADD15O,1.700000X1.700000*%
%ADD16RotRect,1.700000X1.700000X127.000000*%
%ADD17HorizOval,1.700000X0.000000X0.000000X0.000000X0.000000X0*%
%ADD18C,3.302000*%
%ADD19RotRect,1.700000X1.700000X233.000000*%
%ADD20HorizOval,1.700000X0.000000X0.000000X0.000000X0.000000X0*%
%ADD21R,1.350000X1.350000*%
%ADD22C,1.350000*%
%ADD23C,2.500000*%
%ADD24C,1.711200*%
%ADD25C,2.703200*%
%ADD26RoundRect,0.101600X0.754000X-0.754000X0.754000X0.754000X-0.754000X0.754000X-0.754000X-0.754000X0*%
G04 APERTURE END LIST*
D10*
%TO.C,U2*%
X106038050Y-76875000D03*
X129038050Y-76875000D03*
X106038050Y-131875000D03*
X129038050Y-131875000D03*
D11*
X130147050Y-124550000D03*
X130145050Y-86830000D03*
X130175050Y-105822000D03*
D12*
X130147050Y-121958800D03*
X130145050Y-84235400D03*
X130175050Y-103230800D03*
D11*
X104797050Y-105780000D03*
X104787050Y-86840000D03*
D12*
X104787050Y-84245400D03*
X104797050Y-103185400D03*
%TD*%
D13*
%TO.C,H2*%
X196001100Y-124503600D03*
%TD*%
D14*
%TO.C,U15*%
X101880000Y-137110000D03*
D15*
X104420000Y-137110000D03*
X106960000Y-137110000D03*
X109500000Y-137110000D03*
X112040000Y-137110000D03*
%TD*%
D16*
%TO.C,U7*%
X182154100Y-138034600D03*
D17*
X184182634Y-136505990D03*
X186211168Y-134977380D03*
X188239703Y-133448770D03*
X190268237Y-131920159D03*
%TD*%
D13*
%TO.C,H3*%
X110001100Y-105003600D03*
%TD*%
D14*
%TO.C,JP2*%
X140000000Y-92100000D03*
D15*
X140000000Y-89560000D03*
X140000000Y-87020000D03*
X140000000Y-84480000D03*
X140000000Y-81940000D03*
X140000000Y-79400000D03*
%TD*%
D18*
%TO.C,U10*%
X186319000Y-125361000D03*
D14*
X176190000Y-122810000D03*
D15*
X176190000Y-127890000D03*
X176190000Y-125350000D03*
%TD*%
D19*
%TO.C,U5*%
X192695100Y-79741600D03*
D20*
X190666566Y-78212990D03*
X188638032Y-76684380D03*
X186609497Y-75155770D03*
X184580963Y-73627159D03*
%TD*%
D21*
%TO.C,J1*%
X156930000Y-92150000D03*
D22*
X156930000Y-90150000D03*
X156930000Y-88150000D03*
X156930000Y-86150000D03*
X156930000Y-84150000D03*
X156930000Y-82150000D03*
%TD*%
D23*
%TO.C,M1*%
X157241100Y-140003600D03*
X175241100Y-140003600D03*
D24*
X162241100Y-116003600D03*
X170241100Y-116003600D03*
%TD*%
D14*
%TO.C,U6*%
X193203100Y-110983600D03*
D15*
X193203100Y-108443600D03*
X193203100Y-105903600D03*
X193203100Y-103363600D03*
X193203100Y-100823600D03*
%TD*%
D14*
%TO.C,JP1*%
X139910000Y-134920000D03*
D15*
X139910000Y-132380000D03*
X139910000Y-129840000D03*
X139910000Y-127300000D03*
X139910000Y-124760000D03*
X139910000Y-122220000D03*
X139910000Y-119680000D03*
X139910000Y-117140000D03*
%TD*%
D21*
%TO.C,J2*%
X156770000Y-117200000D03*
D22*
X156770000Y-119200000D03*
X156770000Y-121200000D03*
X156770000Y-123200000D03*
X156770000Y-125200000D03*
X156770000Y-127200000D03*
%TD*%
D25*
%TO.C,U4*%
X147666100Y-76908100D03*
X147666100Y-130708100D03*
%TD*%
D23*
%TO.C,M2*%
X157601100Y-70343600D03*
X175601100Y-70343600D03*
D24*
X170601100Y-94343600D03*
X162601100Y-94343600D03*
%TD*%
D13*
%TO.C,H1*%
X196001100Y-85503600D03*
%TD*%
D14*
%TO.C,J3*%
X135100000Y-109200000D03*
D15*
X135100000Y-106660000D03*
X135100000Y-104120000D03*
X135100000Y-101580000D03*
%TD*%
D26*
%TO.C,U13*%
X177074100Y-97140600D03*
X177074100Y-94600600D03*
X179614100Y-97140600D03*
X177074100Y-92060600D03*
X177074100Y-89520600D03*
X179614100Y-89520600D03*
X179614100Y-92060600D03*
X179614100Y-94600600D03*
%TD*%
D14*
%TO.C,U16*%
X101870000Y-72570000D03*
D15*
X104410000Y-72570000D03*
X106950000Y-72570000D03*
X109490000Y-72570000D03*
X112030000Y-72570000D03*
%TD*%
D18*
%TO.C,U9*%
X186319000Y-83361000D03*
D14*
X176190000Y-80810000D03*
D15*
X176190000Y-85890000D03*
X176190000Y-83350000D03*
%TD*%
D14*
%TO.C,U14*%
X139900000Y-112650000D03*
D15*
X139900000Y-110110000D03*
X139900000Y-107570000D03*
X139900000Y-105030000D03*
X139900000Y-102490000D03*
X139900000Y-99950000D03*
X139900000Y-97410000D03*
%TD*%
D14*
%TO.C,U11*%
X134910000Y-79405000D03*
D15*
X137450000Y-79405000D03*
X134910000Y-81945000D03*
X137450000Y-81945000D03*
%TD*%
M02*
